<ttFont>
    <TTGlyph name=".notdef" xMin="33" yMin="0" xMax="298" yMax="666">
      <contour>
        <pt x="33" y="0" on="1"/>
        <pt x="33" y="666" on="1"/>
        <pt x="298" y="666" on="1"/>
        <pt x="298" y="0" on="1"/>
      </contour>
      <contour>
        <pt x="66" y="33" on="1"/>
        <pt x="265" y="33" on="1"/>
        <pt x="265" y="633" on="1"/>
        <pt x="66" y="633" on="1"/>
      </contour>
    </TTGlyph>
    <TTGlyph name="A" xMin="58" yMin="2" xMax="588" yMax="701">
      <contour>
        <pt x="581" y="3" on="1"/>
        <pt x="580" y="3" on="0"/>
        <pt x="569" y="2" on="0"/>
        <pt x="564" y="11" on="1"/>
        <pt x="497" y="190" on="1"/>
        <pt x="147" y="190" on="1"/>
        <pt x="80" y="11" on="1"/>
        <pt x="78" y="2" on="0"/>
        <pt x="69" y="2" on="1"/>
        <pt x="65" y="3" on="0"/>
        <pt x="64" y="3" on="1"/>
        <pt x="53" y="8" on="0"/>
        <pt x="58" y="20" on="1"/>
        <pt x="310" y="692" on="1"/>
        <pt x="313" y="702" on="0"/>
        <pt x="331" y="700" on="0"/>
        <pt x="336" y="692" on="1"/>
        <pt x="588" y="20" on="1"/>
        <pt x="593" y="9" on="0"/>
      </contour>
      <contour>
        <pt x="322" y="654" on="1"/>
        <pt x="157" y="216" on="1"/>
        <pt x="487" y="216" on="1"/>
      </contour>
    </TTGlyph>
    <TTGlyph name="AE" xMin="42" yMin="-2" xMax="993" yMax="700">
      <contour>
        <pt x="42" y="19" on="1"/>
        <pt x="58" y="52" on="0"/>
        <pt x="441" y="684" on="1"/>
        <pt x="451" y="700" on="0"/>
        <pt x="467" y="700" on="1"/>
        <pt x="964" y="700" on="1"/>
        <pt x="988" y="700" on="0"/>
        <pt x="988" y="672" on="0"/>
        <pt x="964" y="672" on="1"/>
        <pt x="531" y="672" on="1"/>
        <pt x="531" y="369" on="1"/>
        <pt x="919" y="369" on="1"/>
        <pt x="943" y="369" on="0"/>
        <pt x="943" y="337" on="0"/>
        <pt x="919" y="337" on="1"/>
        <pt x="531" y="337" on="1"/>
        <pt x="531" y="29" on="1"/>
        <pt x="969" y="29" on="1"/>
        <pt x="993" y="29" on="0"/>
        <pt x="993" y="0" on="0"/>
        <pt x="969" y="0" on="1"/>
        <pt x="527" y="0" on="1"/>
        <pt x="516" y="0" on="0"/>
        <pt x="501" y="16" on="0"/>
        <pt x="501" y="26" on="1"/>
        <pt x="501" y="206" on="1"/>
        <pt x="188" y="206" on="1"/>
        <pt x="68" y="8" on="1"/>
        <pt x="61" y="-3" on="0"/>
        <pt x="36" y="1" on="0"/>
      </contour>
      <contour>
        <pt x="205" y="233" on="1"/>
        <pt x="501" y="233" on="1"/>
        <pt x="501" y="673" on="1"/>
        <pt x="469" y="673" on="1"/>
      </contour>
    </TTGlyph>
    <TTGlyph name="Aacute" xMin="58" yMin="2" xMax="588" yMax="923">
      <contour>
        <pt x="581" y="3" on="1"/>
        <pt x="580" y="3" on="0"/>
        <pt x="569" y="2" on="0"/>
        <pt x="564" y="11" on="1"/>
        <pt x="497" y="190" on="1"/>
        <pt x="147" y="190" on="1"/>
        <pt x="80" y="11" on="1"/>
        <pt x="78" y="2" on="0"/>
        <pt x="69" y="2" on="1"/>
        <pt x="65" y="3" on="0"/>
        <pt x="64" y="3" on="1"/>
        <pt x="53" y="8" on="0"/>
        <pt x="58" y="20" on="1"/>
        <pt x="310" y="692" on="1"/>
        <pt x="313" y="702" on="0"/>
        <pt x="331" y="700" on="0"/>
        <pt x="336" y="692" on="1"/>
        <pt x="588" y="20" on="1"/>
        <pt x="593" y="9" on="0"/>
      </contour>
      <contour>
        <pt x="322" y="654" on="1"/>
        <pt x="157" y="216" on="1"/>
        <pt x="487" y="216" on="1"/>
      </contour>
      <contour>
        <pt x="319" y="813" on="1"/>
        <pt x="311" y="804" on="0"/>
        <pt x="288" y="794" on="0"/>
        <pt x="288" y="806" on="0"/>
        <pt x="292" y="812" on="1"/>
        <pt x="354" y="905" on="1"/>
        <pt x="366" y="923" on="0"/>
        <pt x="391" y="923" on="0"/>
        <pt x="394" y="920" on="1"/>
        <pt x="400" y="917" on="0"/>
        <pt x="400" y="908" on="1"/>
        <pt x="403" y="903" on="0"/>
        <pt x="390" y="890" on="1"/>
      </contour>
    </TTGlyph>
    <TTGlyph name="Acircumflex" xMin="59" yMin="2" xMax="589" yMax="920">
      <contour>
        <pt x="65" y="3" on="1"/>
        <pt x="66" y="3" on="0"/>
        <pt x="70" y="2" on="1"/>
        <pt x="79" y="2" on="0"/>
        <pt x="81" y="11" on="1"/>
        <pt x="148" y="190" on="1"/>
        <pt x="498" y="190" on="1"/>
        <pt x="565" y="11" on="1"/>
        <pt x="570" y="2" on="0"/>
        <pt x="581" y="3" on="0"/>
        <pt x="582" y="3" on="1"/>
        <pt x="594" y="9" on="0"/>
        <pt x="589" y="20" on="1"/>
        <pt x="337" y="692" on="1"/>
        <pt x="332" y="700" on="0"/>
        <pt x="314" y="702" on="0"/>
        <pt x="311" y="692" on="1"/>
        <pt x="59" y="20" on="1"/>
        <pt x="54" y="8" on="0"/>
      </contour>
      <contour>
        <pt x="158" y="216" on="1"/>
        <pt x="323" y="654" on="1"/>
        <pt x="488" y="216" on="1"/>
      </contour>
      <contour>
        <pt x="329" y="894" on="1"/>
        <pt x="260" y="818" on="1"/>
        <pt x="242" y="800" on="0"/>
        <pt x="235" y="800" on="1"/>
        <pt x="221" y="802" on="0"/>
        <pt x="221" y="802" on="1"/>
        <pt x="221" y="808" on="0"/>
        <pt x="226" y="814" on="1"/>
        <pt x="298" y="902" on="1"/>
        <pt x="313" y="920" on="0"/>
        <pt x="326" y="920" on="1"/>
        <pt x="334" y="920" on="1"/>
        <pt x="347" y="920" on="0"/>
        <pt x="362" y="902" on="1"/>
        <pt x="434" y="814" on="1"/>
        <pt x="439" y="808" on="0"/>
        <pt x="439" y="802" on="1"/>
        <pt x="439" y="798" on="0"/>
        <pt x="429" y="800" on="0"/>
        <pt x="418" y="800" on="0"/>
        <pt x="399" y="819" on="1"/>
      </contour>
    </TTGlyph>
    <TTGlyph name="Adieresis" xMin="59" yMin="2" xMax="589" yMax="871">
      <contour>
        <pt x="65" y="3" on="1"/>
        <pt x="66" y="3" on="0"/>
        <pt x="70" y="2" on="1"/>
        <pt x="79" y="2" on="0"/>
        <pt x="81" y="11" on="1"/>
        <pt x="148" y="190" on="1"/>
        <pt x="498" y="190" on="1"/>
        <pt x="565" y="11" on="1"/>
        <pt x="570" y="2" on="0"/>
        <pt x="581" y="3" on="0"/>
        <pt x="582" y="3" on="1"/>
        <pt x="594" y="9" on="0"/>
        <pt x="589" y="20" on="1"/>
        <pt x="337" y="692" on="1"/>
        <pt x="332" y="700" on="0"/>
        <pt x="314" y="702" on="0"/>
        <pt x="311" y="692" on="1"/>
        <pt x="59" y="20" on="1"/>
        <pt x="54" y="8" on="0"/>
      </contour>
      <contour>
        <pt x="158" y="216" on="1"/>
        <pt x="323" y="654" on="1"/>
        <pt x="488" y="216" on="1"/>
      </contour>
      <contour>
        <pt x="198" y="823" on="0"/>
        <pt x="198" y="851" on="0"/>
        <pt x="218" y="871" on="0"/>
        <pt x="246" y="871" on="0"/>
        <pt x="265" y="851" on="0"/>
        <pt x="265" y="823" on="0"/>
        <pt x="246" y="803" on="0"/>
        <pt x="218" y="803" on="0"/>
      </contour>
      <contour>
        <pt x="380" y="823" on="0"/>
        <pt x="380" y="851" on="0"/>
        <pt x="400" y="871" on="0"/>
        <pt x="428" y="871" on="0"/>
        <pt x="448" y="851" on="0"/>
        <pt x="448" y="823" on="0"/>
        <pt x="428" y="803" on="0"/>
        <pt x="400" y="803" on="0"/>
      </contour>
    </TTGlyph>
    <TTGlyph name="Agrave" xMin="58" yMin="2" xMax="588" yMax="923">
      <contour>
        <pt x="64" y="3" on="1"/>
        <pt x="65" y="3" on="0"/>
        <pt x="69" y="2" on="1"/>
        <pt x="78" y="2" on="0"/>
        <pt x="80" y="11" on="1"/>
        <pt x="147" y="190" on="1"/>
        <pt x="497" y="190" on="1"/>
        <pt x="564" y="11" on="1"/>
        <pt x="569" y="2" on="0"/>
        <pt x="580" y="3" on="0"/>
        <pt x="581" y="3" on="1"/>
        <pt x="593" y="9" on="0"/>
        <pt x="588" y="20" on="1"/>
        <pt x="336" y="692" on="1"/>
        <pt x="331" y="700" on="0"/>
        <pt x="313" y="702" on="0"/>
        <pt x="310" y="692" on="1"/>
        <pt x="58" y="20" on="1"/>
        <pt x="53" y="8" on="0"/>
      </contour>
      <contour>
        <pt x="157" y="216" on="1"/>
        <pt x="322" y="654" on="1"/>
        <pt x="487" y="216" on="1"/>
      </contour>
      <contour>
        <pt x="361" y="812" on="1"/>
        <pt x="365" y="806" on="0"/>
        <pt x="365" y="794" on="0"/>
        <pt x="342" y="804" on="0"/>
        <pt x="334" y="813" on="1"/>
        <pt x="263" y="890" on="1"/>
        <pt x="250" y="903" on="0"/>
        <pt x="253" y="908" on="1"/>
        <pt x="253" y="923" on="0"/>
        <pt x="287" y="923" on="0"/>
        <pt x="299" y="905" on="1"/>
      </contour>
    </TTGlyph>
    <TTGlyph name="Aring" xMin="46" yMin="1" xMax="576" yMax="819">
      <contour>
        <pt x="57" y="1" on="1"/>
        <pt x="53" y="2" on="0"/>
        <pt x="52" y="2" on="1"/>
        <pt x="41" y="7" on="0"/>
        <pt x="46" y="19" on="1"/>
        <pt x="287" y="663" on="1"/>
        <pt x="261" y="670" on="0"/>
        <pt x="228" y="713" on="0"/>
        <pt x="228" y="740" on="1"/>
        <pt x="228" y="741" on="1"/>
        <pt x="228" y="776" on="0"/>
        <pt x="276" y="819" on="0"/>
        <pt x="342" y="819" on="0"/>
        <pt x="390" y="774" on="0"/>
        <pt x="390" y="741" on="1"/>
        <pt x="390" y="740" on="1"/>
        <pt x="390" y="714" on="0"/>
        <pt x="359" y="671" on="0"/>
        <pt x="334" y="664" on="1"/>
        <pt x="576" y="19" on="1"/>
        <pt x="581" y="8" on="0"/>
        <pt x="569" y="2" on="1"/>
        <pt x="568" y="2" on="0"/>
        <pt x="557" y="1" on="0"/>
        <pt x="552" y="10" on="1"/>
        <pt x="485" y="189" on="1"/>
        <pt x="135" y="189" on="1"/>
        <pt x="68" y="10" on="1"/>
        <pt x="66" y="1" on="0"/>
      </contour>
      <contour>
        <pt x="252" y="717" on="0"/>
        <pt x="285" y="682" on="0"/>
        <pt x="334" y="682" on="0"/>
        <pt x="366" y="717" on="0"/>
        <pt x="366" y="739" on="1"/>
        <pt x="366" y="740" on="1"/>
        <pt x="366" y="762" on="0"/>
        <pt x="333" y="797" on="0"/>
        <pt x="285" y="797" on="0"/>
        <pt x="252" y="762" on="0"/>
        <pt x="252" y="740" on="1"/>
        <pt x="252" y="739" on="1"/>
      </contour>
      <contour>
        <pt x="145" y="215" on="1"/>
        <pt x="475" y="215" on="1"/>
        <pt x="310" y="653" on="1"/>
      </contour>
    </TTGlyph>
    <TTGlyph name="Atilde" xMin="59" yMin="2" xMax="589" yMax="899">
      <contour>
        <pt x="65" y="3" on="1"/>
        <pt x="66" y="3" on="0"/>
        <pt x="70" y="2" on="1"/>
        <pt x="79" y="2" on="0"/>
        <pt x="81" y="11" on="1"/>
        <pt x="148" y="190" on="1"/>
        <pt x="498" y="190" on="1"/>
        <pt x="565" y="11" on="1"/>
        <pt x="570" y="2" on="0"/>
        <pt x="581" y="3" on="0"/>
        <pt x="582" y="3" on="1"/>
        <pt x="594" y="9" on="0"/>
        <pt x="589" y="20" on="1"/>
        <pt x="337" y="692" on="1"/>
        <pt x="332" y="700" on="0"/>
        <pt x="314" y="702" on="0"/>
        <pt x="311" y="692" on="1"/>
        <pt x="59" y="20" on="1"/>
        <pt x="54" y="8" on="0"/>
      </contour>
      <contour>
        <pt x="158" y="216" on="1"/>
        <pt x="323" y="654" on="1"/>
        <pt x="488" y="216" on="1"/>
      </contour>
      <contour>
        <pt x="212" y="802" on="1"/>
        <pt x="206" y="790" on="0"/>
        <pt x="196" y="790" on="1"/>
        <pt x="180" y="790" on="0"/>
        <pt x="180" y="803" on="1"/>
        <pt x="180" y="805" on="0"/>
        <pt x="191" y="840" on="0"/>
        <pt x="239" y="877" on="0"/>
        <pt x="279" y="877" on="0"/>
        <pt x="371" y="839" on="0"/>
        <pt x="388" y="839" on="1"/>
        <pt x="419" y="839" on="0"/>
        <pt x="438" y="882" on="1"/>
        <pt x="438" y="890" on="0"/>
        <pt x="447" y="899" on="0"/>
        <pt x="451" y="899" on="1"/>
        <pt x="469" y="899" on="0"/>
        <pt x="469" y="882" on="1"/>
        <pt x="469" y="876" on="0"/>
        <pt x="467" y="870" on="1"/>
        <pt x="445" y="802" on="0"/>
        <pt x="388" y="802" on="1"/>
        <pt x="370" y="802" on="0"/>
        <pt x="278" y="841" on="0"/>
        <pt x="260" y="841" on="1"/>
        <pt x="229" y="841" on="0"/>
      </contour>
    </TTGlyph>
    <TTGlyph name="B" xMin="104" yMin="0" xMax="517" yMax="700">
      <contour>
        <pt x="104" y="13" on="1"/>
        <pt x="104" y="687" on="1"/>
        <pt x="104" y="700" on="0"/>
        <pt x="117" y="700" on="1"/>
        <pt x="277" y="700" on="1"/>
        <pt x="347" y="700" on="0"/>
        <pt x="446" y="601" on="0"/>
        <pt x="446" y="532" on="1"/>
        <pt x="446" y="485" on="0"/>
        <pt x="399" y="407" on="0"/>
        <pt x="359" y="385" on="1"/>
        <pt x="427" y="372" on="0"/>
        <pt x="517" y="265" on="0"/>
        <pt x="517" y="114" on="0"/>
        <pt x="404" y="0" on="0"/>
        <pt x="323" y="0" on="1"/>
        <pt x="117" y="0" on="1"/>
        <pt x="104" y="0" on="0"/>
      </contour>
      <contour>
        <pt x="129" y="25" on="1"/>
        <pt x="323" y="25" on="1"/>
        <pt x="393" y="25" on="0"/>
        <pt x="491" y="124" on="0"/>
        <pt x="491" y="264" on="0"/>
        <pt x="393" y="363" on="0"/>
        <pt x="323" y="363" on="1"/>
        <pt x="129" y="363" on="1"/>
      </contour>
      <contour>
        <pt x="129" y="390" on="1"/>
        <pt x="277" y="390" on="1"/>
        <pt x="336" y="390" on="0"/>
        <pt x="419" y="473" on="0"/>
        <pt x="420" y="532" on="1"/>
        <pt x="419" y="590" on="0"/>
        <pt x="336" y="674" on="0"/>
        <pt x="277" y="675" on="1"/>
        <pt x="129" y="675" on="1"/>
      </contour>
    </TTGlyph>
    <TTGlyph name="C" xMin="73" yMin="0" xMax="667" yMax="710">
      <contour>
        <pt x="647" y="97" on="1"/>
        <pt x="658" y="104" on="0"/>
        <pt x="674" y="87" on="0"/>
        <pt x="663" y="77" on="1"/>
        <pt x="560" y="0" on="0"/>
        <pt x="436" y="0" on="1"/>
        <pt x="286" y="1" on="0"/>
        <pt x="73" y="209" on="0"/>
        <pt x="73" y="502" on="0"/>
        <pt x="286" y="710" on="0"/>
        <pt x="436" y="710" on="1"/>
        <pt x="563" y="710" on="0"/>
        <pt x="663" y="633" on="1"/>
        <pt x="674" y="624" on="0"/>
        <pt x="667" y="615" on="1"/>
        <pt x="656" y="604" on="0"/>
        <pt x="648" y="613" on="1"/>
        <pt x="556" y="684" on="0"/>
        <pt x="436" y="684" on="1"/>
        <pt x="297" y="684" on="0"/>
        <pt x="99" y="492" on="0"/>
        <pt x="99" y="219" on="0"/>
        <pt x="297" y="26" on="0"/>
        <pt x="436" y="26" on="1"/>
        <pt x="555" y="26" on="0"/>
      </contour>
    </TTGlyph>
    <TTGlyph name="Ccedilla" xMin="73" yMin="-142" xMax="667" yMax="710">
      <component glyphName="C" x="0" y="0" flags="0x1004"/>
      <component glyphName="cedilla" x="160" y="0" flags="0x1004"/>
    </TTGlyph>
    <TTGlyph name="D" xMin="104" yMin="0" xMax="601" yMax="700">
      <contour>
        <pt x="104" y="13" on="1"/>
        <pt x="104" y="687" on="1"/>
        <pt x="104" y="700" on="0"/>
        <pt x="117" y="700" on="1"/>
        <pt x="251" y="700" on="1"/>
        <pt x="396" y="700" on="0"/>
        <pt x="601" y="495" on="0"/>
        <pt x="601" y="205" on="0"/>
        <pt x="396" y="0" on="0"/>
        <pt x="251" y="0" on="1"/>
        <pt x="117" y="0" on="1"/>
        <pt x="104" y="0" on="0"/>
      </contour>
      <contour>
        <pt x="129" y="25" on="1"/>
        <pt x="251" y="25" on="1"/>
        <pt x="386" y="27" on="0"/>
        <pt x="575" y="216" on="0"/>
        <pt x="576" y="351" on="1"/>
        <pt x="575" y="485" on="0"/>
        <pt x="386" y="675" on="0"/>
        <pt x="251" y="675" on="1"/>
        <pt x="129" y="675" on="1"/>
      </contour>
    </TTGlyph>
    <TTGlyph name="E" xMin="104" yMin="0" xMax="501" yMax="700">
      <contour>
        <pt x="489" y="0" on="1"/>
        <pt x="116" y="0" on="1"/>
        <pt x="104" y="0" on="0"/>
        <pt x="104" y="13" on="1"/>
        <pt x="104" y="687" on="1"/>
        <pt x="104" y="698" on="0"/>
        <pt x="116" y="700" on="1"/>
        <pt x="489" y="700" on="1"/>
        <pt x="501" y="700" on="0"/>
        <pt x="501" y="675" on="0"/>
        <pt x="489" y="675" on="1"/>
        <pt x="129" y="675" on="1"/>
        <pt x="129" y="363" on="1"/>
        <pt x="446" y="363" on="1"/>
        <pt x="458" y="363" on="0"/>
        <pt x="458" y="338" on="0"/>
        <pt x="446" y="338" on="1"/>
        <pt x="129" y="338" on="1"/>
        <pt x="129" y="25" on="1"/>
        <pt x="489" y="25" on="1"/>
        <pt x="501" y="25" on="0"/>
        <pt x="501" y="0" on="0"/>
      </contour>
    </TTGlyph>
    <TTGlyph name="Eacute" xMin="104" yMin="0" xMax="501" yMax="923">
      <contour>
        <pt x="489" y="0" on="1"/>
        <pt x="116" y="0" on="1"/>
        <pt x="104" y="0" on="0"/>
        <pt x="104" y="13" on="1"/>
        <pt x="104" y="687" on="1"/>
        <pt x="104" y="698" on="0"/>
        <pt x="116" y="700" on="1"/>
        <pt x="489" y="700" on="1"/>
        <pt x="501" y="700" on="0"/>
        <pt x="501" y="675" on="0"/>
        <pt x="489" y="675" on="1"/>
        <pt x="129" y="675" on="1"/>
        <pt x="129" y="363" on="1"/>
        <pt x="446" y="363" on="1"/>
        <pt x="458" y="363" on="0"/>
        <pt x="458" y="338" on="0"/>
        <pt x="446" y="338" on="1"/>
        <pt x="129" y="338" on="1"/>
        <pt x="129" y="25" on="1"/>
        <pt x="489" y="25" on="1"/>
        <pt x="501" y="25" on="0"/>
        <pt x="501" y="0" on="0"/>
      </contour>
      <contour>
        <pt x="282" y="813" on="1"/>
        <pt x="274" y="804" on="0"/>
        <pt x="251" y="794" on="0"/>
        <pt x="251" y="806" on="0"/>
        <pt x="255" y="812" on="1"/>
        <pt x="317" y="905" on="1"/>
        <pt x="329" y="923" on="0"/>
        <pt x="354" y="923" on="0"/>
        <pt x="358" y="920" on="1"/>
        <pt x="363" y="917" on="0"/>
        <pt x="363" y="908" on="1"/>
        <pt x="366" y="903" on="0"/>
        <pt x="353" y="890" on="1"/>
      </contour>
    </TTGlyph>
    <TTGlyph name="Ecircumflex" xMin="104" yMin="0" xMax="501" yMax="920">
      <component glyphName="E" x="0" y="0" flags="0x1004"/>
      <component glyphName="circumflex" x="53" y="200" flags="0x1004"/>
    </TTGlyph>
    <TTGlyph name="Edieresis" xMin="104" yMin="0" xMax="501" yMax="871">
      <contour>
        <pt x="116" y="0" on="1"/>
        <pt x="489" y="0" on="1"/>
        <pt x="501" y="0" on="0"/>
        <pt x="501" y="25" on="0"/>
        <pt x="489" y="25" on="1"/>
        <pt x="129" y="25" on="1"/>
        <pt x="129" y="338" on="1"/>
        <pt x="446" y="338" on="1"/>
        <pt x="458" y="338" on="0"/>
        <pt x="458" y="363" on="0"/>
        <pt x="446" y="363" on="1"/>
        <pt x="129" y="363" on="1"/>
        <pt x="129" y="675" on="1"/>
        <pt x="489" y="675" on="1"/>
        <pt x="501" y="675" on="0"/>
        <pt x="501" y="700" on="0"/>
        <pt x="489" y="700" on="1"/>
        <pt x="116" y="700" on="1"/>
        <pt x="104" y="698" on="0"/>
        <pt x="104" y="687" on="1"/>
        <pt x="104" y="13" on="1"/>
        <pt x="104" y="0" on="0"/>
      </contour>
      <contour>
        <pt x="176" y="823" on="0"/>
        <pt x="176" y="851" on="0"/>
        <pt x="196" y="871" on="0"/>
        <pt x="224" y="871" on="0"/>
        <pt x="243" y="851" on="0"/>
        <pt x="243" y="823" on="0"/>
        <pt x="224" y="803" on="0"/>
        <pt x="196" y="803" on="0"/>
      </contour>
      <contour>
        <pt x="358" y="823" on="0"/>
        <pt x="358" y="851" on="0"/>
        <pt x="378" y="871" on="0"/>
        <pt x="406" y="871" on="0"/>
        <pt x="426" y="851" on="0"/>
        <pt x="426" y="823" on="0"/>
        <pt x="406" y="803" on="0"/>
        <pt x="378" y="803" on="0"/>
      </contour>
    </TTGlyph>
    <TTGlyph name="Egrave" xMin="104" yMin="0" xMax="501" yMax="923">
      <component glyphName="E" x="0" y="0" flags="0x1004"/>
      <component glyphName="grave" x="56" y="200" flags="0x1004"/>
    </TTGlyph>
    <TTGlyph name="Eth" xMin="55" yMin="0" xMax="662" yMax="700">
      <contour>
        <pt x="165" y="13" on="1"/>
        <pt x="165" y="343" on="1"/>
        <pt x="65" y="343" on="1"/>
        <pt x="55" y="343" on="0"/>
        <pt x="55" y="363" on="0"/>
        <pt x="65" y="363" on="1"/>
        <pt x="165" y="363" on="1"/>
        <pt x="165" y="687" on="1"/>
        <pt x="165" y="700" on="0"/>
        <pt x="178" y="700" on="1"/>
        <pt x="312" y="700" on="1"/>
        <pt x="457" y="700" on="0"/>
        <pt x="662" y="495" on="0"/>
        <pt x="662" y="205" on="0"/>
        <pt x="457" y="0" on="0"/>
        <pt x="312" y="0" on="1"/>
        <pt x="178" y="0" on="1"/>
        <pt x="165" y="0" on="0"/>
      </contour>
      <contour>
        <pt x="190" y="25" on="1"/>
        <pt x="312" y="25" on="1"/>
        <pt x="447" y="27" on="0"/>
        <pt x="636" y="216" on="0"/>
        <pt x="637" y="351" on="1"/>
        <pt x="636" y="485" on="0"/>
        <pt x="447" y="675" on="0"/>
        <pt x="312" y="675" on="1"/>
        <pt x="190" y="675" on="1"/>
        <pt x="190" y="363" on="1"/>
        <pt x="293" y="363" on="1"/>
        <pt x="302" y="363" on="0"/>
        <pt x="302" y="343" on="0"/>
        <pt x="293" y="343" on="1"/>
        <pt x="190" y="343" on="1"/>
      </contour>
    </TTGlyph>
    <TTGlyph name="F" xMin="104" yMin="0" xMax="501" yMax="700">
      <contour>
        <pt x="104" y="13" on="1"/>
        <pt x="104" y="687" on="1"/>
        <pt x="104" y="700" on="0"/>
        <pt x="115" y="700" on="1"/>
        <pt x="489" y="700" on="1"/>
        <pt x="501" y="700" on="0"/>
        <pt x="501" y="675" on="0"/>
        <pt x="489" y="675" on="1"/>
        <pt x="128" y="675" on="1"/>
        <pt x="128" y="363" on="1"/>
        <pt x="446" y="363" on="1"/>
        <pt x="458" y="363" on="0"/>
        <pt x="458" y="338" on="0"/>
        <pt x="446" y="338" on="1"/>
        <pt x="128" y="338" on="1"/>
        <pt x="128" y="13" on="1"/>
        <pt x="128" y="0" on="0"/>
        <pt x="115" y="0" on="1"/>
        <pt x="104" y="0" on="0"/>
      </contour>
    </TTGlyph>
    <TTGlyph name="G" xMin="73" yMin="0" xMax="678" yMax="721">
      <contour>
        <pt x="652" y="332" on="1"/>
        <pt x="437" y="332" on="1"/>
        <pt x="432" y="332" on="0"/>
        <pt x="424" y="340" on="0"/>
        <pt x="424" y="350" on="0"/>
        <pt x="432" y="358" on="0"/>
        <pt x="437" y="358" on="1"/>
        <pt x="666" y="358" on="1"/>
        <pt x="678" y="358" on="0"/>
        <pt x="678" y="344" on="1"/>
        <pt x="678" y="90" on="1"/>
        <pt x="678" y="88" on="0"/>
        <pt x="677" y="87" on="1"/>
        <pt x="677" y="85" on="1"/>
        <pt x="676" y="80" on="0"/>
        <pt x="673" y="78" on="1"/>
        <pt x="572" y="0" on="0"/>
        <pt x="443" y="0" on="1"/>
        <pt x="290" y="1" on="0"/>
        <pt x="73" y="212" on="0"/>
        <pt x="73" y="510" on="0"/>
        <pt x="290" y="721" on="0"/>
        <pt x="443" y="721" on="1"/>
        <pt x="574" y="721" on="0"/>
        <pt x="673" y="643" on="1"/>
        <pt x="685" y="634" on="0"/>
        <pt x="666" y="613" on="0"/>
        <pt x="657" y="622" on="1"/>
        <pt x="564" y="696" on="0"/>
        <pt x="443" y="696" on="1"/>
        <pt x="301" y="696" on="0"/>
        <pt x="99" y="500" on="0"/>
        <pt x="99" y="223" on="0"/>
        <pt x="300" y="26" on="0"/>
        <pt x="443" y="26" on="1"/>
        <pt x="559" y="26" on="0"/>
        <pt x="652" y="95" on="1"/>
      </contour>
    </TTGlyph>
    <TTGlyph name="H" xMin="104" yMin="0" xMax="552" yMax="700">
      <contour>
        <pt x="527" y="13" on="1"/>
        <pt x="527" y="338" on="1"/>
        <pt x="129" y="338" on="1"/>
        <pt x="129" y="13" on="1"/>
        <pt x="129" y="8" on="0"/>
        <pt x="122" y="0" on="0"/>
        <pt x="117" y="0" on="1"/>
        <pt x="104" y="0" on="0"/>
        <pt x="104" y="13" on="1"/>
        <pt x="104" y="687" on="1"/>
        <pt x="104" y="700" on="0"/>
        <pt x="117" y="700" on="1"/>
        <pt x="122" y="700" on="0"/>
        <pt x="129" y="692" on="0"/>
        <pt x="129" y="687" on="1"/>
        <pt x="129" y="363" on="1"/>
        <pt x="527" y="363" on="1"/>
        <pt x="527" y="687" on="1"/>
        <pt x="527" y="700" on="0"/>
        <pt x="552" y="700" on="0"/>
        <pt x="552" y="687" on="1"/>
        <pt x="552" y="13" on="1"/>
        <pt x="552" y="0" on="0"/>
        <pt x="527" y="0" on="0"/>
      </contour>
    </TTGlyph>
    <TTGlyph name="I" xMin="111" yMin="0" xMax="136" yMax="700">
      <contour>
        <pt x="111" y="687" on="1"/>
        <pt x="111" y="700" on="0"/>
        <pt x="136" y="700" on="0"/>
        <pt x="136" y="687" on="1"/>
        <pt x="136" y="13" on="1"/>
        <pt x="136" y="0" on="0"/>
        <pt x="111" y="0" on="0"/>
        <pt x="111" y="13" on="1"/>
      </contour>
    </TTGlyph>
    <TTGlyph name="Iacute" xMin="83" yMin="0" xMax="195" yMax="923">
      <contour>
        <pt x="128" y="687" on="1"/>
        <pt x="128" y="700" on="0"/>
        <pt x="153" y="700" on="0"/>
        <pt x="153" y="687" on="1"/>
        <pt x="153" y="13" on="1"/>
        <pt x="153" y="0" on="0"/>
        <pt x="128" y="0" on="0"/>
        <pt x="128" y="13" on="1"/>
      </contour>
      <contour>
        <pt x="114" y="813" on="1"/>
        <pt x="106" y="804" on="0"/>
        <pt x="83" y="794" on="0"/>
        <pt x="83" y="806" on="0"/>
        <pt x="87" y="812" on="1"/>
        <pt x="149" y="905" on="1"/>
        <pt x="161" y="923" on="0"/>
        <pt x="186" y="923" on="0"/>
        <pt x="190" y="920" on="1"/>
        <pt x="195" y="917" on="0"/>
        <pt x="195" y="908" on="1"/>
        <pt x="198" y="903" on="0"/>
        <pt x="185" y="890" on="1"/>
      </contour>
    </TTGlyph>
    <TTGlyph name="Icircumflex" xMin="1" yMin="0" xMax="219" yMax="920">
      <contour>
        <pt x="98" y="13" on="1"/>
        <pt x="98" y="0" on="0"/>
        <pt x="123" y="0" on="0"/>
        <pt x="123" y="13" on="1"/>
        <pt x="123" y="687" on="1"/>
        <pt x="123" y="700" on="0"/>
        <pt x="98" y="700" on="0"/>
        <pt x="98" y="687" on="1"/>
      </contour>
      <contour>
        <pt x="109" y="894" on="1"/>
        <pt x="40" y="818" on="1"/>
        <pt x="22" y="800" on="0"/>
        <pt x="15" y="800" on="1"/>
        <pt x="1" y="802" on="0"/>
        <pt x="1" y="802" on="1"/>
        <pt x="1" y="808" on="0"/>
        <pt x="6" y="814" on="1"/>
        <pt x="78" y="902" on="1"/>
        <pt x="93" y="920" on="0"/>
        <pt x="106" y="920" on="1"/>
        <pt x="114" y="920" on="1"/>
        <pt x="127" y="920" on="0"/>
        <pt x="142" y="902" on="1"/>
        <pt x="214" y="814" on="1"/>
        <pt x="219" y="808" on="0"/>
        <pt x="219" y="802" on="1"/>
        <pt x="214" y="799" on="0"/>
        <pt x="198" y="800" on="0"/>
        <pt x="179" y="819" on="1"/>
      </contour>
    </TTGlyph>
    <TTGlyph name="Idieresis" xMin="-8" yMin="0" xMax="242" yMax="871">
      <contour>
        <pt x="105" y="13" on="1"/>
        <pt x="105" y="0" on="0"/>
        <pt x="130" y="0" on="0"/>
        <pt x="130" y="13" on="1"/>
        <pt x="130" y="687" on="1"/>
        <pt x="130" y="700" on="0"/>
        <pt x="105" y="700" on="0"/>
        <pt x="105" y="687" on="1"/>
      </contour>
      <contour>
        <pt x="-8" y="823" on="0"/>
        <pt x="-8" y="851" on="0"/>
        <pt x="12" y="871" on="0"/>
        <pt x="40" y="871" on="0"/>
        <pt x="59" y="851" on="0"/>
        <pt x="59" y="823" on="0"/>
        <pt x="40" y="803" on="0"/>
        <pt x="12" y="803" on="0"/>
      </contour>
      <contour>
        <pt x="174" y="823" on="0"/>
        <pt x="174" y="851" on="0"/>
        <pt x="194" y="871" on="0"/>
        <pt x="222" y="871" on="0"/>
        <pt x="242" y="851" on="0"/>
        <pt x="242" y="823" on="0"/>
        <pt x="222" y="803" on="0"/>
        <pt x="194" y="803" on="0"/>
      </contour>
    </TTGlyph>
    <TTGlyph name="Igrave" xMin="151" yMin="0" xMax="263" yMax="923">
      <contour>
        <pt x="193" y="13" on="1"/>
        <pt x="193" y="0" on="0"/>
        <pt x="218" y="0" on="0"/>
        <pt x="218" y="13" on="1"/>
        <pt x="218" y="687" on="1"/>
        <pt x="218" y="700" on="0"/>
        <pt x="193" y="700" on="0"/>
        <pt x="193" y="687" on="1"/>
      </contour>
      <contour>
        <pt x="259" y="812" on="1"/>
        <pt x="263" y="806" on="0"/>
        <pt x="263" y="794" on="0"/>
        <pt x="240" y="804" on="0"/>
        <pt x="232" y="813" on="1"/>
        <pt x="161" y="890" on="1"/>
        <pt x="148" y="903" on="0"/>
        <pt x="151" y="908" on="1"/>
        <pt x="151" y="923" on="0"/>
        <pt x="185" y="923" on="0"/>
        <pt x="197" y="905" on="1"/>
      </contour>
    </TTGlyph>
    <TTGlyph name="J" xMin="45" yMin="0" xMax="499" yMax="700">
      <contour>
        <pt x="45" y="162" on="1"/>
        <pt x="39" y="173" on="0"/>
        <pt x="64" y="181" on="0"/>
        <pt x="69" y="170" on="1"/>
        <pt x="89" y="106" on="0"/>
        <pt x="198" y="25" on="0"/>
        <pt x="266" y="25" on="1"/>
        <pt x="352" y="27" on="0"/>
        <pt x="474" y="148" on="0"/>
        <pt x="475" y="234" on="1"/>
        <pt x="475" y="687" on="1"/>
        <pt x="475" y="700" on="0"/>
        <pt x="486" y="700" on="1"/>
        <pt x="499" y="700" on="0"/>
        <pt x="499" y="687" on="1"/>
        <pt x="499" y="234" on="1"/>
        <pt x="499" y="137" on="0"/>
        <pt x="363" y="0" on="0"/>
        <pt x="266" y="0" on="1"/>
        <pt x="189" y="0" on="0"/>
        <pt x="68" y="91" on="0"/>
      </contour>
    </TTGlyph>
    <TTGlyph name="K" xMin="104" yMin="0" xMax="611" yMax="699">
      <contour>
        <pt x="104" y="13" on="1"/>
        <pt x="104" y="686" on="1"/>
        <pt x="104" y="699" on="0"/>
        <pt x="117" y="699" on="1"/>
        <pt x="122" y="699" on="0"/>
        <pt x="130" y="690" on="0"/>
        <pt x="130" y="686" on="1"/>
        <pt x="130" y="236" on="1"/>
        <pt x="589" y="695" on="1"/>
        <pt x="595" y="700" on="0"/>
        <pt x="609" y="695" on="0"/>
        <pt x="612" y="683" on="0"/>
        <pt x="607" y="677" on="1"/>
        <pt x="321" y="391" on="1"/>
        <pt x="608" y="22" on="1"/>
        <pt x="613" y="14" on="0"/>
        <pt x="606" y="0" on="0"/>
        <pt x="596" y="0" on="0"/>
        <pt x="589" y="5" on="1"/>
        <pt x="303" y="373" on="1"/>
        <pt x="130" y="199" on="1"/>
        <pt x="130" y="13" on="1"/>
        <pt x="130" y="8" on="0"/>
        <pt x="122" y="0" on="0"/>
        <pt x="117" y="0" on="1"/>
        <pt x="104" y="0" on="0"/>
      </contour>
    </TTGlyph>
    <TTGlyph name="L" xMin="104" yMin="0" xMax="503" yMax="700">
      <contour>
        <pt x="490" y="0" on="1"/>
        <pt x="117" y="0" on="1"/>
        <pt x="104" y="0" on="0"/>
        <pt x="104" y="13" on="1"/>
        <pt x="104" y="687" on="1"/>
        <pt x="104" y="700" on="0"/>
        <pt x="129" y="700" on="0"/>
        <pt x="129" y="687" on="1"/>
        <pt x="129" y="25" on="1"/>
        <pt x="490" y="25" on="1"/>
        <pt x="503" y="25" on="0"/>
        <pt x="503" y="0" on="0"/>
      </contour>
    </TTGlyph>
    <TTGlyph name="M" xMin="104" yMin="0" xMax="689" yMax="699">
      <contour>
        <pt x="664" y="13" on="1"/>
        <pt x="664" y="649" on="1"/>
        <pt x="409" y="294" on="1"/>
        <pt x="404" y="289" on="0"/>
        <pt x="398" y="289" on="1"/>
        <pt x="396" y="289" on="1"/>
        <pt x="388" y="289" on="0"/>
        <pt x="385" y="294" on="1"/>
        <pt x="129" y="650" on="1"/>
        <pt x="129" y="13" on="1"/>
        <pt x="129" y="0" on="0"/>
        <pt x="104" y="0" on="0"/>
        <pt x="104" y="13" on="1"/>
        <pt x="104" y="686" on="1"/>
        <pt x="104" y="691" on="0"/>
        <pt x="112" y="699" on="0"/>
        <pt x="116" y="699" on="1"/>
        <pt x="122" y="699" on="0"/>
        <pt x="129" y="694" on="1"/>
        <pt x="397" y="322" on="1"/>
        <pt x="665" y="694" on="1"/>
        <pt x="670" y="699" on="0"/>
        <pt x="676" y="699" on="1"/>
        <pt x="689" y="699" on="0"/>
        <pt x="689" y="686" on="1"/>
        <pt x="689" y="13" on="1"/>
        <pt x="689" y="0" on="0"/>
        <pt x="676" y="0" on="1"/>
        <pt x="671" y="0" on="0"/>
        <pt x="664" y="8" on="0"/>
      </contour>
    </TTGlyph>
    <TTGlyph name="N" xMin="104" yMin="0" xMax="614" yMax="696">
      <contour>
        <pt x="589" y="9" on="1"/>
        <pt x="129" y="648" on="1"/>
        <pt x="129" y="13" on="1"/>
        <pt x="129" y="0" on="0"/>
        <pt x="117" y="0" on="1"/>
        <pt x="112" y="0" on="0"/>
        <pt x="104" y="8" on="0"/>
        <pt x="104" y="13" on="1"/>
        <pt x="104" y="685" on="1"/>
        <pt x="104" y="691" on="0"/>
        <pt x="109" y="696" on="1"/>
        <pt x="120" y="702" on="0"/>
        <pt x="127" y="694" on="1"/>
        <pt x="589" y="52" on="1"/>
        <pt x="589" y="682" on="1"/>
        <pt x="589" y="687" on="0"/>
        <pt x="597" y="695" on="0"/>
        <pt x="602" y="695" on="1"/>
        <pt x="614" y="695" on="0"/>
        <pt x="614" y="682" on="1"/>
        <pt x="614" y="13" on="1"/>
        <pt x="614" y="0" on="0"/>
        <pt x="602" y="0" on="1"/>
        <pt x="593" y="0" on="0"/>
        <pt x="590" y="8" on="1"/>
        <pt x="589" y="8" on="0"/>
      </contour>
    </TTGlyph>
    <TTGlyph name="Ntilde" xMin="104" yMin="0" xMax="614" yMax="899">
      <contour>
        <pt x="589" y="9" on="1"/>
        <pt x="589" y="8" on="0"/>
        <pt x="590" y="8" on="1"/>
        <pt x="593" y="0" on="0"/>
        <pt x="602" y="0" on="1"/>
        <pt x="614" y="0" on="0"/>
        <pt x="614" y="13" on="1"/>
        <pt x="614" y="682" on="1"/>
        <pt x="614" y="695" on="0"/>
        <pt x="602" y="695" on="1"/>
        <pt x="597" y="695" on="0"/>
        <pt x="589" y="687" on="0"/>
        <pt x="589" y="682" on="1"/>
        <pt x="589" y="52" on="1"/>
        <pt x="127" y="694" on="1"/>
        <pt x="120" y="702" on="0"/>
        <pt x="109" y="696" on="1"/>
        <pt x="104" y="691" on="0"/>
        <pt x="104" y="685" on="1"/>
        <pt x="104" y="13" on="1"/>
        <pt x="104" y="8" on="0"/>
        <pt x="112" y="0" on="0"/>
        <pt x="117" y="0" on="1"/>
        <pt x="129" y="0" on="0"/>
        <pt x="129" y="13" on="1"/>
        <pt x="129" y="648" on="1"/>
      </contour>
      <contour>
        <pt x="248" y="802" on="1"/>
        <pt x="242" y="790" on="0"/>
        <pt x="232" y="790" on="1"/>
        <pt x="216" y="790" on="0"/>
        <pt x="216" y="803" on="1"/>
        <pt x="216" y="805" on="0"/>
        <pt x="227" y="840" on="0"/>
        <pt x="275" y="877" on="0"/>
        <pt x="316" y="877" on="0"/>
        <pt x="408" y="839" on="0"/>
        <pt x="424" y="839" on="1"/>
        <pt x="455" y="839" on="0"/>
        <pt x="474" y="882" on="1"/>
        <pt x="474" y="890" on="0"/>
        <pt x="483" y="899" on="0"/>
        <pt x="487" y="899" on="1"/>
        <pt x="505" y="899" on="0"/>
        <pt x="505" y="882" on="1"/>
        <pt x="505" y="876" on="0"/>
        <pt x="503" y="870" on="1"/>
        <pt x="481" y="802" on="0"/>
        <pt x="424" y="802" on="1"/>
        <pt x="406" y="802" on="0"/>
        <pt x="314" y="841" on="0"/>
        <pt x="296" y="841" on="1"/>
        <pt x="265" y="841" on="0"/>
      </contour>
    </TTGlyph>
    <TTGlyph name="O" xMin="73" yMin="-13" xMax="756" yMax="710">
      <contour>
        <pt x="74" y="499" on="0"/>
        <pt x="272" y="710" on="0"/>
        <pt x="555" y="710" on="0"/>
        <pt x="754" y="499" on="0"/>
        <pt x="756" y="349" on="1"/>
        <pt x="754" y="198" on="0"/>
        <pt x="556" y="-13" on="0"/>
        <pt x="272" y="-13" on="0"/>
        <pt x="74" y="198" on="0"/>
        <pt x="73" y="349" on="1"/>
      </contour>
      <contour>
        <pt x="414" y="14" on="1"/>
        <pt x="543" y="16" on="0"/>
        <pt x="727" y="211" on="0"/>
        <pt x="728" y="349" on="1"/>
        <pt x="727" y="488" on="0"/>
        <pt x="543" y="684" on="0"/>
        <pt x="285" y="684" on="0"/>
        <pt x="100" y="488" on="0"/>
        <pt x="100" y="211" on="0"/>
        <pt x="284" y="16" on="0"/>
      </contour>
    </TTGlyph>
    <TTGlyph name="OE" xMin="73" yMin="-13" xMax="1133" yMax="710">
      <contour>
        <pt x="1121" y="0" on="1"/>
        <pt x="748" y="0" on="1"/>
        <pt x="736" y="0" on="0"/>
        <pt x="736" y="13" on="1"/>
        <pt x="736" y="228" on="1"/>
        <pt x="699" y="121" on="0"/>
        <pt x="524" y="-13" on="0"/>
        <pt x="414" y="-13" on="1"/>
        <pt x="272" y="-13" on="0"/>
        <pt x="74" y="198" on="0"/>
        <pt x="73" y="349" on="1"/>
        <pt x="74" y="499" on="0"/>
        <pt x="272" y="710" on="0"/>
        <pt x="414" y="710" on="1"/>
        <pt x="524" y="710" on="0"/>
        <pt x="699" y="576" on="0"/>
        <pt x="736" y="469" on="1"/>
        <pt x="736" y="687" on="1"/>
        <pt x="736" y="698" on="0"/>
        <pt x="748" y="700" on="1"/>
        <pt x="1121" y="700" on="1"/>
        <pt x="1133" y="700" on="0"/>
        <pt x="1133" y="675" on="0"/>
        <pt x="1121" y="675" on="1"/>
        <pt x="761" y="675" on="1"/>
        <pt x="761" y="363" on="1"/>
        <pt x="1078" y="363" on="1"/>
        <pt x="1090" y="363" on="0"/>
        <pt x="1090" y="338" on="0"/>
        <pt x="1078" y="338" on="1"/>
        <pt x="761" y="338" on="1"/>
        <pt x="761" y="25" on="1"/>
        <pt x="1121" y="25" on="1"/>
        <pt x="1133" y="25" on="0"/>
        <pt x="1133" y="0" on="0"/>
      </contour>
      <contour>
        <pt x="285" y="684" on="0"/>
        <pt x="100" y="488" on="0"/>
        <pt x="100" y="211" on="0"/>
        <pt x="284" y="16" on="0"/>
        <pt x="414" y="14" on="1"/>
        <pt x="543" y="16" on="0"/>
        <pt x="727" y="211" on="0"/>
        <pt x="728" y="349" on="1"/>
        <pt x="727" y="488" on="0"/>
        <pt x="543" y="684" on="0"/>
      </contour>
    </TTGlyph>
    <TTGlyph name="Oacute" xMin="73" yMin="-13" xMax="756" yMax="923">
      <contour>
        <pt x="74" y="499" on="0"/>
        <pt x="272" y="710" on="0"/>
        <pt x="555" y="710" on="0"/>
        <pt x="754" y="499" on="0"/>
        <pt x="756" y="349" on="1"/>
        <pt x="754" y="198" on="0"/>
        <pt x="556" y="-13" on="0"/>
        <pt x="272" y="-13" on="0"/>
        <pt x="74" y="198" on="0"/>
        <pt x="73" y="349" on="1"/>
      </contour>
      <contour>
        <pt x="414" y="14" on="1"/>
        <pt x="543" y="16" on="0"/>
        <pt x="727" y="211" on="0"/>
        <pt x="728" y="349" on="1"/>
        <pt x="727" y="488" on="0"/>
        <pt x="543" y="684" on="0"/>
        <pt x="285" y="684" on="0"/>
        <pt x="100" y="488" on="0"/>
        <pt x="100" y="211" on="0"/>
        <pt x="284" y="16" on="0"/>
      </contour>
      <contour>
        <pt x="389" y="813" on="1"/>
        <pt x="381" y="804" on="0"/>
        <pt x="358" y="794" on="0"/>
        <pt x="358" y="806" on="0"/>
        <pt x="362" y="812" on="1"/>
        <pt x="424" y="905" on="1"/>
        <pt x="436" y="923" on="0"/>
        <pt x="461" y="923" on="0"/>
        <pt x="464" y="920" on="1"/>
        <pt x="470" y="917" on="0"/>
        <pt x="470" y="908" on="1"/>
        <pt x="473" y="903" on="0"/>
        <pt x="460" y="890" on="1"/>
      </contour>
    </TTGlyph>
    <TTGlyph name="Ocircumflex" xMin="73" yMin="-13" xMax="756" yMax="920">
      <component glyphName="O" x="0" y="0" flags="0x1004"/>
      <component glyphName="circumflex" x="165" y="200" flags="0x1004"/>
    </TTGlyph>
    <TTGlyph name="Odieresis" xMin="73" yMin="-13" xMax="756" yMax="871">
      <contour>
        <pt x="73" y="349" on="1"/>
        <pt x="74" y="198" on="0"/>
        <pt x="272" y="-13" on="0"/>
        <pt x="556" y="-13" on="0"/>
        <pt x="754" y="198" on="0"/>
        <pt x="756" y="349" on="1"/>
        <pt x="754" y="499" on="0"/>
        <pt x="555" y="710" on="0"/>
        <pt x="272" y="710" on="0"/>
        <pt x="74" y="499" on="0"/>
      </contour>
      <contour>
        <pt x="284" y="16" on="0"/>
        <pt x="100" y="211" on="0"/>
        <pt x="100" y="488" on="0"/>
        <pt x="285" y="684" on="0"/>
        <pt x="543" y="684" on="0"/>
        <pt x="727" y="488" on="0"/>
        <pt x="728" y="349" on="1"/>
        <pt x="727" y="211" on="0"/>
        <pt x="543" y="16" on="0"/>
        <pt x="414" y="14" on="1"/>
      </contour>
      <contour>
        <pt x="289" y="823" on="0"/>
        <pt x="289" y="851" on="0"/>
        <pt x="309" y="871" on="0"/>
        <pt x="337" y="871" on="0"/>
        <pt x="356" y="851" on="0"/>
        <pt x="356" y="823" on="0"/>
        <pt x="337" y="803" on="0"/>
        <pt x="309" y="803" on="0"/>
      </contour>
      <contour>
        <pt x="471" y="823" on="0"/>
        <pt x="471" y="851" on="0"/>
        <pt x="491" y="871" on="0"/>
        <pt x="519" y="871" on="0"/>
        <pt x="539" y="851" on="0"/>
        <pt x="539" y="823" on="0"/>
        <pt x="519" y="803" on="0"/>
        <pt x="491" y="803" on="0"/>
      </contour>
    </TTGlyph>
    <TTGlyph name="Ograve" xMin="73" yMin="-13" xMax="756" yMax="923">
      <component glyphName="O" x="0" y="0" flags="0x1004"/>
      <component glyphName="grave" x="194" y="200" flags="0x1004"/>
    </TTGlyph>
    <TTGlyph name="Oslash" xMin="73" yMin="-13" xMax="756" yMax="710">
      <contour>
        <pt x="101" y="32" on="1"/>
        <pt x="705" y="658" on="1"/>
        <pt x="708" y="662" on="0"/>
        <pt x="719" y="663" on="0"/>
        <pt x="723" y="659" on="1"/>
        <pt x="733" y="651" on="0"/>
        <pt x="725" y="641" on="1"/>
        <pt x="118" y="14" on="1"/>
        <pt x="113" y="8" on="0"/>
        <pt x="101" y="11" on="0"/>
        <pt x="101" y="14" on="1"/>
        <pt x="92" y="21" on="0"/>
      </contour>
      <contour>
        <pt x="74" y="499" on="0"/>
        <pt x="272" y="710" on="0"/>
        <pt x="555" y="710" on="0"/>
        <pt x="754" y="499" on="0"/>
        <pt x="756" y="349" on="1"/>
        <pt x="754" y="198" on="0"/>
        <pt x="556" y="-13" on="0"/>
        <pt x="272" y="-13" on="0"/>
        <pt x="74" y="198" on="0"/>
        <pt x="73" y="349" on="1"/>
      </contour>
      <contour>
        <pt x="414" y="14" on="1"/>
        <pt x="543" y="16" on="0"/>
        <pt x="727" y="211" on="0"/>
        <pt x="728" y="349" on="1"/>
        <pt x="727" y="488" on="0"/>
        <pt x="543" y="684" on="0"/>
        <pt x="285" y="684" on="0"/>
        <pt x="100" y="488" on="0"/>
        <pt x="100" y="211" on="0"/>
        <pt x="284" y="16" on="0"/>
      </contour>
    </TTGlyph>
    <TTGlyph name="Otilde" xMin="73" yMin="-13" xMax="756" yMax="899">
      <contour>
        <pt x="73" y="349" on="1"/>
        <pt x="74" y="198" on="0"/>
        <pt x="272" y="-13" on="0"/>
        <pt x="556" y="-13" on="0"/>
        <pt x="754" y="198" on="0"/>
        <pt x="756" y="349" on="1"/>
        <pt x="754" y="499" on="0"/>
        <pt x="555" y="710" on="0"/>
        <pt x="272" y="710" on="0"/>
        <pt x="74" y="499" on="0"/>
      </contour>
      <contour>
        <pt x="284" y="16" on="0"/>
        <pt x="100" y="211" on="0"/>
        <pt x="100" y="488" on="0"/>
        <pt x="285" y="684" on="0"/>
        <pt x="543" y="684" on="0"/>
        <pt x="727" y="488" on="0"/>
        <pt x="728" y="349" on="1"/>
        <pt x="727" y="211" on="0"/>
        <pt x="543" y="16" on="0"/>
        <pt x="414" y="14" on="1"/>
      </contour>
      <contour>
        <pt x="303" y="802" on="1"/>
        <pt x="297" y="790" on="0"/>
        <pt x="287" y="790" on="1"/>
        <pt x="271" y="790" on="0"/>
        <pt x="271" y="803" on="1"/>
        <pt x="271" y="805" on="0"/>
        <pt x="282" y="840" on="0"/>
        <pt x="330" y="877" on="0"/>
        <pt x="370" y="877" on="0"/>
        <pt x="462" y="839" on="0"/>
        <pt x="479" y="839" on="1"/>
        <pt x="510" y="839" on="0"/>
        <pt x="529" y="882" on="1"/>
        <pt x="529" y="890" on="0"/>
        <pt x="538" y="899" on="0"/>
        <pt x="542" y="899" on="1"/>
        <pt x="560" y="899" on="0"/>
        <pt x="560" y="882" on="1"/>
        <pt x="560" y="876" on="0"/>
        <pt x="558" y="870" on="1"/>
        <pt x="536" y="802" on="0"/>
        <pt x="479" y="802" on="1"/>
        <pt x="461" y="802" on="0"/>
        <pt x="369" y="841" on="0"/>
        <pt x="351" y="841" on="1"/>
        <pt x="320" y="841" on="0"/>
      </contour>
    </TTGlyph>
    <TTGlyph name="P" xMin="104" yMin="0" xMax="517" yMax="700">
      <contour>
        <pt x="104" y="13" on="1"/>
        <pt x="104" y="687" on="1"/>
        <pt x="104" y="700" on="0"/>
        <pt x="117" y="700" on="1"/>
        <pt x="322" y="700" on="1"/>
        <pt x="402" y="700" on="0"/>
        <pt x="517" y="586" on="0"/>
        <pt x="517" y="424" on="0"/>
        <pt x="403" y="311" on="0"/>
        <pt x="322" y="311" on="1"/>
        <pt x="129" y="311" on="1"/>
        <pt x="129" y="13" on="1"/>
        <pt x="129" y="0" on="0"/>
        <pt x="104" y="0" on="0"/>
      </contour>
      <contour>
        <pt x="129" y="337" on="1"/>
        <pt x="322" y="337" on="1"/>
        <pt x="392" y="337" on="0"/>
        <pt x="491" y="435" on="0"/>
        <pt x="491" y="575" on="0"/>
        <pt x="392" y="675" on="0"/>
        <pt x="322" y="675" on="1"/>
        <pt x="129" y="675" on="1"/>
      </contour>
    </TTGlyph>
    <TTGlyph name="Q" xMin="66" yMin="-148" xMax="805" yMax="710">
      <contour>
        <pt x="789" y="-69" on="1"/>
        <pt x="795" y="-64" on="0"/>
        <pt x="802" y="-67" on="1"/>
        <pt x="816" y="-74" on="0"/>
        <pt x="805" y="-90" on="1"/>
        <pt x="730" y="-148" on="0"/>
        <pt x="572" y="-148" on="0"/>
        <pt x="476" y="-91" on="1"/>
        <pt x="435" y="-66" on="0"/>
        <pt x="332" y="-66" on="0"/>
        <pt x="279" y="-91" on="1"/>
        <pt x="267" y="-97" on="0"/>
        <pt x="254" y="-73" on="0"/>
        <pt x="266" y="-66" on="1"/>
        <pt x="409" y="1" on="1"/>
        <pt x="400" y="1" on="1"/>
        <pt x="263" y="1" on="0"/>
        <pt x="67" y="208" on="0"/>
        <pt x="66" y="354" on="1"/>
        <pt x="67" y="501" on="0"/>
        <pt x="263" y="710" on="0"/>
        <pt x="539" y="710" on="0"/>
        <pt x="736" y="501" on="0"/>
        <pt x="736" y="354" on="1"/>
        <pt x="736" y="246" on="0"/>
        <pt x="620" y="67" on="0"/>
        <pt x="527" y="26" on="1"/>
        <pt x="384" y="-41" on="1"/>
        <pt x="443" y="-41" on="0"/>
        <pt x="488" y="-69" on="1"/>
        <pt x="580" y="-123" on="0"/>
        <pt x="722" y="-123" on="0"/>
      </contour>
      <contour>
        <pt x="274" y="683" on="0"/>
        <pt x="93" y="491" on="0"/>
        <pt x="93" y="218" on="0"/>
        <pt x="274" y="26" on="0"/>
        <pt x="529" y="26" on="0"/>
        <pt x="711" y="218" on="0"/>
        <pt x="711" y="492" on="0"/>
        <pt x="529" y="683" on="0"/>
      </contour>
    </TTGlyph>
    <TTGlyph name="R" xMin="90" yMin="0" xMax="537" yMax="700">
      <contour>
        <pt x="363" y="319" on="1"/>
        <pt x="490" y="266" on="0"/>
        <pt x="490" y="151" on="1"/>
        <pt x="490" y="79" on="0"/>
        <pt x="505" y="49" on="1"/>
        <pt x="511" y="37" on="0"/>
        <pt x="535" y="39" on="0"/>
        <pt x="537" y="27" on="1"/>
        <pt x="538" y="18" on="0"/>
        <pt x="528" y="11" on="0"/>
        <pt x="520" y="11" on="1"/>
        <pt x="498" y="11" on="0"/>
        <pt x="484" y="38" on="1"/>
        <pt x="465" y="70" on="0"/>
        <pt x="465" y="151" on="1"/>
        <pt x="465" y="214" on="0"/>
        <pt x="357" y="311" on="0"/>
        <pt x="238" y="311" on="1"/>
        <pt x="115" y="311" on="1"/>
        <pt x="115" y="13" on="1"/>
        <pt x="115" y="0" on="0"/>
        <pt x="90" y="0" on="0"/>
        <pt x="90" y="13" on="1"/>
        <pt x="90" y="687" on="1"/>
        <pt x="90" y="700" on="0"/>
        <pt x="103" y="700" on="1"/>
        <pt x="308" y="700" on="1"/>
        <pt x="388" y="700" on="0"/>
        <pt x="503" y="586" on="0"/>
        <pt x="503" y="439" on="0"/>
        <pt x="425" y="336" on="0"/>
      </contour>
      <contour>
        <pt x="115" y="337" on="1"/>
        <pt x="310" y="337" on="1"/>
        <pt x="379" y="338" on="0"/>
        <pt x="477" y="435" on="0"/>
        <pt x="477" y="575" on="0"/>
        <pt x="378" y="675" on="0"/>
        <pt x="308" y="675" on="1"/>
        <pt x="115" y="675" on="1"/>
      </contour>
    </TTGlyph>
    <TTGlyph name="S" xMin="62" yMin="-5" xMax="591" yMax="704">
      <contour>
        <pt x="117" y="59" on="1"/>
        <pt x="81" y="81" on="0"/>
        <pt x="60" y="102" on="0"/>
        <pt x="65" y="116" on="0"/>
        <pt x="77" y="120" on="0"/>
        <pt x="91" y="107" on="0"/>
        <pt x="140" y="71" on="0"/>
        <pt x="265" y="20" on="0"/>
        <pt x="326" y="20" on="1"/>
        <pt x="427" y="20" on="0"/>
        <pt x="566" y="120" on="0"/>
        <pt x="566" y="193" on="1"/>
        <pt x="566" y="250" on="0"/>
        <pt x="533" y="279" on="1"/>
        <pt x="515" y="295" on="0"/>
        <pt x="483" y="316" on="0"/>
        <pt x="452" y="326" on="1"/>
        <pt x="416" y="338" on="0"/>
        <pt x="307" y="364" on="0"/>
        <pt x="267" y="375" on="0"/>
        <pt x="201" y="397" on="0"/>
        <pt x="166" y="421" on="0"/>
        <pt x="146" y="439" on="1"/>
        <pt x="110" y="473" on="0"/>
        <pt x="110" y="606" on="0"/>
        <pt x="237" y="704" on="0"/>
        <pt x="327" y="704" on="1"/>
        <pt x="426" y="704" on="0"/>
        <pt x="504" y="650" on="1"/>
        <pt x="532" y="631" on="0"/>
        <pt x="540" y="619" on="1"/>
        <pt x="548" y="610" on="0"/>
        <pt x="539" y="601" on="1"/>
        <pt x="528" y="594" on="0"/>
        <pt x="521" y="602" on="1"/>
        <pt x="445" y="678" on="0"/>
        <pt x="327" y="678" on="1"/>
        <pt x="248" y="678" on="0"/>
        <pt x="136" y="596" on="0"/>
        <pt x="136" y="538" on="1"/>
        <pt x="136" y="483" on="0"/>
        <pt x="178" y="444" on="1"/>
        <pt x="209" y="416" on="0"/>
        <pt x="286" y="396" on="1"/>
        <pt x="308" y="390" on="0"/>
        <pt x="391" y="371" on="0"/>
        <pt x="432" y="360" on="0"/>
        <pt x="499" y="338" on="0"/>
        <pt x="535" y="313" on="0"/>
        <pt x="554" y="294" on="1"/>
        <pt x="591" y="260" on="0"/>
        <pt x="591" y="193" on="1"/>
        <pt x="591" y="110" on="0"/>
        <pt x="438" y="-5" on="0"/>
        <pt x="221" y="-5" on="0"/>
      </contour>
    </TTGlyph>
    <TTGlyph name="Scaron" xMin="62" yMin="-5" xMax="591" yMax="888">
      <contour>
        <pt x="268" y="869" on="1"/>
        <pt x="337" y="793" on="1"/>
        <pt x="407" y="868" on="1"/>
        <pt x="426" y="887" on="0"/>
        <pt x="434" y="887" on="1"/>
        <pt x="447" y="885" on="0"/>
        <pt x="447" y="885" on="1"/>
        <pt x="447" y="879" on="0"/>
        <pt x="442" y="873" on="1"/>
        <pt x="370" y="785" on="1"/>
        <pt x="355" y="767" on="0"/>
        <pt x="342" y="767" on="1"/>
        <pt x="334" y="767" on="1"/>
        <pt x="321" y="767" on="0"/>
        <pt x="306" y="785" on="1"/>
        <pt x="234" y="873" on="1"/>
        <pt x="229" y="879" on="0"/>
        <pt x="229" y="887" on="0"/>
        <pt x="232" y="888" on="0"/>
        <pt x="241" y="887" on="0"/>
        <pt x="250" y="887" on="0"/>
      </contour>
      <contour>
        <pt x="117" y="59" on="1"/>
        <pt x="81" y="81" on="0"/>
        <pt x="60" y="102" on="0"/>
        <pt x="65" y="116" on="0"/>
        <pt x="77" y="120" on="0"/>
        <pt x="91" y="107" on="0"/>
        <pt x="140" y="71" on="0"/>
        <pt x="265" y="20" on="0"/>
        <pt x="326" y="20" on="1"/>
        <pt x="427" y="20" on="0"/>
        <pt x="566" y="120" on="0"/>
        <pt x="566" y="193" on="1"/>
        <pt x="566" y="250" on="0"/>
        <pt x="533" y="279" on="1"/>
        <pt x="515" y="295" on="0"/>
        <pt x="483" y="316" on="0"/>
        <pt x="452" y="326" on="1"/>
        <pt x="416" y="338" on="0"/>
        <pt x="307" y="364" on="0"/>
        <pt x="267" y="375" on="0"/>
        <pt x="201" y="397" on="0"/>
        <pt x="166" y="421" on="0"/>
        <pt x="146" y="439" on="1"/>
        <pt x="110" y="473" on="0"/>
        <pt x="110" y="606" on="0"/>
        <pt x="237" y="704" on="0"/>
        <pt x="327" y="704" on="1"/>
        <pt x="426" y="704" on="0"/>
        <pt x="504" y="650" on="1"/>
        <pt x="532" y="631" on="0"/>
        <pt x="540" y="619" on="1"/>
        <pt x="548" y="610" on="0"/>
        <pt x="539" y="601" on="1"/>
        <pt x="528" y="594" on="0"/>
        <pt x="521" y="602" on="1"/>
        <pt x="445" y="678" on="0"/>
        <pt x="327" y="678" on="1"/>
        <pt x="248" y="678" on="0"/>
        <pt x="136" y="596" on="0"/>
        <pt x="136" y="538" on="1"/>
        <pt x="136" y="483" on="0"/>
        <pt x="178" y="444" on="1"/>
        <pt x="209" y="416" on="0"/>
        <pt x="286" y="396" on="1"/>
        <pt x="308" y="390" on="0"/>
        <pt x="391" y="371" on="0"/>
        <pt x="432" y="360" on="0"/>
        <pt x="499" y="338" on="0"/>
        <pt x="535" y="313" on="0"/>
        <pt x="554" y="294" on="1"/>
        <pt x="591" y="260" on="0"/>
        <pt x="591" y="193" on="1"/>
        <pt x="591" y="110" on="0"/>
        <pt x="438" y="-5" on="0"/>
        <pt x="221" y="-5" on="0"/>
      </contour>
    </TTGlyph>
    <TTGlyph name="T" xMin="50" yMin="0" xMax="563" yMax="700">
      <contour>
        <pt x="294" y="13" on="1"/>
        <pt x="294" y="675" on="1"/>
        <pt x="63" y="675" on="1"/>
        <pt x="50" y="675" on="0"/>
        <pt x="50" y="700" on="0"/>
        <pt x="63" y="700" on="1"/>
        <pt x="550" y="700" on="1"/>
        <pt x="563" y="700" on="0"/>
        <pt x="563" y="675" on="0"/>
        <pt x="550" y="675" on="1"/>
        <pt x="320" y="675" on="1"/>
        <pt x="320" y="13" on="1"/>
        <pt x="320" y="8" on="0"/>
        <pt x="312" y="0" on="0"/>
        <pt x="307" y="0" on="1"/>
        <pt x="294" y="0" on="0"/>
      </contour>
    </TTGlyph>
    <TTGlyph name="U" xMin="105" yMin="0" xMax="666" yMax="700">
      <contour>
        <pt x="105" y="281" on="1"/>
        <pt x="105" y="687" on="1"/>
        <pt x="105" y="700" on="0"/>
        <pt x="130" y="700" on="0"/>
        <pt x="130" y="687" on="1"/>
        <pt x="130" y="281" on="1"/>
        <pt x="130" y="175" on="0"/>
        <pt x="279" y="27" on="0"/>
        <pt x="385" y="25" on="1"/>
        <pt x="490" y="27" on="0"/>
        <pt x="639" y="175" on="0"/>
        <pt x="640" y="281" on="1"/>
        <pt x="640" y="687" on="1"/>
        <pt x="640" y="700" on="0"/>
        <pt x="653" y="700" on="1"/>
        <pt x="658" y="700" on="0"/>
        <pt x="666" y="692" on="0"/>
        <pt x="666" y="687" on="1"/>
        <pt x="666" y="281" on="1"/>
        <pt x="666" y="164" on="0"/>
        <pt x="501" y="0" on="0"/>
        <pt x="269" y="0" on="0"/>
        <pt x="105" y="164" on="0"/>
      </contour>
    </TTGlyph>
    <TTGlyph name="Uacute" xMin="93" yMin="0" xMax="654" yMax="923">
      <contour>
        <pt x="93" y="281" on="1"/>
        <pt x="93" y="687" on="1"/>
        <pt x="93" y="700" on="0"/>
        <pt x="118" y="700" on="0"/>
        <pt x="118" y="687" on="1"/>
        <pt x="118" y="281" on="1"/>
        <pt x="118" y="175" on="0"/>
        <pt x="267" y="27" on="0"/>
        <pt x="373" y="25" on="1"/>
        <pt x="478" y="27" on="0"/>
        <pt x="627" y="175" on="0"/>
        <pt x="628" y="281" on="1"/>
        <pt x="628" y="687" on="1"/>
        <pt x="628" y="700" on="0"/>
        <pt x="641" y="700" on="1"/>
        <pt x="646" y="700" on="0"/>
        <pt x="654" y="692" on="0"/>
        <pt x="654" y="687" on="1"/>
        <pt x="654" y="281" on="1"/>
        <pt x="654" y="164" on="0"/>
        <pt x="489" y="0" on="0"/>
        <pt x="257" y="0" on="0"/>
        <pt x="93" y="164" on="0"/>
      </contour>
      <contour>
        <pt x="330" y="813" on="1"/>
        <pt x="322" y="804" on="0"/>
        <pt x="299" y="794" on="0"/>
        <pt x="299" y="806" on="0"/>
        <pt x="303" y="812" on="1"/>
        <pt x="365" y="905" on="1"/>
        <pt x="377" y="923" on="0"/>
        <pt x="402" y="923" on="0"/>
        <pt x="406" y="920" on="1"/>
        <pt x="411" y="917" on="0"/>
        <pt x="411" y="908" on="1"/>
        <pt x="414" y="903" on="0"/>
        <pt x="401" y="890" on="1"/>
      </contour>
    </TTGlyph>
    <TTGlyph name="Ucircumflex" xMin="93" yMin="0" xMax="654" yMax="920">
      <contour>
        <pt x="93" y="281" on="1"/>
        <pt x="93" y="164" on="0"/>
        <pt x="257" y="0" on="0"/>
        <pt x="489" y="0" on="0"/>
        <pt x="654" y="164" on="0"/>
        <pt x="654" y="281" on="1"/>
        <pt x="654" y="687" on="1"/>
        <pt x="654" y="692" on="0"/>
        <pt x="646" y="700" on="0"/>
        <pt x="641" y="700" on="1"/>
        <pt x="628" y="700" on="0"/>
        <pt x="628" y="687" on="1"/>
        <pt x="628" y="281" on="1"/>
        <pt x="627" y="175" on="0"/>
        <pt x="478" y="27" on="0"/>
        <pt x="373" y="25" on="1"/>
        <pt x="267" y="27" on="0"/>
        <pt x="118" y="175" on="0"/>
        <pt x="118" y="281" on="1"/>
        <pt x="118" y="687" on="1"/>
        <pt x="118" y="700" on="0"/>
        <pt x="93" y="700" on="0"/>
        <pt x="93" y="687" on="1"/>
      </contour>
      <contour>
        <pt x="338" y="894" on="1"/>
        <pt x="269" y="818" on="1"/>
        <pt x="251" y="800" on="0"/>
        <pt x="244" y="800" on="1"/>
        <pt x="230" y="802" on="0"/>
        <pt x="230" y="802" on="1"/>
        <pt x="230" y="808" on="0"/>
        <pt x="235" y="814" on="1"/>
        <pt x="307" y="902" on="1"/>
        <pt x="322" y="920" on="0"/>
        <pt x="335" y="920" on="1"/>
        <pt x="343" y="920" on="1"/>
        <pt x="356" y="920" on="0"/>
        <pt x="371" y="902" on="1"/>
        <pt x="443" y="814" on="1"/>
        <pt x="448" y="808" on="0"/>
        <pt x="448" y="802" on="1"/>
        <pt x="448" y="798" on="0"/>
        <pt x="438" y="800" on="0"/>
        <pt x="427" y="800" on="0"/>
        <pt x="408" y="819" on="1"/>
      </contour>
    </TTGlyph>
    <TTGlyph name="Udieresis" xMin="93" yMin="0" xMax="654" yMax="871">
      <contour>
        <pt x="93" y="281" on="1"/>
        <pt x="93" y="164" on="0"/>
        <pt x="257" y="0" on="0"/>
        <pt x="489" y="0" on="0"/>
        <pt x="654" y="164" on="0"/>
        <pt x="654" y="281" on="1"/>
        <pt x="654" y="687" on="1"/>
        <pt x="654" y="692" on="0"/>
        <pt x="646" y="700" on="0"/>
        <pt x="641" y="700" on="1"/>
        <pt x="628" y="700" on="0"/>
        <pt x="628" y="687" on="1"/>
        <pt x="628" y="281" on="1"/>
        <pt x="627" y="175" on="0"/>
        <pt x="478" y="27" on="0"/>
        <pt x="373" y="25" on="1"/>
        <pt x="267" y="27" on="0"/>
        <pt x="118" y="175" on="0"/>
        <pt x="118" y="281" on="1"/>
        <pt x="118" y="687" on="1"/>
        <pt x="118" y="700" on="0"/>
        <pt x="93" y="700" on="0"/>
        <pt x="93" y="687" on="1"/>
      </contour>
      <contour>
        <pt x="248" y="823" on="0"/>
        <pt x="248" y="851" on="0"/>
        <pt x="268" y="871" on="0"/>
        <pt x="296" y="871" on="0"/>
        <pt x="315" y="851" on="0"/>
        <pt x="315" y="823" on="0"/>
        <pt x="296" y="803" on="0"/>
        <pt x="268" y="803" on="0"/>
      </contour>
      <contour>
        <pt x="430" y="823" on="0"/>
        <pt x="430" y="851" on="0"/>
        <pt x="450" y="871" on="0"/>
        <pt x="478" y="871" on="0"/>
        <pt x="498" y="851" on="0"/>
        <pt x="498" y="823" on="0"/>
        <pt x="478" y="803" on="0"/>
        <pt x="450" y="803" on="0"/>
      </contour>
    </TTGlyph>
    <TTGlyph name="Ugrave" xMin="93" yMin="0" xMax="654" yMax="923">
      <contour>
        <pt x="93" y="281" on="1"/>
        <pt x="93" y="164" on="0"/>
        <pt x="257" y="0" on="0"/>
        <pt x="489" y="0" on="0"/>
        <pt x="654" y="164" on="0"/>
        <pt x="654" y="281" on="1"/>
        <pt x="654" y="687" on="1"/>
        <pt x="654" y="692" on="0"/>
        <pt x="646" y="700" on="0"/>
        <pt x="641" y="700" on="1"/>
        <pt x="628" y="700" on="0"/>
        <pt x="628" y="687" on="1"/>
        <pt x="628" y="281" on="1"/>
        <pt x="627" y="175" on="0"/>
        <pt x="478" y="27" on="0"/>
        <pt x="373" y="25" on="1"/>
        <pt x="267" y="27" on="0"/>
        <pt x="118" y="175" on="0"/>
        <pt x="118" y="281" on="1"/>
        <pt x="118" y="687" on="1"/>
        <pt x="118" y="700" on="0"/>
        <pt x="93" y="700" on="0"/>
        <pt x="93" y="687" on="1"/>
      </contour>
      <contour>
        <pt x="372" y="812" on="1"/>
        <pt x="376" y="806" on="0"/>
        <pt x="376" y="794" on="0"/>
        <pt x="353" y="804" on="0"/>
        <pt x="345" y="813" on="1"/>
        <pt x="274" y="890" on="1"/>
        <pt x="261" y="903" on="0"/>
        <pt x="264" y="908" on="1"/>
        <pt x="264" y="923" on="0"/>
        <pt x="298" y="923" on="0"/>
        <pt x="310" y="905" on="1"/>
      </contour>
    </TTGlyph>
    <TTGlyph name="V" xMin="59" yMin="0" xMax="649" yMax="698">
      <contour>
        <pt x="354" y="0" on="1"/>
        <pt x="351" y="0" on="1"/>
        <pt x="349" y="1" on="1"/>
        <pt x="346" y="1" on="0"/>
        <pt x="342" y="8" on="1"/>
        <pt x="59" y="681" on="1"/>
        <pt x="55" y="688" on="0"/>
        <pt x="64" y="698" on="0"/>
        <pt x="79" y="697" on="0"/>
        <pt x="83" y="691" on="1"/>
        <pt x="354" y="46" on="1"/>
        <pt x="626" y="691" on="1"/>
        <pt x="630" y="703" on="0"/>
        <pt x="642" y="697" on="1"/>
        <pt x="653" y="694" on="0"/>
        <pt x="649" y="681" on="1"/>
        <pt x="366" y="8" on="1"/>
        <pt x="365" y="7" on="1"/>
        <pt x="364" y="2" on="0"/>
        <pt x="359" y="1" on="1"/>
        <pt x="358" y="1" on="1"/>
        <pt x="357" y="0" on="0"/>
      </contour>
    </TTGlyph>
    <TTGlyph name="W" xMin="64" yMin="0" xMax="1072" yMax="698">
      <contour>
        <pt x="764" y="9" on="1"/>
        <pt x="568" y="478" on="1"/>
        <pt x="370" y="8" on="1"/>
        <pt x="367" y="0" on="0"/>
        <pt x="351" y="0" on="0"/>
        <pt x="347" y="8" on="1"/>
        <pt x="64" y="681" on="1"/>
        <pt x="57" y="692" on="0"/>
        <pt x="70" y="697" on="1"/>
        <pt x="82" y="700" on="0"/>
        <pt x="87" y="691" on="1"/>
        <pt x="358" y="45" on="1"/>
        <pt x="554" y="510" on="1"/>
        <pt x="557" y="519" on="0"/>
        <pt x="567" y="519" on="1"/>
        <pt x="576" y="521" on="0"/>
        <pt x="581" y="510" on="1"/>
        <pt x="776" y="45" on="1"/>
        <pt x="1048" y="691" on="1"/>
        <pt x="1052" y="697" on="0"/>
        <pt x="1067" y="698" on="0"/>
        <pt x="1076" y="688" on="0"/>
        <pt x="1072" y="681" on="1"/>
        <pt x="789" y="8" on="1"/>
        <pt x="785" y="0" on="0"/>
        <pt x="768" y="0" on="0"/>
      </contour>
    </TTGlyph>
    <TTGlyph name="X" xMin="75" yMin="0" xMax="589" yMax="699">
      <contour>
        <pt x="97" y="5" on="1"/>
        <pt x="89" y="0" on="0"/>
        <pt x="79" y="0" on="0"/>
        <pt x="72" y="14" on="0"/>
        <pt x="77" y="20" on="1"/>
        <pt x="317" y="349" on="1"/>
        <pt x="77" y="679" on="1"/>
        <pt x="72" y="685" on="0"/>
        <pt x="79" y="698" on="0"/>
        <pt x="92" y="699" on="0"/>
        <pt x="97" y="694" on="1"/>
        <pt x="332" y="371" on="1"/>
        <pt x="568" y="694" on="1"/>
        <pt x="575" y="703" on="0"/>
        <pt x="595" y="689" on="0"/>
        <pt x="589" y="679" on="1"/>
        <pt x="348" y="349" on="1"/>
        <pt x="589" y="20" on="1"/>
        <pt x="592" y="14" on="0"/>
        <pt x="585" y="0" on="0"/>
        <pt x="576" y="0" on="0"/>
        <pt x="568" y="5" on="1"/>
        <pt x="332" y="328" on="1"/>
      </contour>
    </TTGlyph>
    <TTGlyph name="Y" xMin="59" yMin="0" xMax="577" yMax="698">
      <contour>
        <pt x="304" y="13" on="1"/>
        <pt x="304" y="342" on="1"/>
        <pt x="59" y="679" on="1"/>
        <pt x="49" y="689" on="0"/>
        <pt x="73" y="702" on="0"/>
        <pt x="79" y="694" on="1"/>
        <pt x="317" y="367" on="1"/>
        <pt x="554" y="694" on="1"/>
        <pt x="559" y="699" on="0"/>
        <pt x="574" y="696" on="0"/>
        <pt x="580" y="685" on="0"/>
        <pt x="576" y="679" on="1"/>
        <pt x="329" y="342" on="1"/>
        <pt x="329" y="13" on="1"/>
        <pt x="329" y="0" on="0"/>
        <pt x="304" y="0" on="0"/>
      </contour>
    </TTGlyph>
    <TTGlyph name="Yacute" xMin="59" yMin="0" xMax="577" yMax="923">
      <contour>
        <pt x="304" y="13" on="1"/>
        <pt x="304" y="342" on="1"/>
        <pt x="59" y="679" on="1"/>
        <pt x="49" y="689" on="0"/>
        <pt x="73" y="702" on="0"/>
        <pt x="79" y="694" on="1"/>
        <pt x="317" y="367" on="1"/>
        <pt x="554" y="694" on="1"/>
        <pt x="559" y="699" on="0"/>
        <pt x="574" y="696" on="0"/>
        <pt x="580" y="685" on="0"/>
        <pt x="576" y="679" on="1"/>
        <pt x="329" y="342" on="1"/>
        <pt x="329" y="13" on="1"/>
        <pt x="329" y="0" on="0"/>
        <pt x="304" y="0" on="0"/>
      </contour>
      <contour>
        <pt x="313" y="813" on="1"/>
        <pt x="305" y="804" on="0"/>
        <pt x="282" y="794" on="0"/>
        <pt x="282" y="806" on="0"/>
        <pt x="286" y="812" on="1"/>
        <pt x="348" y="905" on="1"/>
        <pt x="360" y="923" on="0"/>
        <pt x="385" y="923" on="0"/>
        <pt x="388" y="920" on="1"/>
        <pt x="394" y="917" on="0"/>
        <pt x="394" y="908" on="1"/>
        <pt x="397" y="903" on="0"/>
        <pt x="384" y="890" on="1"/>
      </contour>
    </TTGlyph>
    <TTGlyph name="Ydieresis" xMin="59" yMin="0" xMax="577" yMax="811">
      <contour>
        <pt x="196" y="763" on="0"/>
        <pt x="196" y="791" on="0"/>
        <pt x="216" y="811" on="0"/>
        <pt x="244" y="811" on="0"/>
        <pt x="264" y="791" on="0"/>
        <pt x="264" y="763" on="0"/>
        <pt x="244" y="743" on="0"/>
        <pt x="216" y="743" on="0"/>
      </contour>
      <contour>
        <pt x="377" y="763" on="0"/>
        <pt x="377" y="791" on="0"/>
        <pt x="397" y="811" on="0"/>
        <pt x="425" y="811" on="0"/>
        <pt x="445" y="791" on="0"/>
        <pt x="445" y="763" on="0"/>
        <pt x="425" y="743" on="0"/>
        <pt x="397" y="743" on="0"/>
      </contour>
      <contour>
        <pt x="304" y="13" on="1"/>
        <pt x="304" y="0" on="0"/>
        <pt x="329" y="0" on="0"/>
        <pt x="329" y="13" on="1"/>
        <pt x="329" y="342" on="1"/>
        <pt x="576" y="679" on="1"/>
        <pt x="580" y="684" on="0"/>
        <pt x="573" y="697" on="0"/>
        <pt x="560" y="699" on="0"/>
        <pt x="554" y="694" on="1"/>
        <pt x="317" y="367" on="1"/>
        <pt x="79" y="694" on="1"/>
        <pt x="71" y="704" on="0"/>
        <pt x="52" y="686" on="0"/>
        <pt x="59" y="679" on="1"/>
        <pt x="304" y="342" on="1"/>
      </contour>
    </TTGlyph>
    <TTGlyph name="Z" xMin="71" yMin="0" xMax="588" yMax="699">
      <contour>
        <pt x="588" y="686" on="1"/>
        <pt x="588" y="681" on="0"/>
        <pt x="583" y="676" on="1"/>
        <pt x="108" y="25" on="1"/>
        <pt x="575" y="25" on="1"/>
        <pt x="588" y="25" on="0"/>
        <pt x="588" y="0" on="0"/>
        <pt x="575" y="0" on="1"/>
        <pt x="84" y="0" on="1"/>
        <pt x="71" y="0" on="0"/>
        <pt x="71" y="13" on="1"/>
        <pt x="71" y="20" on="0"/>
        <pt x="76" y="23" on="1"/>
        <pt x="549" y="673" on="1"/>
        <pt x="84" y="673" on="1"/>
        <pt x="71" y="673" on="0"/>
        <pt x="71" y="699" on="0"/>
        <pt x="84" y="699" on="1"/>
        <pt x="575" y="699" on="1"/>
        <pt x="588" y="699" on="0"/>
      </contour>
    </TTGlyph>
    <TTGlyph name="a" xMin="40" yMin="0" xMax="502" yMax="490">
      <contour>
        <pt x="477" y="477" on="1"/>
        <pt x="477" y="490" on="0"/>
        <pt x="502" y="490" on="0"/>
        <pt x="502" y="477" on="1"/>
        <pt x="502" y="13" on="1"/>
        <pt x="502" y="0" on="0"/>
        <pt x="477" y="0" on="0"/>
        <pt x="477" y="13" on="1"/>
        <pt x="477" y="135" on="1"/>
        <pt x="448" y="74" on="0"/>
        <pt x="337" y="0" on="0"/>
        <pt x="271" y="0" on="1"/>
        <pt x="175" y="0" on="0"/>
        <pt x="40" y="144" on="0"/>
        <pt x="40" y="346" on="0"/>
        <pt x="175" y="490" on="0"/>
        <pt x="271" y="490" on="1"/>
        <pt x="337" y="490" on="0"/>
        <pt x="448" y="416" on="0"/>
        <pt x="477" y="355" on="1"/>
      </contour>
      <contour>
        <pt x="186" y="25" on="0"/>
        <pt x="356" y="25" on="0"/>
        <pt x="477" y="154" on="0"/>
        <pt x="477" y="336" on="0"/>
        <pt x="356" y="464" on="0"/>
        <pt x="186" y="464" on="0"/>
        <pt x="65" y="336" on="0"/>
        <pt x="65" y="154" on="0"/>
      </contour>
    </TTGlyph>
    <TTGlyph name="aacute" xMin="63" yMin="0" xMax="525" yMax="698">
      <contour>
        <pt x="500" y="477" on="1"/>
        <pt x="500" y="490" on="0"/>
        <pt x="525" y="490" on="0"/>
        <pt x="525" y="477" on="1"/>
        <pt x="525" y="13" on="1"/>
        <pt x="525" y="0" on="0"/>
        <pt x="500" y="0" on="0"/>
        <pt x="500" y="13" on="1"/>
        <pt x="500" y="135" on="1"/>
        <pt x="471" y="74" on="0"/>
        <pt x="360" y="0" on="0"/>
        <pt x="294" y="0" on="1"/>
        <pt x="198" y="0" on="0"/>
        <pt x="63" y="144" on="0"/>
        <pt x="63" y="346" on="0"/>
        <pt x="198" y="490" on="0"/>
        <pt x="294" y="490" on="1"/>
        <pt x="360" y="490" on="0"/>
        <pt x="471" y="416" on="0"/>
        <pt x="500" y="355" on="1"/>
      </contour>
      <contour>
        <pt x="209" y="25" on="0"/>
        <pt x="379" y="25" on="0"/>
        <pt x="500" y="154" on="0"/>
        <pt x="500" y="336" on="0"/>
        <pt x="379" y="464" on="0"/>
        <pt x="209" y="464" on="0"/>
        <pt x="88" y="336" on="0"/>
        <pt x="88" y="154" on="0"/>
      </contour>
      <contour>
        <pt x="269" y="588" on="1"/>
        <pt x="261" y="579" on="0"/>
        <pt x="238" y="570" on="0"/>
        <pt x="238" y="581" on="0"/>
        <pt x="242" y="587" on="1"/>
        <pt x="304" y="680" on="1"/>
        <pt x="316" y="698" on="0"/>
        <pt x="341" y="698" on="0"/>
        <pt x="344" y="696" on="1"/>
        <pt x="350" y="692" on="0"/>
        <pt x="350" y="683" on="1"/>
        <pt x="353" y="678" on="0"/>
        <pt x="340" y="665" on="1"/>
      </contour>
    </TTGlyph>
    <TTGlyph name="acircumflex" xMin="63" yMin="0" xMax="525" yMax="693">
      <contour>
        <pt x="500" y="477" on="1"/>
        <pt x="500" y="490" on="0"/>
        <pt x="525" y="490" on="0"/>
        <pt x="525" y="477" on="1"/>
        <pt x="525" y="13" on="1"/>
        <pt x="525" y="0" on="0"/>
        <pt x="500" y="0" on="0"/>
        <pt x="500" y="13" on="1"/>
        <pt x="500" y="135" on="1"/>
        <pt x="471" y="74" on="0"/>
        <pt x="360" y="0" on="0"/>
        <pt x="294" y="0" on="1"/>
        <pt x="198" y="0" on="0"/>
        <pt x="63" y="144" on="0"/>
        <pt x="63" y="346" on="0"/>
        <pt x="198" y="490" on="0"/>
        <pt x="294" y="490" on="1"/>
        <pt x="360" y="490" on="0"/>
        <pt x="471" y="416" on="0"/>
        <pt x="500" y="355" on="1"/>
      </contour>
      <contour>
        <pt x="209" y="25" on="0"/>
        <pt x="379" y="25" on="0"/>
        <pt x="500" y="154" on="0"/>
        <pt x="500" y="336" on="0"/>
        <pt x="379" y="464" on="0"/>
        <pt x="209" y="464" on="0"/>
        <pt x="88" y="336" on="0"/>
        <pt x="88" y="154" on="0"/>
      </contour>
      <contour>
        <pt x="321" y="667" on="1"/>
        <pt x="252" y="591" on="1"/>
        <pt x="234" y="573" on="0"/>
        <pt x="227" y="573" on="1"/>
        <pt x="213" y="575" on="0"/>
        <pt x="213" y="575" on="1"/>
        <pt x="213" y="581" on="0"/>
        <pt x="218" y="587" on="1"/>
        <pt x="290" y="675" on="1"/>
        <pt x="305" y="693" on="0"/>
        <pt x="318" y="693" on="1"/>
        <pt x="326" y="693" on="1"/>
        <pt x="339" y="693" on="0"/>
        <pt x="354" y="675" on="1"/>
        <pt x="426" y="587" on="1"/>
        <pt x="431" y="581" on="0"/>
        <pt x="431" y="575" on="1"/>
        <pt x="431" y="571" on="0"/>
        <pt x="421" y="573" on="0"/>
        <pt x="410" y="573" on="0"/>
        <pt x="391" y="592" on="1"/>
      </contour>
    </TTGlyph>
    <TTGlyph name="acute" xMin="201" yMin="599" xMax="313" yMax="723">
      <contour>
        <pt x="232" y="613" on="1"/>
        <pt x="224" y="604" on="0"/>
        <pt x="201" y="594" on="0"/>
        <pt x="201" y="606" on="0"/>
        <pt x="205" y="612" on="1"/>
        <pt x="267" y="705" on="1"/>
        <pt x="279" y="723" on="0"/>
        <pt x="304" y="723" on="0"/>
        <pt x="308" y="720" on="1"/>
        <pt x="313" y="717" on="0"/>
        <pt x="313" y="708" on="1"/>
        <pt x="316" y="703" on="0"/>
        <pt x="303" y="690" on="1"/>
      </contour>
    </TTGlyph>
    <TTGlyph name="adieresis" xMin="63" yMin="0" xMax="525" yMax="647">
      <contour>
        <pt x="500" y="477" on="1"/>
        <pt x="500" y="490" on="0"/>
        <pt x="525" y="490" on="0"/>
        <pt x="525" y="477" on="1"/>
        <pt x="525" y="13" on="1"/>
        <pt x="525" y="0" on="0"/>
        <pt x="500" y="0" on="0"/>
        <pt x="500" y="13" on="1"/>
        <pt x="500" y="135" on="1"/>
        <pt x="471" y="74" on="0"/>
        <pt x="360" y="0" on="0"/>
        <pt x="294" y="0" on="1"/>
        <pt x="198" y="0" on="0"/>
        <pt x="63" y="144" on="0"/>
        <pt x="63" y="346" on="0"/>
        <pt x="198" y="490" on="0"/>
        <pt x="294" y="490" on="1"/>
        <pt x="360" y="490" on="0"/>
        <pt x="471" y="416" on="0"/>
        <pt x="500" y="355" on="1"/>
      </contour>
      <contour>
        <pt x="209" y="25" on="0"/>
        <pt x="379" y="25" on="0"/>
        <pt x="500" y="154" on="0"/>
        <pt x="500" y="336" on="0"/>
        <pt x="379" y="464" on="0"/>
        <pt x="209" y="464" on="0"/>
        <pt x="88" y="336" on="0"/>
        <pt x="88" y="154" on="0"/>
      </contour>
      <contour>
        <pt x="169" y="599" on="0"/>
        <pt x="169" y="627" on="0"/>
        <pt x="189" y="647" on="0"/>
        <pt x="217" y="647" on="0"/>
        <pt x="236" y="627" on="0"/>
        <pt x="236" y="599" on="0"/>
        <pt x="217" y="579" on="0"/>
        <pt x="189" y="579" on="0"/>
      </contour>
      <contour>
        <pt x="351" y="599" on="0"/>
        <pt x="351" y="627" on="0"/>
        <pt x="371" y="647" on="0"/>
        <pt x="399" y="647" on="0"/>
        <pt x="419" y="627" on="0"/>
        <pt x="419" y="599" on="0"/>
        <pt x="399" y="579" on="0"/>
        <pt x="371" y="579" on="0"/>
      </contour>
    </TTGlyph>
    <TTGlyph name="ae" xMin="51" yMin="0" xMax="967" yMax="491">
      <contour>
        <pt x="967" y="263" on="1"/>
        <pt x="967" y="259" on="1"/>
        <pt x="965" y="247" on="0"/>
        <pt x="955" y="247" on="1"/>
        <pt x="520" y="247" on="1"/>
        <pt x="520" y="244" on="1"/>
        <pt x="520" y="155" on="0"/>
        <pt x="644" y="26" on="0"/>
        <pt x="732" y="25" on="1"/>
        <pt x="787" y="25" on="0"/>
        <pt x="880" y="79" on="0"/>
        <pt x="908" y="125" on="1"/>
        <pt x="914" y="137" on="0"/>
        <pt x="928" y="126" on="1"/>
        <pt x="935" y="119" on="0"/>
        <pt x="929" y="111" on="1"/>
        <pt x="897" y="61" on="0"/>
        <pt x="792" y="0" on="0"/>
        <pt x="660" y="1" on="0"/>
        <pt x="542" y="85" on="0"/>
        <pt x="514" y="151" on="1"/>
        <pt x="514" y="13" on="1"/>
        <pt x="514" y="0" on="0"/>
        <pt x="489" y="0" on="0"/>
        <pt x="489" y="13" on="1"/>
        <pt x="489" y="135" on="1"/>
        <pt x="460" y="74" on="0"/>
        <pt x="349" y="0" on="0"/>
        <pt x="282" y="0" on="1"/>
        <pt x="186" y="0" on="0"/>
        <pt x="51" y="144" on="0"/>
        <pt x="51" y="346" on="0"/>
        <pt x="186" y="491" on="0"/>
        <pt x="282" y="491" on="1"/>
        <pt x="349" y="491" on="0"/>
        <pt x="460" y="417" on="0"/>
        <pt x="489" y="356" on="1"/>
        <pt x="489" y="478" on="1"/>
        <pt x="489" y="491" on="0"/>
        <pt x="514" y="491" on="0"/>
        <pt x="514" y="478" on="1"/>
        <pt x="514" y="338" on="1"/>
        <pt x="541" y="406" on="0"/>
        <pt x="659" y="489" on="0"/>
        <pt x="732" y="489" on="1"/>
        <pt x="825" y="489" on="0"/>
        <pt x="960" y="359" on="0"/>
      </contour>
      <contour>
        <pt x="76" y="154" on="0"/>
        <pt x="197" y="25" on="0"/>
        <pt x="368" y="25" on="0"/>
        <pt x="489" y="154" on="0"/>
        <pt x="489" y="336" on="0"/>
        <pt x="368" y="465" on="0"/>
        <pt x="197" y="465" on="0"/>
        <pt x="76" y="336" on="0"/>
      </contour>
      <contour>
        <pt x="521" y="271" on="1"/>
        <pt x="942" y="271" on="1"/>
        <pt x="932" y="353" on="0"/>
        <pt x="812" y="463" on="0"/>
        <pt x="651" y="463" on="0"/>
        <pt x="531" y="353" on="0"/>
      </contour>
    </TTGlyph>
    <TTGlyph name="agrave" xMin="63" yMin="0" xMax="525" yMax="698">
      <contour>
        <pt x="500" y="477" on="1"/>
        <pt x="500" y="490" on="0"/>
        <pt x="525" y="490" on="0"/>
        <pt x="525" y="477" on="1"/>
        <pt x="525" y="13" on="1"/>
        <pt x="525" y="0" on="0"/>
        <pt x="500" y="0" on="0"/>
        <pt x="500" y="13" on="1"/>
        <pt x="500" y="135" on="1"/>
        <pt x="471" y="74" on="0"/>
        <pt x="360" y="0" on="0"/>
        <pt x="294" y="0" on="1"/>
        <pt x="198" y="0" on="0"/>
        <pt x="63" y="144" on="0"/>
        <pt x="63" y="346" on="0"/>
        <pt x="198" y="490" on="0"/>
        <pt x="294" y="490" on="1"/>
        <pt x="360" y="490" on="0"/>
        <pt x="471" y="416" on="0"/>
        <pt x="500" y="355" on="1"/>
      </contour>
      <contour>
        <pt x="209" y="25" on="0"/>
        <pt x="379" y="25" on="0"/>
        <pt x="500" y="154" on="0"/>
        <pt x="500" y="336" on="0"/>
        <pt x="379" y="464" on="0"/>
        <pt x="209" y="464" on="0"/>
        <pt x="88" y="336" on="0"/>
        <pt x="88" y="154" on="0"/>
      </contour>
      <contour>
        <pt x="348" y="587" on="1"/>
        <pt x="352" y="581" on="0"/>
        <pt x="352" y="570" on="0"/>
        <pt x="329" y="579" on="0"/>
        <pt x="321" y="588" on="1"/>
        <pt x="250" y="665" on="1"/>
        <pt x="237" y="678" on="0"/>
        <pt x="240" y="683" on="1"/>
        <pt x="240" y="698" on="0"/>
        <pt x="274" y="698" on="0"/>
        <pt x="286" y="680" on="1"/>
      </contour>
    </TTGlyph>
    <TTGlyph name="ampersand" xMin="49" yMin="0" xMax="555" yMax="700">
      <contour>
        <pt x="266" y="142" on="1"/>
        <pt x="249" y="142" on="0"/>
        <pt x="249" y="184" on="1"/>
        <pt x="249" y="245" on="0"/>
        <pt x="343" y="307" on="0"/>
        <pt x="424" y="307" on="1"/>
        <pt x="447" y="307" on="0"/>
        <pt x="460" y="306" on="1"/>
        <pt x="466" y="306" on="1"/>
        <pt x="530" y="306" on="0"/>
        <pt x="535" y="368" on="1"/>
        <pt x="535" y="375" on="0"/>
        <pt x="531" y="397" on="1"/>
        <pt x="526" y="408" on="0"/>
        <pt x="553" y="415" on="0"/>
        <pt x="555" y="402" on="1"/>
        <pt x="570" y="346" on="0"/>
        <pt x="540" y="310" on="1"/>
        <pt x="521" y="287" on="0"/>
        <pt x="491" y="282" on="1"/>
        <pt x="498" y="255" on="0"/>
        <pt x="498" y="224" on="1"/>
        <pt x="498" y="131" on="0"/>
        <pt x="367" y="0" on="0"/>
        <pt x="180" y="0" on="0"/>
        <pt x="49" y="131" on="0"/>
        <pt x="49" y="224" on="1"/>
        <pt x="49" y="285" on="0"/>
        <pt x="109" y="388" on="0"/>
        <pt x="159" y="418" on="1"/>
        <pt x="107" y="467" on="0"/>
        <pt x="107" y="605" on="0"/>
        <pt x="202" y="700" on="0"/>
        <pt x="336" y="700" on="0"/>
        <pt x="431" y="605" on="0"/>
        <pt x="431" y="538" on="1"/>
        <pt x="431" y="525" on="0"/>
        <pt x="418" y="525" on="1"/>
        <pt x="413" y="525" on="0"/>
        <pt x="405" y="533" on="0"/>
        <pt x="405" y="538" on="1"/>
        <pt x="405" y="595" on="0"/>
        <pt x="325" y="675" on="0"/>
        <pt x="212" y="675" on="0"/>
        <pt x="133" y="595" on="0"/>
        <pt x="133" y="538" on="1"/>
        <pt x="133" y="466" on="0"/>
        <pt x="190" y="426" on="1"/>
        <pt x="194" y="421" on="1"/>
        <pt x="196" y="415" on="0"/>
        <pt x="189" y="403" on="0"/>
        <pt x="183" y="403" on="1"/>
        <pt x="134" y="377" on="0"/>
        <pt x="74" y="281" on="0"/>
        <pt x="74" y="224" on="1"/>
        <pt x="74" y="142" on="0"/>
        <pt x="190" y="25" on="0"/>
        <pt x="356" y="25" on="0"/>
        <pt x="473" y="141" on="0"/>
        <pt x="473" y="224" on="1"/>
        <pt x="473" y="251" on="0"/>
        <pt x="465" y="280" on="1"/>
        <pt x="459" y="280" on="1"/>
        <pt x="446" y="282" on="0"/>
        <pt x="424" y="282" on="1"/>
        <pt x="337" y="282" on="0"/>
        <pt x="299" y="246" on="1"/>
        <pt x="275" y="222" on="0"/>
        <pt x="275" y="184" on="1"/>
        <pt x="276" y="165" on="1"/>
        <pt x="277" y="159" on="1"/>
        <pt x="281" y="148" on="0"/>
        <pt x="270" y="142" on="1"/>
      </contour>
    </TTGlyph>
    <TTGlyph name="aring" xMin="51" yMin="0" xMax="513" yMax="729">
      <contour>
        <pt x="364" y="617" on="0"/>
        <pt x="318" y="570" on="0"/>
        <pt x="249" y="570" on="0"/>
        <pt x="202" y="617" on="0"/>
        <pt x="202" y="650" on="1"/>
        <pt x="202" y="651" on="1"/>
        <pt x="202" y="686" on="0"/>
        <pt x="250" y="729" on="0"/>
        <pt x="316" y="729" on="0"/>
        <pt x="364" y="684" on="0"/>
        <pt x="364" y="651" on="1"/>
        <pt x="364" y="650" on="1"/>
      </contour>
      <contour>
        <pt x="259" y="592" on="0"/>
        <pt x="307" y="592" on="0"/>
        <pt x="340" y="627" on="0"/>
        <pt x="340" y="649" on="1"/>
        <pt x="340" y="650" on="1"/>
        <pt x="340" y="672" on="0"/>
        <pt x="307" y="707" on="0"/>
        <pt x="259" y="707" on="0"/>
        <pt x="226" y="672" on="0"/>
        <pt x="226" y="650" on="1"/>
        <pt x="226" y="649" on="1"/>
        <pt x="226" y="627" on="0"/>
      </contour>
      <contour>
        <pt x="488" y="477" on="1"/>
        <pt x="488" y="490" on="0"/>
        <pt x="513" y="490" on="0"/>
        <pt x="513" y="477" on="1"/>
        <pt x="513" y="13" on="1"/>
        <pt x="513" y="0" on="0"/>
        <pt x="488" y="0" on="0"/>
        <pt x="488" y="13" on="1"/>
        <pt x="488" y="135" on="1"/>
        <pt x="459" y="74" on="0"/>
        <pt x="348" y="0" on="0"/>
        <pt x="282" y="0" on="1"/>
        <pt x="186" y="0" on="0"/>
        <pt x="51" y="144" on="0"/>
        <pt x="51" y="346" on="0"/>
        <pt x="186" y="490" on="0"/>
        <pt x="282" y="490" on="1"/>
        <pt x="348" y="490" on="0"/>
        <pt x="459" y="416" on="0"/>
        <pt x="488" y="355" on="1"/>
      </contour>
      <contour>
        <pt x="197" y="25" on="0"/>
        <pt x="367" y="25" on="0"/>
        <pt x="488" y="154" on="0"/>
        <pt x="488" y="336" on="0"/>
        <pt x="367" y="464" on="0"/>
        <pt x="197" y="464" on="0"/>
        <pt x="76" y="336" on="0"/>
        <pt x="76" y="154" on="0"/>
      </contour>
    </TTGlyph>
    <TTGlyph name="asciicircum" xMin="83" yMin="170" xMax="497" yMax="349">
      <contour>
        <pt x="93" y="173" on="1"/>
        <pt x="85" y="174" on="0"/>
        <pt x="81" y="198" on="0"/>
        <pt x="87" y="202" on="1"/>
        <pt x="266" y="339" on="1"/>
        <pt x="279" y="349" on="0"/>
        <pt x="297" y="349" on="0"/>
        <pt x="310" y="339" on="1"/>
        <pt x="488" y="202" on="1"/>
        <pt x="497" y="196" on="0"/>
        <pt x="497" y="173" on="0"/>
        <pt x="492" y="170" on="1"/>
        <pt x="481" y="166" on="0"/>
        <pt x="467" y="177" on="1"/>
        <pt x="289" y="318" on="1"/>
        <pt x="109" y="177" on="1"/>
        <pt x="103" y="172" on="0"/>
      </contour>
    </TTGlyph>
    <TTGlyph name="asciitilde" xMin="85" yMin="241" xMax="374" yMax="350">
      <contour>
        <pt x="117" y="253" on="1"/>
        <pt x="111" y="241" on="0"/>
        <pt x="101" y="241" on="1"/>
        <pt x="85" y="241" on="0"/>
        <pt x="85" y="254" on="1"/>
        <pt x="85" y="256" on="0"/>
        <pt x="96" y="291" on="0"/>
        <pt x="144" y="328" on="0"/>
        <pt x="184" y="328" on="0"/>
        <pt x="276" y="290" on="0"/>
        <pt x="293" y="290" on="1"/>
        <pt x="324" y="290" on="0"/>
        <pt x="343" y="333" on="1"/>
        <pt x="343" y="341" on="0"/>
        <pt x="352" y="350" on="0"/>
        <pt x="356" y="350" on="1"/>
        <pt x="374" y="350" on="0"/>
        <pt x="374" y="333" on="1"/>
        <pt x="374" y="327" on="0"/>
        <pt x="372" y="321" on="1"/>
        <pt x="350" y="253" on="0"/>
        <pt x="293" y="253" on="1"/>
        <pt x="275" y="253" on="0"/>
        <pt x="183" y="292" on="0"/>
        <pt x="165" y="292" on="1"/>
        <pt x="134" y="292" on="0"/>
      </contour>
    </TTGlyph>
    <TTGlyph name="asterisk" xMin="76" yMin="402" xMax="354" yMax="706">
      <contour>
        <pt x="195" y="424" on="1"/>
        <pt x="203" y="533" on="1"/>
        <pt x="112" y="471" on="1"/>
        <pt x="103" y="465" on="0"/>
        <pt x="88" y="465" on="0"/>
        <pt x="76" y="478" on="0"/>
        <pt x="76" y="499" on="0"/>
        <pt x="90" y="505" on="1"/>
        <pt x="193" y="554" on="1"/>
        <pt x="90" y="603" on="1"/>
        <pt x="76" y="610" on="0"/>
        <pt x="76" y="622" on="1"/>
        <pt x="76" y="641" on="0"/>
        <pt x="96" y="643" on="1"/>
        <pt x="103" y="643" on="0"/>
        <pt x="112" y="637" on="1"/>
        <pt x="203" y="575" on="1"/>
        <pt x="195" y="684" on="1"/>
        <pt x="194" y="693" on="0"/>
        <pt x="206" y="706" on="0"/>
        <pt x="224" y="706" on="0"/>
        <pt x="236" y="693" on="0"/>
        <pt x="235" y="684" on="1"/>
        <pt x="227" y="575" on="1"/>
        <pt x="318" y="637" on="1"/>
        <pt x="327" y="643" on="0"/>
        <pt x="342" y="643" on="0"/>
        <pt x="354" y="630" on="0"/>
        <pt x="354" y="609" on="0"/>
        <pt x="340" y="603" on="1"/>
        <pt x="237" y="554" on="1"/>
        <pt x="340" y="505" on="1"/>
        <pt x="354" y="499" on="0"/>
        <pt x="354" y="478" on="0"/>
        <pt x="342" y="465" on="0"/>
        <pt x="327" y="465" on="0"/>
        <pt x="318" y="471" on="1"/>
        <pt x="227" y="533" on="1"/>
        <pt x="235" y="424" on="1"/>
        <pt x="236" y="415" on="0"/>
        <pt x="224" y="402" on="0"/>
        <pt x="206" y="402" on="0"/>
        <pt x="194" y="415" on="0"/>
      </contour>
    </TTGlyph>
    <TTGlyph name="at" xMin="53" yMin="0" xMax="754" yMax="701">
      <contour>
        <pt x="630" y="118" on="1"/>
        <pt x="611" y="117" on="1"/>
        <pt x="585" y="117" on="0"/>
        <pt x="550" y="155" on="0"/>
        <pt x="550" y="181" on="1"/>
        <pt x="550" y="257" on="1"/>
        <pt x="527" y="216" on="0"/>
        <pt x="449" y="168" on="0"/>
        <pt x="403" y="168" on="1"/>
        <pt x="333" y="168" on="0"/>
        <pt x="231" y="276" on="0"/>
        <pt x="231" y="425" on="0"/>
        <pt x="332" y="531" on="0"/>
        <pt x="474" y="531" on="0"/>
        <pt x="574" y="425" on="0"/>
        <pt x="574" y="350" on="1"/>
        <pt x="574" y="184" on="1"/>
        <pt x="574" y="168" on="0"/>
        <pt x="595" y="143" on="0"/>
        <pt x="620" y="143" on="0"/>
        <pt x="624" y="146" on="1"/>
        <pt x="658" y="152" on="0"/>
        <pt x="688" y="194" on="1"/>
        <pt x="693" y="203" on="1"/>
        <pt x="728" y="271" on="0"/>
        <pt x="728" y="350" on="1"/>
        <pt x="728" y="485" on="0"/>
        <pt x="538" y="675" on="0"/>
        <pt x="269" y="675" on="0"/>
        <pt x="79" y="485" on="0"/>
        <pt x="79" y="216" on="0"/>
        <pt x="269" y="26" on="0"/>
        <pt x="403" y="26" on="1"/>
        <pt x="447" y="26" on="0"/>
        <pt x="483" y="36" on="1"/>
        <pt x="495" y="38" on="0"/>
        <pt x="500" y="27" on="1"/>
        <pt x="502" y="15" on="0"/>
        <pt x="490" y="10" on="1"/>
        <pt x="445" y="0" on="0"/>
        <pt x="403" y="0" on="1"/>
        <pt x="258" y="0" on="0"/>
        <pt x="53" y="205" on="0"/>
        <pt x="53" y="495" on="0"/>
        <pt x="258" y="701" on="0"/>
        <pt x="548" y="701" on="0"/>
        <pt x="754" y="496" on="0"/>
        <pt x="754" y="350" on="1"/>
        <pt x="754" y="265" on="0"/>
        <pt x="715" y="190" on="1"/>
        <pt x="704" y="169" on="0"/>
        <pt x="655" y="125" on="0"/>
      </contour>
      <contour>
        <pt x="343" y="507" on="0"/>
        <pt x="257" y="415" on="0"/>
        <pt x="257" y="286" on="0"/>
        <pt x="343" y="194" on="0"/>
        <pt x="463" y="194" on="0"/>
        <pt x="550" y="286" on="0"/>
        <pt x="550" y="415" on="0"/>
        <pt x="463" y="507" on="0"/>
      </contour>
    </TTGlyph>
    <TTGlyph name="atilde" xMin="63" yMin="0" xMax="525" yMax="679">
      <contour>
        <pt x="500" y="477" on="1"/>
        <pt x="500" y="490" on="0"/>
        <pt x="525" y="490" on="0"/>
        <pt x="525" y="477" on="1"/>
        <pt x="525" y="13" on="1"/>
        <pt x="525" y="0" on="0"/>
        <pt x="500" y="0" on="0"/>
        <pt x="500" y="13" on="1"/>
        <pt x="500" y="135" on="1"/>
        <pt x="471" y="74" on="0"/>
        <pt x="360" y="0" on="0"/>
        <pt x="294" y="0" on="1"/>
        <pt x="198" y="0" on="0"/>
        <pt x="63" y="144" on="0"/>
        <pt x="63" y="346" on="0"/>
        <pt x="198" y="490" on="0"/>
        <pt x="294" y="490" on="1"/>
        <pt x="360" y="490" on="0"/>
        <pt x="471" y="416" on="0"/>
        <pt x="500" y="355" on="1"/>
      </contour>
      <contour>
        <pt x="209" y="25" on="0"/>
        <pt x="379" y="25" on="0"/>
        <pt x="500" y="154" on="0"/>
        <pt x="500" y="336" on="0"/>
        <pt x="379" y="464" on="0"/>
        <pt x="209" y="464" on="0"/>
        <pt x="88" y="336" on="0"/>
        <pt x="88" y="154" on="0"/>
      </contour>
      <contour>
        <pt x="183" y="582" on="1"/>
        <pt x="177" y="570" on="0"/>
        <pt x="167" y="570" on="1"/>
        <pt x="151" y="570" on="0"/>
        <pt x="151" y="583" on="1"/>
        <pt x="151" y="585" on="0"/>
        <pt x="162" y="620" on="0"/>
        <pt x="210" y="657" on="0"/>
        <pt x="250" y="657" on="0"/>
        <pt x="342" y="619" on="0"/>
        <pt x="359" y="619" on="1"/>
        <pt x="390" y="619" on="0"/>
        <pt x="409" y="662" on="1"/>
        <pt x="409" y="670" on="0"/>
        <pt x="418" y="679" on="0"/>
        <pt x="422" y="679" on="1"/>
        <pt x="440" y="679" on="0"/>
        <pt x="440" y="662" on="1"/>
        <pt x="440" y="656" on="0"/>
        <pt x="438" y="650" on="1"/>
        <pt x="416" y="582" on="0"/>
        <pt x="359" y="582" on="1"/>
        <pt x="341" y="582" on="0"/>
        <pt x="249" y="621" on="0"/>
        <pt x="231" y="621" on="1"/>
        <pt x="200" y="621" on="0"/>
      </contour>
    </TTGlyph>
    <TTGlyph name="b" xMin="93" yMin="0" xMax="567" yMax="700">
      <contour>
        <pt x="93" y="13" on="1"/>
        <pt x="93" y="685" on="1"/>
        <pt x="93" y="700" on="0"/>
        <pt x="106" y="700" on="1"/>
        <pt x="110" y="700" on="0"/>
        <pt x="118" y="690" on="0"/>
        <pt x="118" y="685" on="1"/>
        <pt x="118" y="355" on="1"/>
        <pt x="148" y="416" on="0"/>
        <pt x="261" y="490" on="0"/>
        <pt x="329" y="490" on="1"/>
        <pt x="428" y="490" on="0"/>
        <pt x="567" y="347" on="0"/>
        <pt x="567" y="145" on="0"/>
        <pt x="428" y="0" on="0"/>
        <pt x="329" y="0" on="1"/>
        <pt x="261" y="0" on="0"/>
        <pt x="148" y="74" on="0"/>
        <pt x="118" y="134" on="1"/>
        <pt x="118" y="13" on="1"/>
        <pt x="118" y="8" on="0"/>
        <pt x="111" y="0" on="0"/>
        <pt x="106" y="0" on="1"/>
        <pt x="93" y="0" on="0"/>
      </contour>
      <contour>
        <pt x="118" y="255" on="1"/>
        <pt x="118" y="246" on="1"/>
        <pt x="118" y="155" on="0"/>
        <pt x="242" y="25" on="0"/>
        <pt x="417" y="25" on="0"/>
        <pt x="542" y="155" on="0"/>
        <pt x="542" y="337" on="0"/>
        <pt x="417" y="465" on="0"/>
        <pt x="245" y="465" on="0"/>
        <pt x="121" y="342" on="0"/>
      </contour>
    </TTGlyph>
    <TTGlyph name="backslash" xMin="63" yMin="1" xMax="370" yMax="698">
      <contour>
        <pt x="364" y="2" on="1"/>
        <pt x="363" y="1" on="0"/>
        <pt x="350" y="1" on="0"/>
        <pt x="348" y="9" on="1"/>
        <pt x="63" y="682" on="1"/>
        <pt x="59" y="694" on="0"/>
        <pt x="71" y="698" on="1"/>
        <pt x="75" y="700" on="0"/>
        <pt x="85" y="696" on="0"/>
        <pt x="87" y="691" on="1"/>
        <pt x="370" y="19" on="1"/>
        <pt x="375" y="7" on="0"/>
      </contour>
    </TTGlyph>
    <TTGlyph name="bar" xMin="121" yMin="-132" xMax="150" yMax="802">
      <contour>
        <pt x="121" y="-110" on="1"/>
        <pt x="121" y="780" on="1"/>
        <pt x="121" y="802" on="0"/>
        <pt x="134" y="802" on="1"/>
        <pt x="150" y="802" on="0"/>
        <pt x="150" y="780" on="1"/>
        <pt x="150" y="-110" on="1"/>
        <pt x="150" y="-132" on="0"/>
        <pt x="134" y="-132" on="1"/>
        <pt x="121" y="-132" on="0"/>
      </contour>
    </TTGlyph>
    <TTGlyph name="braceleft" xMin="55" yMin="-139" xMax="427" yMax="713">
      <contour>
        <pt x="406" y="-139" on="1"/>
        <pt x="287" y="-115" on="0"/>
        <pt x="205" y="-22" on="0"/>
        <pt x="205" y="62" on="1"/>
        <pt x="205" y="141" on="1"/>
        <pt x="205" y="205" on="0"/>
        <pt x="152" y="268" on="0"/>
        <pt x="79" y="268" on="1"/>
        <pt x="55" y="268" on="0"/>
        <pt x="55" y="306" on="0"/>
        <pt x="79" y="306" on="1"/>
        <pt x="152" y="306" on="0"/>
        <pt x="205" y="369" on="0"/>
        <pt x="205" y="433" on="1"/>
        <pt x="205" y="512" on="1"/>
        <pt x="205" y="596" on="0"/>
        <pt x="287" y="689" on="0"/>
        <pt x="406" y="713" on="1"/>
        <pt x="427" y="717" on="0"/>
        <pt x="427" y="704" on="1"/>
        <pt x="427" y="695" on="0"/>
        <pt x="415" y="691" on="1"/>
        <pt x="309" y="663" on="0"/>
        <pt x="234" y="583" on="0"/>
        <pt x="234" y="506" on="1"/>
        <pt x="234" y="431" on="1"/>
        <pt x="234" y="368" on="0"/>
        <pt x="181" y="302" on="0"/>
        <pt x="130" y="287" on="1"/>
        <pt x="184" y="269" on="0"/>
        <pt x="234" y="206" on="0"/>
        <pt x="234" y="143" on="1"/>
        <pt x="234" y="68" on="1"/>
        <pt x="234" y="-9" on="0"/>
        <pt x="309" y="-89" on="0"/>
        <pt x="415" y="-117" on="1"/>
        <pt x="427" y="-121" on="0"/>
        <pt x="427" y="-143" on="0"/>
      </contour>
    </TTGlyph>
    <TTGlyph name="braceright" xMin="53" yMin="-139" xMax="425" yMax="713">
      <contour>
        <pt x="74" y="-139" on="1"/>
        <pt x="53" y="-143" on="0"/>
        <pt x="53" y="-121" on="0"/>
        <pt x="65" y="-117" on="1"/>
        <pt x="171" y="-89" on="0"/>
        <pt x="246" y="-9" on="0"/>
        <pt x="246" y="68" on="1"/>
        <pt x="246" y="143" on="1"/>
        <pt x="246" y="206" on="0"/>
        <pt x="296" y="269" on="0"/>
        <pt x="350" y="287" on="1"/>
        <pt x="299" y="302" on="0"/>
        <pt x="246" y="368" on="0"/>
        <pt x="246" y="431" on="1"/>
        <pt x="246" y="506" on="1"/>
        <pt x="246" y="583" on="0"/>
        <pt x="171" y="663" on="0"/>
        <pt x="65" y="691" on="1"/>
        <pt x="53" y="695" on="0"/>
        <pt x="53" y="704" on="1"/>
        <pt x="53" y="717" on="0"/>
        <pt x="74" y="713" on="1"/>
        <pt x="193" y="689" on="0"/>
        <pt x="275" y="596" on="0"/>
        <pt x="275" y="512" on="1"/>
        <pt x="275" y="433" on="1"/>
        <pt x="275" y="369" on="0"/>
        <pt x="328" y="306" on="0"/>
        <pt x="401" y="306" on="1"/>
        <pt x="425" y="306" on="0"/>
        <pt x="425" y="268" on="0"/>
        <pt x="401" y="268" on="1"/>
        <pt x="328" y="268" on="0"/>
        <pt x="275" y="205" on="0"/>
        <pt x="275" y="141" on="1"/>
        <pt x="275" y="62" on="1"/>
        <pt x="275" y="-22" on="0"/>
        <pt x="193" y="-115" on="0"/>
      </contour>
    </TTGlyph>
    <TTGlyph name="bracketleft" xMin="98" yMin="-130" xMax="374" yMax="700">
      <contour>
        <pt x="98" y="-104" on="1"/>
        <pt x="98" y="674" on="1"/>
        <pt x="98" y="684" on="0"/>
        <pt x="114" y="700" on="0"/>
        <pt x="124" y="700" on="1"/>
        <pt x="356" y="700" on="1"/>
        <pt x="374" y="700" on="0"/>
        <pt x="374" y="686" on="1"/>
        <pt x="374" y="676" on="0"/>
        <pt x="356" y="676" on="1"/>
        <pt x="123" y="676" on="1"/>
        <pt x="123" y="-106" on="1"/>
        <pt x="356" y="-106" on="1"/>
        <pt x="374" y="-106" on="0"/>
        <pt x="374" y="-119" on="1"/>
        <pt x="374" y="-130" on="0"/>
        <pt x="356" y="-130" on="1"/>
        <pt x="124" y="-130" on="1"/>
        <pt x="114" y="-130" on="0"/>
        <pt x="98" y="-114" on="0"/>
      </contour>
    </TTGlyph>
    <TTGlyph name="bracketright" xMin="55" yMin="-130" xMax="331" yMax="700">
      <contour>
        <pt x="331" y="674" on="1"/>
        <pt x="331" y="-104" on="1"/>
        <pt x="331" y="-114" on="0"/>
        <pt x="316" y="-130" on="0"/>
        <pt x="305" y="-130" on="1"/>
        <pt x="73" y="-130" on="1"/>
        <pt x="55" y="-130" on="0"/>
        <pt x="55" y="-119" on="1"/>
        <pt x="55" y="-106" on="0"/>
        <pt x="73" y="-106" on="1"/>
        <pt x="306" y="-106" on="1"/>
        <pt x="306" y="676" on="1"/>
        <pt x="73" y="676" on="1"/>
        <pt x="55" y="676" on="0"/>
        <pt x="55" y="686" on="1"/>
        <pt x="55" y="700" on="0"/>
        <pt x="73" y="700" on="1"/>
        <pt x="305" y="700" on="1"/>
        <pt x="316" y="700" on="0"/>
        <pt x="331" y="684" on="0"/>
      </contour>
    </TTGlyph>
    <TTGlyph name="c" xMin="58" yMin="0" xMax="468" yMax="490">
      <contour>
        <pt x="58" y="144" on="0"/>
        <pt x="58" y="346" on="0"/>
        <pt x="206" y="490" on="0"/>
        <pt x="399" y="490" on="0"/>
        <pt x="466" y="437" on="1"/>
        <pt x="474" y="429" on="0"/>
        <pt x="461" y="410" on="0"/>
        <pt x="450" y="417" on="1"/>
        <pt x="388" y="465" on="0"/>
        <pt x="215" y="465" on="0"/>
        <pt x="83" y="336" on="0"/>
        <pt x="83" y="154" on="0"/>
        <pt x="215" y="25" on="0"/>
        <pt x="310" y="25" on="1"/>
        <pt x="386" y="25" on="0"/>
        <pt x="450" y="74" on="1"/>
        <pt x="459" y="80" on="0"/>
        <pt x="474" y="61" on="0"/>
        <pt x="466" y="53" on="1"/>
        <pt x="397" y="0" on="0"/>
        <pt x="310" y="0" on="1"/>
        <pt x="206" y="1" on="0"/>
      </contour>
    </TTGlyph>
    <TTGlyph name="ccedilla" xMin="58" yMin="-142" xMax="468" yMax="490">
      <contour>
        <pt x="58" y="144" on="0"/>
        <pt x="58" y="346" on="0"/>
        <pt x="206" y="490" on="0"/>
        <pt x="399" y="490" on="0"/>
        <pt x="466" y="437" on="1"/>
        <pt x="474" y="429" on="0"/>
        <pt x="461" y="410" on="0"/>
        <pt x="450" y="417" on="1"/>
        <pt x="388" y="465" on="0"/>
        <pt x="215" y="465" on="0"/>
        <pt x="83" y="336" on="0"/>
        <pt x="83" y="154" on="0"/>
        <pt x="215" y="25" on="0"/>
        <pt x="310" y="25" on="1"/>
        <pt x="386" y="25" on="0"/>
        <pt x="450" y="74" on="1"/>
        <pt x="459" y="80" on="0"/>
        <pt x="474" y="61" on="0"/>
        <pt x="466" y="53" on="1"/>
        <pt x="397" y="0" on="0"/>
        <pt x="310" y="0" on="1"/>
        <pt x="206" y="1" on="0"/>
      </contour>
      <contour>
        <pt x="336" y="10" on="1"/>
        <pt x="271" y="-122" on="1"/>
        <pt x="261" y="-142" on="0"/>
        <pt x="233" y="-142" on="0"/>
        <pt x="211" y="-126" on="0"/>
        <pt x="211" y="-112" on="0"/>
        <pt x="216" y="-103" on="1"/>
        <pt x="293" y="10" on="1"/>
      </contour>
    </TTGlyph>
    <TTGlyph name="cedilla" xMin="170" yMin="-142" xMax="295" yMax="10">
      <contour>
        <pt x="295" y="10" on="1"/>
        <pt x="230" y="-122" on="1"/>
        <pt x="220" y="-142" on="0"/>
        <pt x="192" y="-142" on="0"/>
        <pt x="170" y="-126" on="0"/>
        <pt x="170" y="-112" on="0"/>
        <pt x="175" y="-103" on="1"/>
        <pt x="252" y="10" on="1"/>
      </contour>
    </TTGlyph>
    <TTGlyph name="cent" xMin="62" yMin="-11" xMax="471" yMax="526">
      <contour>
        <pt x="167" y="-3" on="1"/>
        <pt x="167" y="-11" on="0"/>
        <pt x="150" y="-11" on="0"/>
        <pt x="142" y="0" on="0"/>
        <pt x="145" y="6" on="1"/>
        <pt x="166" y="47" on="1"/>
        <pt x="118" y="81" on="0"/>
        <pt x="62" y="185" on="0"/>
        <pt x="62" y="244" on="1"/>
        <pt x="62" y="345" on="0"/>
        <pt x="209" y="489" on="0"/>
        <pt x="313" y="489" on="1"/>
        <pt x="345" y="489" on="0"/>
        <pt x="382" y="479" on="1"/>
        <pt x="402" y="518" on="1"/>
        <pt x="404" y="523" on="0"/>
        <pt x="414" y="527" on="0"/>
        <pt x="423" y="524" on="0"/>
        <pt x="428" y="514" on="0"/>
        <pt x="427" y="510" on="1"/>
        <pt x="407" y="471" on="1"/>
        <pt x="438" y="459" on="0"/>
        <pt x="469" y="436" on="1"/>
        <pt x="477" y="428" on="0"/>
        <pt x="464" y="409" on="0"/>
        <pt x="453" y="416" on="1"/>
        <pt x="424" y="437" on="0"/>
        <pt x="396" y="448" on="1"/>
        <pt x="197" y="56" on="1"/>
        <pt x="250" y="25" on="0"/>
        <pt x="389" y="25" on="0"/>
        <pt x="453" y="74" on="1"/>
        <pt x="462" y="80" on="0"/>
        <pt x="477" y="61" on="0"/>
        <pt x="469" y="53" on="1"/>
        <pt x="400" y="0" on="0"/>
        <pt x="313" y="0" on="1"/>
        <pt x="246" y="0" on="0"/>
        <pt x="186" y="34" on="1"/>
      </contour>
      <contour>
        <pt x="313" y="464" on="1"/>
        <pt x="219" y="464" on="0"/>
        <pt x="87" y="335" on="0"/>
        <pt x="87" y="244" on="1"/>
        <pt x="87" y="191" on="0"/>
        <pt x="135" y="99" on="0"/>
        <pt x="177" y="69" on="1"/>
        <pt x="371" y="456" on="1"/>
        <pt x="341" y="464" on="0"/>
      </contour>
    </TTGlyph>
    <TTGlyph name="circumflex" xMin="141" yMin="599" xMax="359" yMax="720">
      <contour>
        <pt x="249" y="694" on="1"/>
        <pt x="180" y="618" on="1"/>
        <pt x="162" y="600" on="0"/>
        <pt x="155" y="600" on="1"/>
        <pt x="141" y="602" on="0"/>
        <pt x="141" y="602" on="1"/>
        <pt x="141" y="608" on="0"/>
        <pt x="146" y="614" on="1"/>
        <pt x="218" y="702" on="1"/>
        <pt x="233" y="720" on="0"/>
        <pt x="246" y="720" on="1"/>
        <pt x="254" y="720" on="1"/>
        <pt x="267" y="720" on="0"/>
        <pt x="282" y="702" on="1"/>
        <pt x="354" y="614" on="1"/>
        <pt x="359" y="608" on="0"/>
        <pt x="359" y="602" on="1"/>
        <pt x="359" y="598" on="0"/>
        <pt x="349" y="600" on="0"/>
        <pt x="338" y="600" on="0"/>
        <pt x="319" y="619" on="1"/>
      </contour>
    </TTGlyph>
    <TTGlyph name="colon" xMin="87" yMin="-4" xMax="153" yMax="514">
      <contour>
        <pt x="87" y="481" on="1"/>
        <pt x="87" y="495" on="0"/>
        <pt x="106" y="514" on="0"/>
        <pt x="134" y="514" on="0"/>
        <pt x="153" y="495" on="0"/>
        <pt x="153" y="481" on="1"/>
        <pt x="153" y="454" on="1"/>
        <pt x="153" y="440" on="0"/>
        <pt x="134" y="421" on="0"/>
        <pt x="106" y="421" on="0"/>
        <pt x="87" y="440" on="0"/>
        <pt x="87" y="454" on="1"/>
      </contour>
      <contour>
        <pt x="87" y="56" on="1"/>
        <pt x="87" y="70" on="0"/>
        <pt x="106" y="89" on="0"/>
        <pt x="134" y="89" on="0"/>
        <pt x="153" y="70" on="0"/>
        <pt x="153" y="56" on="1"/>
        <pt x="153" y="29" on="1"/>
        <pt x="153" y="15" on="0"/>
        <pt x="134" y="-4" on="0"/>
        <pt x="106" y="-4" on="0"/>
        <pt x="87" y="15" on="0"/>
        <pt x="87" y="29" on="1"/>
      </contour>
    </TTGlyph>
    <TTGlyph name="comma" xMin="54" yMin="-105" xMax="148" yMax="89">
      <contour>
        <pt x="54" y="-90" on="1"/>
        <pt x="54" y="-82" on="0"/>
        <pt x="62" y="-77" on="1"/>
        <pt x="113" y="-49" on="0"/>
        <pt x="109" y="0" on="1"/>
        <pt x="82" y="7" on="0"/>
        <pt x="82" y="35" on="1"/>
        <pt x="82" y="56" on="1"/>
        <pt x="82" y="70" on="0"/>
        <pt x="101" y="89" on="0"/>
        <pt x="129" y="89" on="0"/>
        <pt x="148" y="70" on="0"/>
        <pt x="148" y="56" on="1"/>
        <pt x="148" y="31" on="1"/>
        <pt x="148" y="-46" on="0"/>
        <pt x="89" y="-105" on="0"/>
        <pt x="54" y="-105" on="0"/>
      </contour>
    </TTGlyph>
    <TTGlyph name="copyright" xMin="53" yMin="-12" xMax="777" yMax="712">
      <contour>
        <pt x="565" y="-12" on="0"/>
        <pt x="263" y="-12" on="0"/>
        <pt x="53" y="199" on="0"/>
        <pt x="53" y="348" on="1"/>
        <pt x="53" y="350" on="1"/>
        <pt x="53" y="499" on="0"/>
        <pt x="265" y="712" on="0"/>
        <pt x="567" y="712" on="0"/>
        <pt x="777" y="501" on="0"/>
        <pt x="777" y="352" on="1"/>
        <pt x="777" y="350" on="1"/>
        <pt x="777" y="201" on="0"/>
      </contour>
      <contour>
        <pt x="273" y="16" on="0"/>
        <pt x="555" y="16" on="0"/>
        <pt x="747" y="211" on="0"/>
        <pt x="747" y="350" on="1"/>
        <pt x="747" y="352" on="1"/>
        <pt x="747" y="490" on="0"/>
        <pt x="557" y="684" on="0"/>
        <pt x="275" y="684" on="0"/>
        <pt x="83" y="489" on="0"/>
        <pt x="83" y="350" on="1"/>
        <pt x="83" y="348" on="1"/>
        <pt x="83" y="210" on="0"/>
      </contour>
      <contour>
        <pt x="553" y="220" on="1"/>
        <pt x="491" y="166" on="0"/>
        <pt x="342" y="166" on="0"/>
        <pt x="237" y="276" on="0"/>
        <pt x="237" y="354" on="1"/>
        <pt x="237" y="356" on="1"/>
        <pt x="237" y="433" on="0"/>
        <pt x="343" y="545" on="0"/>
        <pt x="492" y="545" on="0"/>
        <pt x="549" y="495" on="1"/>
        <pt x="558" y="488" on="0"/>
        <pt x="558" y="468" on="0"/>
        <pt x="545" y="456" on="0"/>
        <pt x="529" y="456" on="0"/>
        <pt x="520" y="463" on="1"/>
        <pt x="471" y="505" on="0"/>
        <pt x="360" y="505" on="0"/>
        <pt x="281" y="418" on="0"/>
        <pt x="281" y="357" on="1"/>
        <pt x="281" y="355" on="1"/>
        <pt x="281" y="294" on="0"/>
        <pt x="362" y="206" on="0"/>
        <pt x="477" y="206" on="0"/>
        <pt x="526" y="250" on="1"/>
        <pt x="534" y="255" on="0"/>
        <pt x="548" y="255" on="0"/>
        <pt x="560" y="243" on="0"/>
        <pt x="560" y="225" on="0"/>
      </contour>
    </TTGlyph>
    <TTGlyph name="d" xMin="60" yMin="0" xMax="534" yMax="700">
      <contour>
        <pt x="534" y="13" on="1"/>
        <pt x="534" y="0" on="0"/>
        <pt x="521" y="0" on="1"/>
        <pt x="516" y="0" on="0"/>
        <pt x="509" y="8" on="0"/>
        <pt x="509" y="13" on="1"/>
        <pt x="509" y="134" on="1"/>
        <pt x="479" y="74" on="0"/>
        <pt x="366" y="0" on="0"/>
        <pt x="298" y="0" on="1"/>
        <pt x="199" y="0" on="0"/>
        <pt x="60" y="145" on="0"/>
        <pt x="60" y="347" on="0"/>
        <pt x="199" y="490" on="0"/>
        <pt x="298" y="490" on="1"/>
        <pt x="366" y="490" on="0"/>
        <pt x="479" y="416" on="0"/>
        <pt x="509" y="355" on="1"/>
        <pt x="509" y="685" on="1"/>
        <pt x="509" y="690" on="0"/>
        <pt x="517" y="700" on="0"/>
        <pt x="521" y="700" on="1"/>
        <pt x="534" y="700" on="0"/>
        <pt x="534" y="685" on="1"/>
      </contour>
      <contour>
        <pt x="509" y="246" on="1"/>
        <pt x="509" y="255" on="1"/>
        <pt x="506" y="342" on="0"/>
        <pt x="382" y="465" on="0"/>
        <pt x="210" y="465" on="0"/>
        <pt x="85" y="337" on="0"/>
        <pt x="85" y="155" on="0"/>
        <pt x="210" y="25" on="0"/>
        <pt x="385" y="25" on="0"/>
        <pt x="509" y="155" on="0"/>
      </contour>
    </TTGlyph>
    <TTGlyph name="degree" xMin="74" yMin="412" xMax="372" yMax="706">
      <contour>
        <pt x="372" y="498" on="0"/>
        <pt x="287" y="412" on="0"/>
        <pt x="160" y="412" on="0"/>
        <pt x="74" y="498" on="0"/>
        <pt x="74" y="558" on="1"/>
        <pt x="74" y="560" on="1"/>
        <pt x="74" y="625" on="0"/>
        <pt x="162" y="706" on="0"/>
        <pt x="283" y="706" on="0"/>
        <pt x="372" y="621" on="0"/>
        <pt x="372" y="560" on="1"/>
        <pt x="372" y="558" on="1"/>
      </contour>
      <contour>
        <pt x="169" y="431" on="0"/>
        <pt x="277" y="431" on="0"/>
        <pt x="350" y="507" on="0"/>
        <pt x="350" y="558" on="1"/>
        <pt x="350" y="560" on="1"/>
        <pt x="350" y="611" on="0"/>
        <pt x="276" y="688" on="0"/>
        <pt x="170" y="688" on="0"/>
        <pt x="96" y="611" on="0"/>
        <pt x="96" y="560" on="1"/>
        <pt x="96" y="558" on="1"/>
        <pt x="96" y="507" on="0"/>
      </contour>
    </TTGlyph>
    <TTGlyph name="dieresis" xMin="133" yMin="603" xMax="383" yMax="671">
      <contour>
        <pt x="133" y="623" on="0"/>
        <pt x="133" y="651" on="0"/>
        <pt x="153" y="671" on="0"/>
        <pt x="181" y="671" on="0"/>
        <pt x="200" y="651" on="0"/>
        <pt x="200" y="623" on="0"/>
        <pt x="181" y="603" on="0"/>
        <pt x="153" y="603" on="0"/>
      </contour>
      <contour>
        <pt x="315" y="623" on="0"/>
        <pt x="315" y="651" on="0"/>
        <pt x="335" y="671" on="0"/>
        <pt x="363" y="671" on="0"/>
        <pt x="383" y="651" on="0"/>
        <pt x="383" y="623" on="0"/>
        <pt x="363" y="603" on="0"/>
        <pt x="335" y="603" on="0"/>
      </contour>
    </TTGlyph>
    <TTGlyph name="divide" xMin="64" yMin="112" xMax="556" yMax="593">
      <contour>
        <pt x="88" y="328" on="1"/>
        <pt x="532" y="328" on="1"/>
        <pt x="542" y="328" on="0"/>
        <pt x="556" y="342" on="0"/>
        <pt x="556" y="362" on="0"/>
        <pt x="542" y="376" on="0"/>
        <pt x="532" y="376" on="1"/>
        <pt x="88" y="376" on="1"/>
        <pt x="78" y="376" on="0"/>
        <pt x="64" y="362" on="0"/>
        <pt x="64" y="342" on="0"/>
        <pt x="78" y="328" on="0"/>
      </contour>
      <contour>
        <pt x="274" y="528" on="0"/>
        <pt x="274" y="566" on="0"/>
        <pt x="301" y="593" on="0"/>
        <pt x="339" y="593" on="0"/>
        <pt x="366" y="566" on="0"/>
        <pt x="366" y="528" on="0"/>
        <pt x="339" y="501" on="0"/>
        <pt x="301" y="501" on="0"/>
      </contour>
      <contour>
        <pt x="274" y="139" on="0"/>
        <pt x="274" y="177" on="0"/>
        <pt x="301" y="204" on="0"/>
        <pt x="339" y="204" on="0"/>
        <pt x="366" y="177" on="0"/>
        <pt x="366" y="139" on="0"/>
        <pt x="339" y="112" on="0"/>
        <pt x="301" y="112" on="0"/>
      </contour>
    </TTGlyph>
    <TTGlyph name="dollar" xMin="63" yMin="-49" xMax="579" yMax="755">
      <contour>
        <pt x="505" y="313" on="1"/>
        <pt x="579" y="264" on="0"/>
        <pt x="578" y="108" on="0"/>
        <pt x="432" y="-1" on="0"/>
        <pt x="330" y="-3" on="1"/>
        <pt x="330" y="-27" on="1"/>
        <pt x="330" y="-49" on="0"/>
        <pt x="318" y="-49" on="1"/>
        <pt x="313" y="-49" on="0"/>
        <pt x="310" y="-45" on="0"/>
        <pt x="308" y="-43" on="0"/>
        <pt x="308" y="-40" on="1"/>
        <pt x="308" y="-3" on="1"/>
        <pt x="182" y="5" on="0"/>
        <pt x="67" y="98" on="1"/>
        <pt x="62" y="102" on="0"/>
        <pt x="64" y="116" on="0"/>
        <pt x="75" y="120" on="0"/>
        <pt x="81" y="116" on="1"/>
        <pt x="190" y="28" on="0"/>
        <pt x="308" y="20" on="1"/>
        <pt x="308" y="356" on="1"/>
        <pt x="211" y="375" on="0"/>
        <pt x="154" y="413" on="1"/>
        <pt x="85" y="459" on="0"/>
        <pt x="85" y="530" on="1"/>
        <pt x="86" y="601" on="0"/>
        <pt x="215" y="701" on="0"/>
        <pt x="308" y="706" on="1"/>
        <pt x="308" y="733" on="1"/>
        <pt x="308" y="735" on="0"/>
        <pt x="309" y="754" on="0"/>
        <pt x="318" y="755" on="1"/>
        <pt x="330" y="755" on="0"/>
        <pt x="330" y="733" on="1"/>
        <pt x="330" y="706" on="1"/>
        <pt x="370" y="705" on="0"/>
        <pt x="454" y="676" on="0"/>
        <pt x="502" y="648" on="0"/>
        <pt x="538" y="624" on="1"/>
        <pt x="543" y="621" on="0"/>
        <pt x="542" y="608" on="0"/>
        <pt x="533" y="602" on="0"/>
        <pt x="526" y="605" on="1"/>
        <pt x="490" y="629" on="0"/>
        <pt x="444" y="655" on="0"/>
        <pt x="367" y="682" on="0"/>
        <pt x="330" y="683" on="1"/>
        <pt x="330" y="375" on="1"/>
        <pt x="444" y="352" on="0"/>
      </contour>
      <contour>
        <pt x="308" y="683" on="1"/>
        <pt x="230" y="679" on="0"/>
        <pt x="108" y="595" on="0"/>
        <pt x="108" y="534" on="1"/>
        <pt x="108" y="420" on="0"/>
        <pt x="308" y="379" on="1"/>
      </contour>
      <contour>
        <pt x="330" y="20" on="1"/>
        <pt x="417" y="21" on="0"/>
        <pt x="556" y="115" on="0"/>
        <pt x="556" y="250" on="0"/>
        <pt x="492" y="294" on="1"/>
        <pt x="439" y="330" on="0"/>
        <pt x="330" y="352" on="1"/>
      </contour>
    </TTGlyph>
    <TTGlyph name="e" xMin="58" yMin="0" xMax="531" yMax="490">
      <contour>
        <pt x="531" y="264" on="1"/>
        <pt x="531" y="260" on="1"/>
        <pt x="529" y="248" on="0"/>
        <pt x="519" y="248" on="1"/>
        <pt x="83" y="248" on="1"/>
        <pt x="83" y="245" on="1"/>
        <pt x="83" y="155" on="0"/>
        <pt x="208" y="26" on="0"/>
        <pt x="296" y="25" on="1"/>
        <pt x="351" y="25" on="0"/>
        <pt x="444" y="79" on="0"/>
        <pt x="472" y="125" on="1"/>
        <pt x="479" y="135" on="0"/>
        <pt x="500" y="121" on="0"/>
        <pt x="493" y="111" on="1"/>
        <pt x="461" y="61" on="0"/>
        <pt x="356" y="0" on="0"/>
        <pt x="296" y="0" on="1"/>
        <pt x="198" y="1" on="0"/>
        <pt x="60" y="144" on="0"/>
        <pt x="58" y="245" on="1"/>
        <pt x="60" y="347" on="0"/>
        <pt x="198" y="490" on="0"/>
        <pt x="389" y="490" on="0"/>
        <pt x="524" y="360" on="0"/>
      </contour>
      <contour>
        <pt x="496" y="354" on="0"/>
        <pt x="376" y="464" on="0"/>
        <pt x="215" y="464" on="0"/>
        <pt x="94" y="354" on="0"/>
        <pt x="84" y="272" on="1"/>
        <pt x="506" y="272" on="1"/>
      </contour>
    </TTGlyph>
    <TTGlyph name="eacute" xMin="58" yMin="0" xMax="531" yMax="698">
      <contour>
        <pt x="531" y="264" on="1"/>
        <pt x="531" y="260" on="1"/>
        <pt x="529" y="248" on="0"/>
        <pt x="519" y="248" on="1"/>
        <pt x="83" y="248" on="1"/>
        <pt x="83" y="245" on="1"/>
        <pt x="83" y="155" on="0"/>
        <pt x="208" y="26" on="0"/>
        <pt x="296" y="25" on="1"/>
        <pt x="351" y="25" on="0"/>
        <pt x="444" y="79" on="0"/>
        <pt x="472" y="125" on="1"/>
        <pt x="479" y="135" on="0"/>
        <pt x="500" y="121" on="0"/>
        <pt x="493" y="111" on="1"/>
        <pt x="461" y="61" on="0"/>
        <pt x="356" y="0" on="0"/>
        <pt x="296" y="0" on="1"/>
        <pt x="198" y="1" on="0"/>
        <pt x="60" y="144" on="0"/>
        <pt x="58" y="245" on="1"/>
        <pt x="60" y="347" on="0"/>
        <pt x="198" y="490" on="0"/>
        <pt x="389" y="490" on="0"/>
        <pt x="524" y="360" on="0"/>
      </contour>
      <contour>
        <pt x="496" y="354" on="0"/>
        <pt x="376" y="464" on="0"/>
        <pt x="215" y="464" on="0"/>
        <pt x="94" y="354" on="0"/>
        <pt x="84" y="272" on="1"/>
        <pt x="506" y="272" on="1"/>
      </contour>
      <contour>
        <pt x="268" y="588" on="1"/>
        <pt x="260" y="579" on="0"/>
        <pt x="237" y="570" on="0"/>
        <pt x="237" y="581" on="0"/>
        <pt x="241" y="587" on="1"/>
        <pt x="303" y="680" on="1"/>
        <pt x="315" y="698" on="0"/>
        <pt x="340" y="698" on="0"/>
        <pt x="344" y="696" on="1"/>
        <pt x="349" y="692" on="0"/>
        <pt x="349" y="683" on="1"/>
        <pt x="352" y="678" on="0"/>
        <pt x="339" y="665" on="1"/>
      </contour>
    </TTGlyph>
    <TTGlyph name="ecircumflex" xMin="58" yMin="0" xMax="531" yMax="693">
      <component glyphName="e" x="0" y="0" flags="0x1004"/>
      <component glyphName="circumflex" x="45" y="-27" flags="0x1004"/>
    </TTGlyph>
    <TTGlyph name="edieresis" xMin="61" yMin="0" xMax="534" yMax="638">
      <contour>
        <pt x="534" y="260" on="1"/>
        <pt x="534" y="264" on="1"/>
        <pt x="527" y="360" on="0"/>
        <pt x="392" y="490" on="0"/>
        <pt x="201" y="490" on="0"/>
        <pt x="63" y="347" on="0"/>
        <pt x="61" y="245" on="1"/>
        <pt x="63" y="144" on="0"/>
        <pt x="201" y="1" on="0"/>
        <pt x="299" y="0" on="1"/>
        <pt x="359" y="0" on="0"/>
        <pt x="464" y="61" on="0"/>
        <pt x="496" y="111" on="1"/>
        <pt x="500" y="118" on="0"/>
        <pt x="493" y="130" on="0"/>
        <pt x="480" y="130" on="0"/>
        <pt x="475" y="125" on="1"/>
        <pt x="447" y="79" on="0"/>
        <pt x="354" y="25" on="0"/>
        <pt x="299" y="25" on="1"/>
        <pt x="211" y="26" on="0"/>
        <pt x="86" y="155" on="0"/>
        <pt x="86" y="245" on="1"/>
        <pt x="86" y="248" on="1"/>
        <pt x="522" y="248" on="1"/>
        <pt x="532" y="248" on="0"/>
      </contour>
      <contour>
        <pt x="97" y="354" on="0"/>
        <pt x="218" y="464" on="0"/>
        <pt x="379" y="464" on="0"/>
        <pt x="499" y="354" on="0"/>
        <pt x="509" y="272" on="1"/>
        <pt x="87" y="272" on="1"/>
      </contour>
      <contour>
        <pt x="172" y="590" on="0"/>
        <pt x="172" y="618" on="0"/>
        <pt x="192" y="638" on="0"/>
        <pt x="220" y="638" on="0"/>
        <pt x="239" y="618" on="0"/>
        <pt x="239" y="590" on="0"/>
        <pt x="220" y="570" on="0"/>
        <pt x="192" y="570" on="0"/>
      </contour>
      <contour>
        <pt x="354" y="590" on="0"/>
        <pt x="354" y="618" on="0"/>
        <pt x="374" y="638" on="0"/>
        <pt x="402" y="638" on="0"/>
        <pt x="422" y="618" on="0"/>
        <pt x="422" y="590" on="0"/>
        <pt x="402" y="570" on="0"/>
        <pt x="374" y="570" on="0"/>
      </contour>
    </TTGlyph>
    <TTGlyph name="egrave" xMin="58" yMin="0" xMax="531" yMax="698">
      <component glyphName="e" x="0" y="0" flags="0x1004"/>
      <component glyphName="grave" x="74" y="-25" flags="0x1004"/>
    </TTGlyph>
    <TTGlyph name="eight" xMin="55" yMin="0" xMax="501" yMax="700">
      <contour>
        <pt x="139" y="561" on="1"/>
        <pt x="139" y="619" on="0"/>
        <pt x="220" y="700" on="0"/>
        <pt x="335" y="700" on="0"/>
        <pt x="416" y="619" on="0"/>
        <pt x="416" y="561" on="1"/>
        <pt x="416" y="520" on="0"/>
        <pt x="372" y="453" on="0"/>
        <pt x="337" y="436" on="1"/>
        <pt x="408" y="416" on="0"/>
        <pt x="501" y="298" on="0"/>
        <pt x="501" y="130" on="0"/>
        <pt x="370" y="0" on="0"/>
        <pt x="186" y="0" on="0"/>
        <pt x="55" y="130" on="0"/>
        <pt x="55" y="298" on="0"/>
        <pt x="148" y="416" on="0"/>
        <pt x="219" y="436" on="1"/>
        <pt x="183" y="453" on="0"/>
        <pt x="139" y="520" on="0"/>
      </contour>
      <contour>
        <pt x="80" y="304" on="0"/>
        <pt x="80" y="140" on="0"/>
        <pt x="196" y="25" on="0"/>
        <pt x="360" y="25" on="0"/>
        <pt x="476" y="140" on="0"/>
        <pt x="476" y="304" on="0"/>
        <pt x="360" y="420" on="0"/>
        <pt x="196" y="420" on="0"/>
      </contour>
      <contour>
        <pt x="164" y="608" on="0"/>
        <pt x="164" y="514" on="0"/>
        <pt x="231" y="448" on="0"/>
        <pt x="324" y="448" on="0"/>
        <pt x="391" y="514" on="0"/>
        <pt x="391" y="608" on="0"/>
        <pt x="325" y="674" on="0"/>
        <pt x="278" y="675" on="1"/>
        <pt x="231" y="674" on="0"/>
      </contour>
    </TTGlyph>
    <TTGlyph name="ellipsis" xMin="82" yMin="-13" xMax="590" yMax="73">
      <contour>
        <pt x="82" y="12" on="0"/>
        <pt x="82" y="48" on="0"/>
        <pt x="107" y="73" on="0"/>
        <pt x="143" y="73" on="0"/>
        <pt x="168" y="48" on="0"/>
        <pt x="168" y="12" on="0"/>
        <pt x="143" y="-13" on="0"/>
        <pt x="107" y="-13" on="0"/>
      </contour>
      <contour>
        <pt x="293" y="12" on="0"/>
        <pt x="293" y="48" on="0"/>
        <pt x="318" y="73" on="0"/>
        <pt x="354" y="73" on="0"/>
        <pt x="379" y="48" on="0"/>
        <pt x="379" y="12" on="0"/>
        <pt x="354" y="-13" on="0"/>
        <pt x="318" y="-13" on="0"/>
      </contour>
      <contour>
        <pt x="504" y="12" on="0"/>
        <pt x="504" y="48" on="0"/>
        <pt x="529" y="73" on="0"/>
        <pt x="565" y="73" on="0"/>
        <pt x="590" y="48" on="0"/>
        <pt x="590" y="12" on="0"/>
        <pt x="565" y="-13" on="0"/>
        <pt x="529" y="-13" on="0"/>
      </contour>
    </TTGlyph>
    <TTGlyph name="emdash" xMin="66" yMin="280" xMax="547" yMax="317">
      <contour>
        <pt x="92" y="280" on="1"/>
        <pt x="79" y="279" on="0"/>
        <pt x="66" y="290" on="0"/>
        <pt x="66" y="297" on="1"/>
        <pt x="66" y="317" on="0"/>
        <pt x="92" y="317" on="1"/>
        <pt x="521" y="317" on="1"/>
        <pt x="547" y="317" on="0"/>
        <pt x="547" y="297" on="1"/>
        <pt x="547" y="280" on="0"/>
        <pt x="521" y="280" on="1"/>
      </contour>
    </TTGlyph>
    <TTGlyph name="endash" xMin="66" yMin="280" xMax="462" yMax="317">
      <contour>
        <pt x="92" y="280" on="1"/>
        <pt x="79" y="279" on="0"/>
        <pt x="66" y="290" on="0"/>
        <pt x="66" y="297" on="1"/>
        <pt x="66" y="317" on="0"/>
        <pt x="92" y="317" on="1"/>
        <pt x="436" y="317" on="1"/>
        <pt x="462" y="317" on="0"/>
        <pt x="462" y="297" on="1"/>
        <pt x="462" y="280" on="0"/>
        <pt x="436" y="280" on="1"/>
      </contour>
    </TTGlyph>
    <TTGlyph name="equal" xMin="79" yMin="231" xMax="451" yMax="466">
      <contour>
        <pt x="79" y="244" on="1"/>
        <pt x="79" y="260" on="0"/>
        <pt x="94" y="260" on="1"/>
        <pt x="436" y="260" on="1"/>
        <pt x="442" y="260" on="0"/>
        <pt x="451" y="250" on="0"/>
        <pt x="451" y="244" on="1"/>
        <pt x="451" y="231" on="0"/>
        <pt x="436" y="231" on="1"/>
        <pt x="94" y="231" on="1"/>
        <pt x="79" y="231" on="0"/>
      </contour>
      <contour>
        <pt x="79" y="451" on="1"/>
        <pt x="79" y="466" on="0"/>
        <pt x="94" y="466" on="1"/>
        <pt x="436" y="466" on="1"/>
        <pt x="442" y="466" on="0"/>
        <pt x="451" y="457" on="0"/>
        <pt x="451" y="446" on="0"/>
        <pt x="442" y="439" on="0"/>
        <pt x="436" y="439" on="1"/>
        <pt x="94" y="439" on="1"/>
        <pt x="79" y="439" on="0"/>
      </contour>
    </TTGlyph>
    <TTGlyph name="exclam" xMin="93" yMin="0" xMax="118" yMax="700">
      <contour>
        <pt x="93" y="687" on="1"/>
        <pt x="93" y="700" on="0"/>
        <pt x="118" y="700" on="0"/>
        <pt x="118" y="687" on="1"/>
        <pt x="118" y="167" on="1"/>
        <pt x="118" y="155" on="0"/>
        <pt x="93" y="155" on="0"/>
        <pt x="93" y="167" on="1"/>
      </contour>
      <contour>
        <pt x="93" y="37" on="1"/>
        <pt x="93" y="49" on="0"/>
        <pt x="106" y="49" on="1"/>
        <pt x="110" y="49" on="0"/>
        <pt x="118" y="42" on="0"/>
        <pt x="118" y="37" on="1"/>
        <pt x="118" y="13" on="1"/>
        <pt x="118" y="0" on="0"/>
        <pt x="93" y="0" on="0"/>
        <pt x="93" y="13" on="1"/>
      </contour>
    </TTGlyph>
    <TTGlyph name="exclamdown" xMin="93" yMin="0" xMax="118" yMax="700">
      <contour>
        <pt x="93" y="533" on="1"/>
        <pt x="93" y="545" on="0"/>
        <pt x="118" y="545" on="0"/>
        <pt x="118" y="533" on="1"/>
        <pt x="118" y="13" on="1"/>
        <pt x="118" y="0" on="0"/>
        <pt x="93" y="0" on="0"/>
        <pt x="93" y="13" on="1"/>
      </contour>
      <contour>
        <pt x="93" y="687" on="1"/>
        <pt x="93" y="700" on="0"/>
        <pt x="118" y="700" on="0"/>
        <pt x="118" y="687" on="1"/>
        <pt x="118" y="663" on="1"/>
        <pt x="118" y="658" on="0"/>
        <pt x="110" y="651" on="0"/>
        <pt x="106" y="651" on="1"/>
        <pt x="93" y="651" on="0"/>
        <pt x="93" y="663" on="1"/>
      </contour>
    </TTGlyph>
    <TTGlyph name="f" xMin="65" yMin="1" xMax="293" yMax="701">
      <contour>
        <pt x="280" y="701" on="1"/>
        <pt x="293" y="701" on="0"/>
        <pt x="293" y="676" on="0"/>
        <pt x="280" y="676" on="1"/>
        <pt x="228" y="676" on="0"/>
        <pt x="184" y="627" on="0"/>
        <pt x="184" y="560" on="1"/>
        <pt x="184" y="494" on="1"/>
        <pt x="268" y="494" on="1"/>
        <pt x="280" y="494" on="0"/>
        <pt x="280" y="468" on="0"/>
        <pt x="268" y="468" on="1"/>
        <pt x="184" y="468" on="1"/>
        <pt x="184" y="14" on="1"/>
        <pt x="184" y="1" on="0"/>
        <pt x="158" y="1" on="0"/>
        <pt x="158" y="14" on="1"/>
        <pt x="158" y="468" on="1"/>
        <pt x="78" y="468" on="1"/>
        <pt x="65" y="468" on="0"/>
        <pt x="65" y="494" on="0"/>
        <pt x="78" y="494" on="1"/>
        <pt x="158" y="494" on="1"/>
        <pt x="158" y="560" on="1"/>
        <pt x="158" y="635" on="0"/>
        <pt x="217" y="701" on="0"/>
      </contour>
    </TTGlyph>
    <TTGlyph name="five" xMin="61" yMin="0" xMax="463" yMax="700">
      <contour>
        <pt x="394" y="69" on="1"/>
        <pt x="326" y="0" on="0"/>
        <pt x="134" y="0" on="0"/>
        <pt x="65" y="69" on="1"/>
        <pt x="59" y="74" on="0"/>
        <pt x="64" y="88" on="0"/>
        <pt x="77" y="92" on="0"/>
        <pt x="83" y="87" on="1"/>
        <pt x="146" y="26" on="0"/>
        <pt x="315" y="26" on="0"/>
        <pt x="437" y="148" on="0"/>
        <pt x="437" y="320" on="0"/>
        <pt x="316" y="440" on="0"/>
        <pt x="146" y="440" on="0"/>
        <pt x="83" y="380" on="1"/>
        <pt x="81" y="376" on="0"/>
        <pt x="70" y="376" on="0"/>
        <pt x="66" y="379" on="1"/>
        <pt x="64" y="379" on="0"/>
        <pt x="64" y="381" on="1"/>
        <pt x="60" y="385" on="0"/>
        <pt x="61" y="392" on="1"/>
        <pt x="96" y="687" on="1"/>
        <pt x="98" y="700" on="0"/>
        <pt x="112" y="700" on="1"/>
        <pt x="450" y="700" on="1"/>
        <pt x="455" y="700" on="0"/>
        <pt x="463" y="692" on="0"/>
        <pt x="463" y="687" on="1"/>
        <pt x="463" y="674" on="0"/>
        <pt x="450" y="674" on="1"/>
        <pt x="121" y="674" on="1"/>
        <pt x="91" y="420" on="1"/>
        <pt x="152" y="466" on="0"/>
        <pt x="230" y="466" on="1"/>
        <pt x="328" y="466" on="0"/>
        <pt x="396" y="398" on="1"/>
        <pt x="463" y="329" on="0"/>
        <pt x="463" y="136" on="0"/>
      </contour>
    </TTGlyph>
    <TTGlyph name="florin" xMin="56" yMin="-1" xMax="474" yMax="705">
      <contour>
        <pt x="266" y="639" on="0"/>
        <pt x="335" y="705" on="0"/>
        <pt x="474" y="705" on="0"/>
        <pt x="474" y="681" on="1"/>
        <pt x="474" y="676" on="0"/>
        <pt x="470" y="673" on="0"/>
        <pt x="468" y="671" on="0"/>
        <pt x="466" y="671" on="1"/>
        <pt x="452" y="671" on="1"/>
        <pt x="471" y="671" on="0"/>
        <pt x="446" y="673" on="1"/>
        <pt x="400" y="677" on="1"/>
        <pt x="356" y="683" on="0"/>
        <pt x="295" y="618" on="0"/>
        <pt x="285" y="562" on="1"/>
        <pt x="260" y="420" on="1"/>
        <pt x="396" y="420" on="1"/>
        <pt x="419" y="420" on="0"/>
        <pt x="419" y="393" on="0"/>
        <pt x="396" y="393" on="1"/>
        <pt x="252" y="393" on="1"/>
        <pt x="202" y="118" on="1"/>
        <pt x="189" y="55" on="0"/>
        <pt x="139" y="-1" on="0"/>
        <pt x="56" y="-1" on="0"/>
        <pt x="56" y="16" on="1"/>
        <pt x="56" y="25" on="0"/>
        <pt x="67" y="29" on="0"/>
        <pt x="70" y="30" on="1"/>
        <pt x="79" y="31" on="0"/>
        <pt x="91" y="31" on="1"/>
        <pt x="128" y="35" on="0"/>
        <pt x="161" y="76" on="0"/>
        <pt x="169" y="121" on="1"/>
        <pt x="218" y="393" on="1"/>
        <pt x="128" y="393" on="1"/>
        <pt x="105" y="393" on="0"/>
        <pt x="105" y="420" on="0"/>
        <pt x="128" y="420" on="1"/>
        <pt x="226" y="420" on="1"/>
        <pt x="252" y="565" on="1"/>
      </contour>
    </TTGlyph>
    <TTGlyph name="four" xMin="50" yMin="0" xMax="570" yMax="699">
      <contour>
        <pt x="473" y="694" on="1"/>
        <pt x="478" y="699" on="0"/>
        <pt x="486" y="699" on="0"/>
        <pt x="495" y="690" on="1"/>
        <pt x="496" y="688" on="0"/>
        <pt x="496" y="687" on="1"/>
        <pt x="496" y="174" on="1"/>
        <pt x="557" y="174" on="1"/>
        <pt x="570" y="174" on="0"/>
        <pt x="570" y="149" on="0"/>
        <pt x="557" y="149" on="1"/>
        <pt x="496" y="149" on="1"/>
        <pt x="496" y="13" on="1"/>
        <pt x="496" y="0" on="0"/>
        <pt x="483" y="0" on="1"/>
        <pt x="478" y="0" on="0"/>
        <pt x="470" y="8" on="0"/>
        <pt x="470" y="13" on="1"/>
        <pt x="470" y="149" on="1"/>
        <pt x="61" y="149" on="1"/>
        <pt x="54" y="149" on="0"/>
        <pt x="46" y="163" on="0"/>
        <pt x="51" y="169" on="1"/>
      </contour>
      <contour>
        <pt x="87" y="174" on="1"/>
        <pt x="470" y="174" on="1"/>
        <pt x="470" y="648" on="1"/>
      </contour>
    </TTGlyph>
    <TTGlyph name="g" xMin="60" yMin="-204" xMax="522" yMax="490">
      <contour>
        <pt x="509" y="490" on="1"/>
        <pt x="522" y="490" on="0"/>
        <pt x="522" y="477" on="1"/>
        <pt x="522" y="28" on="1"/>
        <pt x="522" y="-68" on="0"/>
        <pt x="387" y="-204" on="0"/>
        <pt x="291" y="-204" on="1"/>
        <pt x="240" y="-204" on="0"/>
        <pt x="189" y="-180" on="1"/>
        <pt x="179" y="-173" on="0"/>
        <pt x="189" y="-154" on="0"/>
        <pt x="201" y="-157" on="1"/>
        <pt x="245" y="-179" on="0"/>
        <pt x="291" y="-179" on="1"/>
        <pt x="377" y="-177" on="0"/>
        <pt x="497" y="-57" on="0"/>
        <pt x="497" y="28" on="1"/>
        <pt x="497" y="135" on="1"/>
        <pt x="469" y="75" on="0"/>
        <pt x="357" y="0" on="0"/>
        <pt x="291" y="0" on="1"/>
        <pt x="195" y="0" on="0"/>
        <pt x="60" y="144" on="0"/>
        <pt x="60" y="346" on="0"/>
        <pt x="195" y="490" on="0"/>
        <pt x="291" y="490" on="1"/>
        <pt x="357" y="490" on="0"/>
        <pt x="469" y="416" on="0"/>
        <pt x="497" y="356" on="1"/>
        <pt x="497" y="477" on="1"/>
        <pt x="497" y="482" on="0"/>
        <pt x="504" y="490" on="0"/>
      </contour>
      <contour>
        <pt x="497" y="154" on="0"/>
        <pt x="497" y="336" on="0"/>
        <pt x="376" y="465" on="0"/>
        <pt x="206" y="465" on="0"/>
        <pt x="85" y="336" on="0"/>
        <pt x="85" y="154" on="0"/>
        <pt x="206" y="26" on="0"/>
        <pt x="376" y="26" on="0"/>
      </contour>
    </TTGlyph>
    <TTGlyph name="germandbls" xMin="94" yMin="-4" xMax="558" yMax="737">
      <contour>
        <pt x="107" y="-4" on="1"/>
        <pt x="94" y="-4" on="0"/>
        <pt x="94" y="10" on="1"/>
        <pt x="94" y="500" on="1"/>
        <pt x="94" y="606" on="0"/>
        <pt x="216" y="740" on="0"/>
        <pt x="403" y="734" on="0"/>
        <pt x="513" y="636" on="0"/>
        <pt x="513" y="562" on="1"/>
        <pt x="513" y="560" on="1"/>
        <pt x="513" y="493" on="0"/>
        <pt x="410" y="395" on="0"/>
        <pt x="340" y="370" on="1"/>
        <pt x="431" y="354" on="0"/>
        <pt x="559" y="264" on="0"/>
        <pt x="557" y="106" on="0"/>
        <pt x="416" y="2" on="0"/>
        <pt x="307" y="-2" on="1"/>
        <pt x="286" y="-2" on="0"/>
        <pt x="286" y="14" on="1"/>
        <pt x="286" y="33" on="0"/>
        <pt x="306" y="35" on="1"/>
        <pt x="398" y="40" on="0"/>
        <pt x="522" y="120" on="0"/>
        <pt x="522" y="252" on="0"/>
        <pt x="401" y="327" on="0"/>
        <pt x="311" y="339" on="1"/>
        <pt x="286" y="342" on="0"/>
        <pt x="286" y="363" on="1"/>
        <pt x="286" y="381" on="0"/>
        <pt x="306" y="388" on="1"/>
        <pt x="481" y="449" on="0"/>
        <pt x="481" y="562" on="1"/>
        <pt x="481" y="619" on="0"/>
        <pt x="379" y="708" on="0"/>
        <pt x="239" y="708" on="0"/>
        <pt x="126" y="586" on="0"/>
        <pt x="126" y="500" on="1"/>
        <pt x="126" y="20" on="1"/>
        <pt x="126" y="-4" on="0"/>
      </contour>
    </TTGlyph>
    <TTGlyph name="grave" xMin="166" yMin="599" xMax="278" yMax="723">
      <contour>
        <pt x="274" y="612" on="1"/>
        <pt x="278" y="606" on="0"/>
        <pt x="278" y="594" on="0"/>
        <pt x="255" y="604" on="0"/>
        <pt x="247" y="613" on="1"/>
        <pt x="176" y="690" on="1"/>
        <pt x="163" y="703" on="0"/>
        <pt x="166" y="708" on="1"/>
        <pt x="166" y="723" on="0"/>
        <pt x="200" y="723" on="0"/>
        <pt x="212" y="705" on="1"/>
      </contour>
    </TTGlyph>
    <TTGlyph name="greater" xMin="93" yMin="0" xMax="450" yMax="694">
      <contour>
        <pt x="450" y="352" on="1"/>
        <pt x="450" y="344" on="1"/>
        <pt x="449" y="343" on="0"/>
        <pt x="445" y="337" on="0"/>
        <pt x="115" y="4" on="1"/>
        <pt x="111" y="0" on="0"/>
        <pt x="97" y="0" on="0"/>
        <pt x="93" y="4" on="1"/>
        <pt x="86" y="15" on="0"/>
        <pt x="93" y="25" on="1"/>
        <pt x="414" y="348" on="1"/>
        <pt x="93" y="672" on="1"/>
        <pt x="86" y="683" on="0"/>
        <pt x="93" y="694" on="1"/>
        <pt x="104" y="705" on="0"/>
        <pt x="115" y="694" on="1"/>
        <pt x="444" y="360" on="1"/>
        <pt x="446" y="359" on="1"/>
        <pt x="446" y="358" on="0"/>
        <pt x="447" y="358" on="0"/>
      </contour>
    </TTGlyph>
    <TTGlyph name="guilsinglleft" xMin="55" yMin="46" xMax="235" yMax="460">
      <contour>
        <pt x="231" y="450" on="1"/>
        <pt x="232" y="440" on="0"/>
        <pt x="227" y="434" on="1"/>
        <pt x="86" y="254" on="1"/>
        <pt x="227" y="76" on="1"/>
        <pt x="238" y="62" on="0"/>
        <pt x="231" y="46" on="0"/>
        <pt x="208" y="46" on="0"/>
        <pt x="202" y="55" on="1"/>
        <pt x="65" y="233" on="1"/>
        <pt x="55" y="246" on="0"/>
        <pt x="55" y="264" on="0"/>
        <pt x="65" y="277" on="1"/>
        <pt x="202" y="456" on="1"/>
        <pt x="206" y="462" on="0"/>
        <pt x="230" y="458" on="0"/>
      </contour>
    </TTGlyph>
    <TTGlyph name="guilsinglright" xMin="73" yMin="46" xMax="252" yMax="460">
      <contour>
        <pt x="76" y="450" on="1"/>
        <pt x="77" y="458" on="0"/>
        <pt x="101" y="462" on="0"/>
        <pt x="105" y="456" on="1"/>
        <pt x="242" y="277" on="1"/>
        <pt x="252" y="264" on="0"/>
        <pt x="252" y="246" on="0"/>
        <pt x="242" y="233" on="1"/>
        <pt x="105" y="55" on="1"/>
        <pt x="99" y="46" on="0"/>
        <pt x="76" y="46" on="0"/>
        <pt x="74" y="52" on="1"/>
        <pt x="69" y="62" on="0"/>
        <pt x="80" y="76" on="1"/>
        <pt x="221" y="254" on="1"/>
        <pt x="80" y="434" on="1"/>
        <pt x="75" y="440" on="0"/>
      </contour>
    </TTGlyph>
    <TTGlyph name="h" xMin="93" yMin="0" xMax="490" yMax="700">
      <contour>
        <pt x="106" y="0" on="1"/>
        <pt x="93" y="0" on="0"/>
        <pt x="93" y="11" on="1"/>
        <pt x="93" y="687" on="1"/>
        <pt x="93" y="700" on="0"/>
        <pt x="118" y="700" on="0"/>
        <pt x="118" y="687" on="1"/>
        <pt x="118" y="387" on="1"/>
        <pt x="144" y="434" on="0"/>
        <pt x="237" y="490" on="0"/>
        <pt x="292" y="490" on="1"/>
        <pt x="374" y="490" on="0"/>
        <pt x="490" y="374" on="0"/>
        <pt x="490" y="291" on="1"/>
        <pt x="490" y="13" on="1"/>
        <pt x="490" y="8" on="0"/>
        <pt x="483" y="0" on="0"/>
        <pt x="478" y="0" on="1"/>
        <pt x="465" y="0" on="0"/>
        <pt x="465" y="13" on="1"/>
        <pt x="465" y="291" on="1"/>
        <pt x="465" y="363" on="0"/>
        <pt x="364" y="464" on="0"/>
        <pt x="222" y="464" on="0"/>
        <pt x="121" y="367" on="0"/>
        <pt x="118" y="298" on="1"/>
        <pt x="118" y="13" on="1"/>
        <pt x="118" y="0" on="0"/>
        <pt x="108" y="0" on="1"/>
      </contour>
    </TTGlyph>
    <TTGlyph name="hyphen" xMin="66" yMin="340" xMax="313" yMax="360">
      <contour>
        <pt x="76" y="340" on="1"/>
        <pt x="66" y="340" on="0"/>
        <pt x="66" y="360" on="0"/>
        <pt x="76" y="360" on="1"/>
        <pt x="304" y="360" on="1"/>
        <pt x="313" y="360" on="0"/>
        <pt x="313" y="340" on="0"/>
        <pt x="304" y="340" on="1"/>
      </contour>
    </TTGlyph>
    <TTGlyph name="i" xMin="94" yMin="0" xMax="119" yMax="648">
      <contour>
        <pt x="94" y="13" on="1"/>
        <pt x="94" y="478" on="1"/>
        <pt x="94" y="490" on="0"/>
        <pt x="119" y="490" on="0"/>
        <pt x="119" y="478" on="1"/>
        <pt x="119" y="13" on="1"/>
        <pt x="119" y="8" on="0"/>
        <pt x="112" y="0" on="0"/>
        <pt x="107" y="0" on="1"/>
        <pt x="94" y="0" on="0"/>
      </contour>
      <contour>
        <pt x="94" y="611" on="1"/>
        <pt x="94" y="635" on="1"/>
        <pt x="94" y="648" on="0"/>
        <pt x="119" y="648" on="0"/>
        <pt x="119" y="635" on="1"/>
        <pt x="119" y="611" on="1"/>
        <pt x="119" y="606" on="0"/>
        <pt x="112" y="599" on="0"/>
        <pt x="107" y="599" on="1"/>
        <pt x="94" y="599" on="0"/>
      </contour>
    </TTGlyph>
    <TTGlyph name="iacute" xMin="50" yMin="0" xMax="162" yMax="698">
      <contour>
        <pt x="95" y="13" on="1"/>
        <pt x="95" y="478" on="1"/>
        <pt x="95" y="490" on="0"/>
        <pt x="120" y="490" on="0"/>
        <pt x="120" y="478" on="1"/>
        <pt x="120" y="13" on="1"/>
        <pt x="120" y="8" on="0"/>
        <pt x="113" y="0" on="0"/>
        <pt x="108" y="0" on="1"/>
        <pt x="95" y="0" on="0"/>
      </contour>
      <contour>
        <pt x="81" y="588" on="1"/>
        <pt x="73" y="579" on="0"/>
        <pt x="50" y="570" on="0"/>
        <pt x="50" y="581" on="0"/>
        <pt x="54" y="587" on="1"/>
        <pt x="116" y="680" on="1"/>
        <pt x="128" y="698" on="0"/>
        <pt x="153" y="698" on="0"/>
        <pt x="156" y="696" on="1"/>
        <pt x="162" y="692" on="0"/>
        <pt x="162" y="683" on="1"/>
        <pt x="165" y="678" on="0"/>
        <pt x="152" y="665" on="1"/>
      </contour>
    </TTGlyph>
    <TTGlyph name="icircumflex" xMin="9" yMin="0" xMax="227" yMax="693">
      <contour>
        <pt x="106" y="13" on="1"/>
        <pt x="106" y="0" on="0"/>
        <pt x="119" y="0" on="1"/>
        <pt x="124" y="0" on="0"/>
        <pt x="131" y="8" on="0"/>
        <pt x="131" y="13" on="1"/>
        <pt x="131" y="478" on="1"/>
        <pt x="131" y="490" on="0"/>
        <pt x="106" y="490" on="0"/>
        <pt x="106" y="478" on="1"/>
      </contour>
      <contour>
        <pt x="117" y="667" on="1"/>
        <pt x="48" y="591" on="1"/>
        <pt x="30" y="573" on="0"/>
        <pt x="23" y="573" on="1"/>
        <pt x="9" y="575" on="0"/>
        <pt x="9" y="575" on="1"/>
        <pt x="9" y="581" on="0"/>
        <pt x="14" y="587" on="1"/>
        <pt x="86" y="675" on="1"/>
        <pt x="101" y="693" on="0"/>
        <pt x="114" y="693" on="1"/>
        <pt x="122" y="693" on="1"/>
        <pt x="135" y="693" on="0"/>
        <pt x="150" y="675" on="1"/>
        <pt x="222" y="587" on="1"/>
        <pt x="227" y="581" on="0"/>
        <pt x="227" y="575" on="1"/>
        <pt x="222" y="572" on="0"/>
        <pt x="206" y="573" on="0"/>
        <pt x="187" y="592" on="1"/>
      </contour>
    </TTGlyph>
    <TTGlyph name="idieresis" xMin="-6" yMin="0" xMax="244" yMax="638">
      <contour>
        <pt x="107" y="13" on="1"/>
        <pt x="107" y="0" on="0"/>
        <pt x="120" y="0" on="1"/>
        <pt x="125" y="0" on="0"/>
        <pt x="132" y="8" on="0"/>
        <pt x="132" y="13" on="1"/>
        <pt x="132" y="478" on="1"/>
        <pt x="132" y="490" on="0"/>
        <pt x="107" y="490" on="0"/>
        <pt x="107" y="478" on="1"/>
      </contour>
      <contour>
        <pt x="-6" y="590" on="0"/>
        <pt x="-6" y="618" on="0"/>
        <pt x="14" y="638" on="0"/>
        <pt x="42" y="638" on="0"/>
        <pt x="61" y="618" on="0"/>
        <pt x="61" y="590" on="0"/>
        <pt x="42" y="570" on="0"/>
        <pt x="14" y="570" on="0"/>
      </contour>
      <contour>
        <pt x="176" y="590" on="0"/>
        <pt x="176" y="618" on="0"/>
        <pt x="196" y="638" on="0"/>
        <pt x="224" y="638" on="0"/>
        <pt x="244" y="618" on="0"/>
        <pt x="244" y="590" on="0"/>
        <pt x="224" y="570" on="0"/>
        <pt x="196" y="570" on="0"/>
      </contour>
    </TTGlyph>
    <TTGlyph name="igrave" xMin="53" yMin="0" xMax="165" yMax="698">
      <contour>
        <pt x="95" y="13" on="1"/>
        <pt x="95" y="0" on="0"/>
        <pt x="108" y="0" on="1"/>
        <pt x="113" y="0" on="0"/>
        <pt x="120" y="8" on="0"/>
        <pt x="120" y="13" on="1"/>
        <pt x="120" y="478" on="1"/>
        <pt x="120" y="490" on="0"/>
        <pt x="95" y="490" on="0"/>
        <pt x="95" y="478" on="1"/>
      </contour>
      <contour>
        <pt x="161" y="587" on="1"/>
        <pt x="165" y="581" on="0"/>
        <pt x="165" y="570" on="0"/>
        <pt x="142" y="579" on="0"/>
        <pt x="134" y="588" on="1"/>
        <pt x="63" y="665" on="1"/>
        <pt x="50" y="678" on="0"/>
        <pt x="53" y="683" on="1"/>
        <pt x="53" y="698" on="0"/>
        <pt x="87" y="698" on="0"/>
        <pt x="99" y="680" on="1"/>
      </contour>
    </TTGlyph>
    <TTGlyph name="j" xMin="-5" yMin="-203" xMax="87" yMax="650">
      <contour>
        <pt x="7" y="-203" on="1"/>
        <pt x="-5" y="-203" on="0"/>
        <pt x="-5" y="-178" on="0"/>
        <pt x="28" y="-178" on="0"/>
        <pt x="58" y="-148" on="0"/>
        <pt x="58" y="-126" on="1"/>
        <pt x="58" y="478" on="1"/>
        <pt x="58" y="490" on="0"/>
        <pt x="70" y="490" on="1"/>
        <pt x="75" y="490" on="0"/>
        <pt x="84" y="483" on="0"/>
        <pt x="84" y="478" on="1"/>
        <pt x="84" y="-126" on="1"/>
        <pt x="84" y="-158" on="0"/>
        <pt x="39" y="-203" on="0"/>
      </contour>
      <contour>
        <pt x="60" y="613" on="1"/>
        <pt x="60" y="637" on="1"/>
        <pt x="60" y="650" on="0"/>
        <pt x="73" y="650" on="1"/>
        <pt x="78" y="650" on="0"/>
        <pt x="87" y="642" on="0"/>
        <pt x="87" y="637" on="1"/>
        <pt x="87" y="613" on="1"/>
        <pt x="87" y="608" on="0"/>
        <pt x="78" y="601" on="0"/>
        <pt x="73" y="601" on="1"/>
        <pt x="60" y="601" on="0"/>
      </contour>
    </TTGlyph>
    <TTGlyph name="k" xMin="93" yMin="0" xMax="460" yMax="700">
      <contour>
        <pt x="93" y="13" on="1"/>
        <pt x="93" y="687" on="1"/>
        <pt x="93" y="700" on="0"/>
        <pt x="106" y="700" on="1"/>
        <pt x="111" y="700" on="0"/>
        <pt x="118" y="692" on="0"/>
        <pt x="118" y="687" on="1"/>
        <pt x="118" y="168" on="1"/>
        <pt x="440" y="490" on="1"/>
        <pt x="448" y="498" on="0"/>
        <pt x="467" y="481" on="0"/>
        <pt x="458" y="472" on="1"/>
        <pt x="255" y="269" on="1"/>
        <pt x="458" y="22" on="1"/>
        <pt x="463" y="16" on="0"/>
        <pt x="456" y="0" on="0"/>
        <pt x="442" y="0" on="0"/>
        <pt x="439" y="5" on="1"/>
        <pt x="236" y="250" on="1"/>
        <pt x="121" y="135" on="1"/>
        <pt x="119" y="133" on="0"/>
        <pt x="118" y="133" on="1"/>
        <pt x="118" y="13" on="1"/>
        <pt x="118" y="8" on="0"/>
        <pt x="111" y="0" on="0"/>
        <pt x="106" y="0" on="1"/>
        <pt x="93" y="0" on="0"/>
      </contour>
    </TTGlyph>
    <TTGlyph name="l" xMin="100" yMin="0" xMax="125" yMax="700">
      <contour>
        <pt x="100" y="687" on="1"/>
        <pt x="100" y="700" on="0"/>
        <pt x="125" y="700" on="0"/>
        <pt x="125" y="687" on="1"/>
        <pt x="125" y="13" on="1"/>
        <pt x="125" y="0" on="0"/>
        <pt x="100" y="0" on="0"/>
        <pt x="100" y="13" on="1"/>
      </contour>
    </TTGlyph>
    <TTGlyph name="less" xMin="61" yMin="0" xMax="418" yMax="694">
      <contour>
        <pt x="396" y="4" on="1"/>
        <pt x="66" y="337" on="1"/>
        <pt x="65" y="337" on="0"/>
        <pt x="61" y="342" on="0"/>
        <pt x="61" y="344" on="1"/>
        <pt x="59" y="348" on="0"/>
        <pt x="63" y="357" on="1"/>
        <pt x="66" y="360" on="0"/>
        <pt x="396" y="694" on="1"/>
        <pt x="407" y="705" on="0"/>
        <pt x="418" y="694" on="1"/>
        <pt x="425" y="683" on="0"/>
        <pt x="418" y="672" on="1"/>
        <pt x="96" y="348" on="1"/>
        <pt x="418" y="25" on="1"/>
        <pt x="425" y="15" on="0"/>
        <pt x="418" y="4" on="1"/>
        <pt x="414" y="0" on="0"/>
        <pt x="400" y="0" on="0"/>
      </contour>
    </TTGlyph>
    <TTGlyph name="m" xMin="93" yMin="0" xMax="854" yMax="490">
      <contour>
        <pt x="486" y="9" on="1"/>
        <pt x="484" y="4" on="1"/>
        <pt x="480" y="0" on="0"/>
        <pt x="474" y="0" on="1"/>
        <pt x="462" y="0" on="0"/>
        <pt x="462" y="13" on="1"/>
        <pt x="462" y="292" on="1"/>
        <pt x="462" y="364" on="0"/>
        <pt x="361" y="465" on="0"/>
        <pt x="221" y="465" on="0"/>
        <pt x="121" y="368" on="0"/>
        <pt x="119" y="299" on="1"/>
        <pt x="119" y="13" on="1"/>
        <pt x="116" y="4" on="1"/>
        <pt x="114" y="3" on="1"/>
        <pt x="111" y="0" on="0"/>
        <pt x="107" y="0" on="1"/>
        <pt x="104" y="0" on="1"/>
        <pt x="93" y="2" on="0"/>
        <pt x="93" y="13" on="1"/>
        <pt x="93" y="292" on="1"/>
        <pt x="93" y="300" on="0"/>
        <pt x="95" y="316" on="1"/>
        <pt x="95" y="477" on="1"/>
        <pt x="95" y="490" on="0"/>
        <pt x="119" y="490" on="0"/>
        <pt x="119" y="477" on="1"/>
        <pt x="119" y="388" on="1"/>
        <pt x="145" y="435" on="0"/>
        <pt x="236" y="490" on="0"/>
        <pt x="352" y="490" on="0"/>
        <pt x="453" y="419" on="0"/>
        <pt x="474" y="362" on="1"/>
        <pt x="495" y="419" on="0"/>
        <pt x="596" y="490" on="0"/>
        <pt x="659" y="490" on="1"/>
        <pt x="740" y="490" on="0"/>
        <pt x="854" y="374" on="0"/>
        <pt x="854" y="292" on="1"/>
        <pt x="854" y="13" on="1"/>
        <pt x="854" y="0" on="0"/>
        <pt x="842" y="0" on="1"/>
        <pt x="837" y="0" on="0"/>
        <pt x="829" y="8" on="0"/>
        <pt x="829" y="13" on="1"/>
        <pt x="829" y="292" on="1"/>
        <pt x="829" y="364" on="0"/>
        <pt x="729" y="465" on="0"/>
        <pt x="589" y="465" on="0"/>
        <pt x="489" y="368" on="0"/>
        <pt x="487" y="299" on="1"/>
        <pt x="487" y="13" on="1"/>
        <pt x="487" y="10" on="0"/>
      </contour>
    </TTGlyph>
    <TTGlyph name="multiply" xMin="100" yMin="142" xMax="520" yMax="562">
      <contour>
        <pt x="512" y="520" on="1"/>
        <pt x="343" y="353" on="1"/>
        <pt x="511" y="187" on="1"/>
        <pt x="520" y="178" on="0"/>
        <pt x="520" y="156" on="0"/>
        <pt x="506" y="142" on="0"/>
        <pt x="484" y="142" on="0"/>
        <pt x="475" y="151" on="1"/>
        <pt x="309" y="319" on="1"/>
        <pt x="142" y="150" on="1"/>
        <pt x="134" y="142" on="0"/>
        <pt x="114" y="142" on="0"/>
        <pt x="100" y="156" on="0"/>
        <pt x="100" y="176" on="0"/>
        <pt x="108" y="184" on="1"/>
        <pt x="277" y="351" on="1"/>
        <pt x="109" y="517" on="1"/>
        <pt x="100" y="526" on="0"/>
        <pt x="100" y="548" on="0"/>
        <pt x="114" y="562" on="0"/>
        <pt x="136" y="562" on="0"/>
        <pt x="145" y="553" on="1"/>
        <pt x="311" y="385" on="1"/>
        <pt x="478" y="554" on="1"/>
        <pt x="486" y="562" on="0"/>
        <pt x="506" y="562" on="0"/>
        <pt x="520" y="548" on="0"/>
        <pt x="520" y="528" on="0"/>
      </contour>
    </TTGlyph>
    <TTGlyph name="n" xMin="93" yMin="0" xMax="488" yMax="490">
      <contour>
        <pt x="102" y="0" on="1"/>
        <pt x="100" y="2" on="0"/>
        <pt x="95" y="2" on="0"/>
        <pt x="95" y="6" on="1"/>
        <pt x="93" y="8" on="0"/>
        <pt x="93" y="11" on="1"/>
        <pt x="93" y="478" on="1"/>
        <pt x="93" y="490" on="0"/>
        <pt x="118" y="490" on="0"/>
        <pt x="118" y="478" on="1"/>
        <pt x="118" y="388" on="1"/>
        <pt x="144" y="434" on="0"/>
        <pt x="236" y="490" on="0"/>
        <pt x="291" y="490" on="1"/>
        <pt x="372" y="490" on="0"/>
        <pt x="488" y="374" on="0"/>
        <pt x="488" y="292" on="1"/>
        <pt x="488" y="13" on="1"/>
        <pt x="488" y="0" on="0"/>
        <pt x="463" y="0" on="0"/>
        <pt x="463" y="13" on="1"/>
        <pt x="463" y="292" on="1"/>
        <pt x="463" y="364" on="0"/>
        <pt x="362" y="465" on="0"/>
        <pt x="220" y="465" on="0"/>
        <pt x="118" y="364" on="0"/>
        <pt x="118" y="292" on="1"/>
        <pt x="118" y="13" on="1"/>
        <pt x="118" y="0" on="0"/>
        <pt x="106" y="0" on="1"/>
      </contour>
    </TTGlyph>
    <TTGlyph name="nine" xMin="66" yMin="0" xMax="523" yMax="700">
      <contour>
        <pt x="519" y="492" on="1"/>
        <pt x="523" y="467" on="0"/>
        <pt x="523" y="351" on="0"/>
        <pt x="485" y="202" on="0"/>
        <pt x="411" y="79" on="0"/>
        <pt x="289" y="3" on="0"/>
        <pt x="212" y="0" on="1"/>
        <pt x="199" y="0" on="0"/>
        <pt x="199" y="13" on="1"/>
        <pt x="198" y="17" on="0"/>
        <pt x="205" y="25" on="0"/>
        <pt x="210" y="25" on="1"/>
        <pt x="354" y="32" on="0"/>
        <pt x="432" y="163" on="1"/>
        <pt x="483" y="252" on="0"/>
        <pt x="494" y="368" on="1"/>
        <pt x="466" y="313" on="0"/>
        <pt x="358" y="247" on="0"/>
        <pt x="294" y="247" on="1"/>
        <pt x="200" y="247" on="0"/>
        <pt x="66" y="379" on="0"/>
        <pt x="66" y="567" on="0"/>
        <pt x="200" y="700" on="0"/>
        <pt x="382" y="700" on="0"/>
        <pt x="511" y="580" on="0"/>
      </contour>
      <contour>
        <pt x="494" y="488" on="1"/>
        <pt x="494" y="493" on="1"/>
        <pt x="486" y="570" on="0"/>
        <pt x="372" y="675" on="0"/>
        <pt x="210" y="675" on="0"/>
        <pt x="91" y="557" on="0"/>
        <pt x="91" y="390" on="0"/>
        <pt x="210" y="272" on="0"/>
        <pt x="377" y="272" on="0"/>
        <pt x="495" y="390" on="0"/>
        <pt x="495" y="473" on="1"/>
        <pt x="495" y="483" on="0"/>
      </contour>
    </TTGlyph>
    <TTGlyph name="ntilde" xMin="94" yMin="0" xMax="489" yMax="679">
      <contour>
        <pt x="100" y="2" on="1"/>
        <pt x="102" y="0" on="0"/>
        <pt x="103" y="0" on="1"/>
        <pt x="107" y="0" on="1"/>
        <pt x="119" y="0" on="0"/>
        <pt x="119" y="13" on="1"/>
        <pt x="119" y="292" on="1"/>
        <pt x="119" y="364" on="0"/>
        <pt x="221" y="465" on="0"/>
        <pt x="363" y="465" on="0"/>
        <pt x="464" y="364" on="0"/>
        <pt x="464" y="292" on="1"/>
        <pt x="464" y="13" on="1"/>
        <pt x="464" y="0" on="0"/>
        <pt x="489" y="0" on="0"/>
        <pt x="489" y="13" on="1"/>
        <pt x="489" y="292" on="1"/>
        <pt x="489" y="374" on="0"/>
        <pt x="373" y="490" on="0"/>
        <pt x="292" y="490" on="1"/>
        <pt x="237" y="490" on="0"/>
        <pt x="145" y="434" on="0"/>
        <pt x="119" y="388" on="1"/>
        <pt x="119" y="478" on="1"/>
        <pt x="119" y="490" on="0"/>
        <pt x="94" y="490" on="0"/>
        <pt x="94" y="478" on="1"/>
        <pt x="94" y="11" on="1"/>
        <pt x="94" y="8" on="0"/>
        <pt x="96" y="6" on="1"/>
        <pt x="96" y="2" on="0"/>
      </contour>
      <contour>
        <pt x="179" y="582" on="1"/>
        <pt x="173" y="570" on="0"/>
        <pt x="163" y="570" on="1"/>
        <pt x="147" y="570" on="0"/>
        <pt x="147" y="583" on="1"/>
        <pt x="147" y="585" on="0"/>
        <pt x="158" y="620" on="0"/>
        <pt x="206" y="657" on="0"/>
        <pt x="246" y="657" on="0"/>
        <pt x="338" y="619" on="0"/>
        <pt x="355" y="619" on="1"/>
        <pt x="386" y="619" on="0"/>
        <pt x="405" y="662" on="1"/>
        <pt x="405" y="670" on="0"/>
        <pt x="414" y="679" on="0"/>
        <pt x="418" y="679" on="1"/>
        <pt x="436" y="679" on="0"/>
        <pt x="436" y="662" on="1"/>
        <pt x="436" y="656" on="0"/>
        <pt x="434" y="650" on="1"/>
        <pt x="412" y="582" on="0"/>
        <pt x="355" y="582" on="1"/>
        <pt x="337" y="582" on="0"/>
        <pt x="245" y="621" on="0"/>
        <pt x="227" y="621" on="1"/>
        <pt x="196" y="621" on="0"/>
      </contour>
    </TTGlyph>
    <TTGlyph name="o" xMin="70" yMin="0" xMax="533" yMax="490">
      <contour>
        <pt x="205" y="490" on="0"/>
        <pt x="397" y="490" on="0"/>
        <pt x="533" y="346" on="0"/>
        <pt x="533" y="144" on="0"/>
        <pt x="397" y="0" on="0"/>
        <pt x="205" y="0" on="0"/>
        <pt x="70" y="144" on="0"/>
        <pt x="70" y="346" on="0"/>
      </contour>
      <contour>
        <pt x="216" y="25" on="0"/>
        <pt x="386" y="25" on="0"/>
        <pt x="508" y="154" on="0"/>
        <pt x="508" y="336" on="0"/>
        <pt x="386" y="465" on="0"/>
        <pt x="216" y="465" on="0"/>
        <pt x="95" y="336" on="0"/>
        <pt x="95" y="154" on="0"/>
      </contour>
    </TTGlyph>
    <TTGlyph name="oacute" xMin="58" yMin="0" xMax="521" yMax="698">
      <contour>
        <pt x="193" y="490" on="0"/>
        <pt x="385" y="490" on="0"/>
        <pt x="521" y="346" on="0"/>
        <pt x="521" y="144" on="0"/>
        <pt x="385" y="0" on="0"/>
        <pt x="193" y="0" on="0"/>
        <pt x="58" y="144" on="0"/>
        <pt x="58" y="346" on="0"/>
      </contour>
      <contour>
        <pt x="204" y="25" on="0"/>
        <pt x="374" y="25" on="0"/>
        <pt x="496" y="154" on="0"/>
        <pt x="496" y="336" on="0"/>
        <pt x="374" y="465" on="0"/>
        <pt x="204" y="465" on="0"/>
        <pt x="83" y="336" on="0"/>
        <pt x="83" y="154" on="0"/>
      </contour>
      <contour>
        <pt x="262" y="588" on="1"/>
        <pt x="254" y="579" on="0"/>
        <pt x="231" y="570" on="0"/>
        <pt x="231" y="581" on="0"/>
        <pt x="235" y="587" on="1"/>
        <pt x="297" y="680" on="1"/>
        <pt x="309" y="698" on="0"/>
        <pt x="334" y="698" on="0"/>
        <pt x="338" y="696" on="1"/>
        <pt x="343" y="692" on="0"/>
        <pt x="343" y="683" on="1"/>
        <pt x="346" y="678" on="0"/>
        <pt x="333" y="665" on="1"/>
      </contour>
    </TTGlyph>
    <TTGlyph name="ocircumflex" xMin="58" yMin="0" xMax="521" yMax="693">
      <contour>
        <pt x="58" y="346" on="0"/>
        <pt x="58" y="144" on="0"/>
        <pt x="193" y="0" on="0"/>
        <pt x="385" y="0" on="0"/>
        <pt x="521" y="144" on="0"/>
        <pt x="521" y="346" on="0"/>
        <pt x="385" y="490" on="0"/>
        <pt x="193" y="490" on="0"/>
      </contour>
      <contour>
        <pt x="83" y="154" on="0"/>
        <pt x="83" y="336" on="0"/>
        <pt x="204" y="465" on="0"/>
        <pt x="374" y="465" on="0"/>
        <pt x="496" y="336" on="0"/>
        <pt x="496" y="154" on="0"/>
        <pt x="374" y="25" on="0"/>
        <pt x="204" y="25" on="0"/>
      </contour>
      <contour>
        <pt x="287" y="667" on="1"/>
        <pt x="218" y="591" on="1"/>
        <pt x="200" y="573" on="0"/>
        <pt x="193" y="573" on="1"/>
        <pt x="179" y="575" on="0"/>
        <pt x="179" y="575" on="1"/>
        <pt x="179" y="581" on="0"/>
        <pt x="184" y="587" on="1"/>
        <pt x="256" y="675" on="1"/>
        <pt x="271" y="693" on="0"/>
        <pt x="284" y="693" on="1"/>
        <pt x="292" y="693" on="1"/>
        <pt x="305" y="693" on="0"/>
        <pt x="320" y="675" on="1"/>
        <pt x="392" y="587" on="1"/>
        <pt x="397" y="581" on="0"/>
        <pt x="397" y="575" on="1"/>
        <pt x="397" y="571" on="0"/>
        <pt x="387" y="573" on="0"/>
        <pt x="376" y="573" on="0"/>
        <pt x="357" y="592" on="1"/>
      </contour>
    </TTGlyph>
    <TTGlyph name="odieresis" xMin="58" yMin="0" xMax="521" yMax="638">
      <contour>
        <pt x="58" y="346" on="0"/>
        <pt x="58" y="144" on="0"/>
        <pt x="193" y="0" on="0"/>
        <pt x="385" y="0" on="0"/>
        <pt x="521" y="144" on="0"/>
        <pt x="521" y="346" on="0"/>
        <pt x="385" y="490" on="0"/>
        <pt x="193" y="490" on="0"/>
      </contour>
      <contour>
        <pt x="83" y="154" on="0"/>
        <pt x="83" y="336" on="0"/>
        <pt x="204" y="465" on="0"/>
        <pt x="374" y="465" on="0"/>
        <pt x="496" y="336" on="0"/>
        <pt x="496" y="154" on="0"/>
        <pt x="374" y="25" on="0"/>
        <pt x="204" y="25" on="0"/>
      </contour>
      <contour>
        <pt x="164" y="590" on="0"/>
        <pt x="164" y="618" on="0"/>
        <pt x="184" y="638" on="0"/>
        <pt x="212" y="638" on="0"/>
        <pt x="231" y="618" on="0"/>
        <pt x="231" y="590" on="0"/>
        <pt x="212" y="570" on="0"/>
        <pt x="184" y="570" on="0"/>
      </contour>
      <contour>
        <pt x="346" y="590" on="0"/>
        <pt x="346" y="618" on="0"/>
        <pt x="366" y="638" on="0"/>
        <pt x="394" y="638" on="0"/>
        <pt x="414" y="618" on="0"/>
        <pt x="414" y="590" on="0"/>
        <pt x="394" y="570" on="0"/>
        <pt x="366" y="570" on="0"/>
      </contour>
    </TTGlyph>
    <TTGlyph name="oe" xMin="58" yMin="0" xMax="972" yMax="490">
      <contour>
        <pt x="902" y="61" on="0"/>
        <pt x="797" y="0" on="0"/>
        <pt x="659" y="1" on="0"/>
        <pt x="534" y="99" on="0"/>
        <pt x="511" y="174" on="1"/>
        <pt x="489" y="98" on="0"/>
        <pt x="366" y="0" on="0"/>
        <pt x="289" y="0" on="1"/>
        <pt x="193" y="0" on="0"/>
        <pt x="58" y="144" on="0"/>
        <pt x="58" y="346" on="0"/>
        <pt x="193" y="490" on="0"/>
        <pt x="289" y="490" on="1"/>
        <pt x="366" y="490" on="0"/>
        <pt x="489" y="392" on="0"/>
        <pt x="511" y="316" on="1"/>
        <pt x="534" y="392" on="0"/>
        <pt x="658" y="489" on="0"/>
        <pt x="830" y="489" on="0"/>
        <pt x="965" y="359" on="0"/>
        <pt x="972" y="263" on="1"/>
        <pt x="972" y="259" on="1"/>
        <pt x="970" y="247" on="0"/>
        <pt x="960" y="247" on="1"/>
        <pt x="525" y="247" on="1"/>
        <pt x="525" y="244" on="1"/>
        <pt x="525" y="155" on="0"/>
        <pt x="649" y="26" on="0"/>
        <pt x="737" y="25" on="1"/>
        <pt x="792" y="25" on="0"/>
        <pt x="885" y="79" on="0"/>
        <pt x="913" y="125" on="1"/>
        <pt x="919" y="137" on="0"/>
        <pt x="933" y="126" on="1"/>
        <pt x="940" y="119" on="0"/>
        <pt x="934" y="111" on="1"/>
      </contour>
      <contour>
        <pt x="83" y="336" on="0"/>
        <pt x="83" y="154" on="0"/>
        <pt x="204" y="25" on="0"/>
        <pt x="374" y="25" on="0"/>
        <pt x="496" y="154" on="0"/>
        <pt x="496" y="336" on="0"/>
        <pt x="374" y="465" on="0"/>
        <pt x="204" y="465" on="0"/>
      </contour>
      <contour>
        <pt x="937" y="353" on="0"/>
        <pt x="817" y="463" on="0"/>
        <pt x="656" y="463" on="0"/>
        <pt x="536" y="353" on="0"/>
        <pt x="526" y="271" on="1"/>
        <pt x="947" y="271" on="1"/>
      </contour>
    </TTGlyph>
    <TTGlyph name="ograve" xMin="58" yMin="0" xMax="521" yMax="698">
      <contour>
        <pt x="58" y="346" on="0"/>
        <pt x="58" y="144" on="0"/>
        <pt x="193" y="0" on="0"/>
        <pt x="385" y="0" on="0"/>
        <pt x="521" y="144" on="0"/>
        <pt x="521" y="346" on="0"/>
        <pt x="385" y="490" on="0"/>
        <pt x="193" y="490" on="0"/>
      </contour>
      <contour>
        <pt x="83" y="154" on="0"/>
        <pt x="83" y="336" on="0"/>
        <pt x="204" y="465" on="0"/>
        <pt x="374" y="465" on="0"/>
        <pt x="496" y="336" on="0"/>
        <pt x="496" y="154" on="0"/>
        <pt x="374" y="25" on="0"/>
        <pt x="204" y="25" on="0"/>
      </contour>
      <contour>
        <pt x="343" y="587" on="1"/>
        <pt x="347" y="581" on="0"/>
        <pt x="347" y="570" on="0"/>
        <pt x="324" y="579" on="0"/>
        <pt x="316" y="588" on="1"/>
        <pt x="245" y="665" on="1"/>
        <pt x="232" y="678" on="0"/>
        <pt x="235" y="683" on="1"/>
        <pt x="235" y="698" on="0"/>
        <pt x="269" y="698" on="0"/>
        <pt x="281" y="680" on="1"/>
      </contour>
    </TTGlyph>
    <TTGlyph name="one" xMin="32" yMin="0" xMax="197" yMax="699">
      <contour>
        <pt x="172" y="686" on="1"/>
        <pt x="172" y="691" on="0"/>
        <pt x="180" y="699" on="0"/>
        <pt x="184" y="699" on="1"/>
        <pt x="197" y="699" on="0"/>
        <pt x="197" y="686" on="1"/>
        <pt x="197" y="13" on="1"/>
        <pt x="197" y="0" on="0"/>
        <pt x="184" y="0" on="1"/>
        <pt x="179" y="0" on="0"/>
        <pt x="172" y="8" on="0"/>
        <pt x="172" y="13" on="1"/>
      </contour>
      <contour>
        <pt x="50" y="591" on="1"/>
        <pt x="48" y="590" on="0"/>
        <pt x="35" y="590" on="0"/>
        <pt x="29" y="608" on="0"/>
        <pt x="38" y="613" on="1"/>
        <pt x="178" y="696" on="1"/>
        <pt x="189" y="704" on="0"/>
        <pt x="201" y="681" on="0"/>
        <pt x="190" y="675" on="1"/>
      </contour>
    </TTGlyph>
    <TTGlyph name="oslash" xMin="58" yMin="-11" xMax="521" yMax="490">
      <contour>
        <pt x="81" y="8" on="1"/>
        <pt x="500" y="469" on="1"/>
        <pt x="508" y="477" on="0"/>
        <pt x="527" y="461" on="0"/>
        <pt x="519" y="452" on="1"/>
        <pt x="97" y="-10" on="1"/>
        <pt x="94" y="-18" on="0"/>
        <pt x="80" y="-11" on="1"/>
        <pt x="71" y="-2" on="0"/>
      </contour>
      <contour>
        <pt x="193" y="490" on="0"/>
        <pt x="385" y="490" on="0"/>
        <pt x="521" y="346" on="0"/>
        <pt x="521" y="144" on="0"/>
        <pt x="385" y="0" on="0"/>
        <pt x="193" y="0" on="0"/>
        <pt x="58" y="144" on="0"/>
        <pt x="58" y="346" on="0"/>
      </contour>
      <contour>
        <pt x="204" y="25" on="0"/>
        <pt x="374" y="25" on="0"/>
        <pt x="496" y="154" on="0"/>
        <pt x="496" y="336" on="0"/>
        <pt x="374" y="465" on="0"/>
        <pt x="204" y="465" on="0"/>
        <pt x="83" y="336" on="0"/>
        <pt x="83" y="154" on="0"/>
      </contour>
    </TTGlyph>
    <TTGlyph name="otilde" xMin="58" yMin="0" xMax="521" yMax="679">
      <contour>
        <pt x="58" y="346" on="0"/>
        <pt x="58" y="144" on="0"/>
        <pt x="193" y="0" on="0"/>
        <pt x="385" y="0" on="0"/>
        <pt x="521" y="144" on="0"/>
        <pt x="521" y="346" on="0"/>
        <pt x="385" y="490" on="0"/>
        <pt x="193" y="490" on="0"/>
      </contour>
      <contour>
        <pt x="83" y="154" on="0"/>
        <pt x="83" y="336" on="0"/>
        <pt x="204" y="465" on="0"/>
        <pt x="374" y="465" on="0"/>
        <pt x="496" y="336" on="0"/>
        <pt x="496" y="154" on="0"/>
        <pt x="374" y="25" on="0"/>
        <pt x="204" y="25" on="0"/>
      </contour>
      <contour>
        <pt x="177" y="582" on="1"/>
        <pt x="171" y="570" on="0"/>
        <pt x="161" y="570" on="1"/>
        <pt x="145" y="570" on="0"/>
        <pt x="145" y="583" on="1"/>
        <pt x="145" y="585" on="0"/>
        <pt x="156" y="620" on="0"/>
        <pt x="204" y="657" on="0"/>
        <pt x="244" y="657" on="0"/>
        <pt x="337" y="619" on="0"/>
        <pt x="353" y="619" on="1"/>
        <pt x="384" y="619" on="0"/>
        <pt x="403" y="662" on="1"/>
        <pt x="403" y="670" on="0"/>
        <pt x="412" y="679" on="0"/>
        <pt x="416" y="679" on="1"/>
        <pt x="434" y="679" on="0"/>
        <pt x="434" y="662" on="1"/>
        <pt x="434" y="656" on="0"/>
        <pt x="432" y="650" on="1"/>
        <pt x="410" y="582" on="0"/>
        <pt x="353" y="582" on="1"/>
        <pt x="335" y="582" on="0"/>
        <pt x="243" y="621" on="0"/>
        <pt x="225" y="621" on="1"/>
        <pt x="194" y="621" on="0"/>
      </contour>
    </TTGlyph>
    <TTGlyph name="p" xMin="93" yMin="-214" xMax="563" yMax="490">
      <contour>
        <pt x="93" y="-201" on="1"/>
        <pt x="93" y="477" on="1"/>
        <pt x="93" y="490" on="0"/>
        <pt x="118" y="490" on="0"/>
        <pt x="118" y="477" on="1"/>
        <pt x="118" y="356" on="1"/>
        <pt x="147" y="417" on="0"/>
        <pt x="260" y="490" on="0"/>
        <pt x="327" y="490" on="1"/>
        <pt x="426" y="490" on="0"/>
        <pt x="563" y="349" on="0"/>
        <pt x="563" y="147" on="0"/>
        <pt x="426" y="5" on="0"/>
        <pt x="327" y="5" on="1"/>
        <pt x="260" y="5" on="0"/>
        <pt x="147" y="78" on="0"/>
        <pt x="118" y="138" on="1"/>
        <pt x="118" y="-201" on="1"/>
        <pt x="118" y="-214" on="0"/>
        <pt x="93" y="-214" on="0"/>
      </contour>
      <contour>
        <pt x="118" y="257" on="1"/>
        <pt x="118" y="248" on="1"/>
        <pt x="118" y="158" on="0"/>
        <pt x="241" y="31" on="0"/>
        <pt x="413" y="31" on="0"/>
        <pt x="537" y="158" on="0"/>
        <pt x="537" y="337" on="0"/>
        <pt x="413" y="465" on="0"/>
        <pt x="244" y="465" on="0"/>
        <pt x="121" y="343" on="0"/>
      </contour>
    </TTGlyph>
    <TTGlyph name="parenleft" xMin="71" yMin="-97" xMax="301" yMax="703">
      <contour>
        <pt x="286" y="-97" on="1"/>
        <pt x="174" y="-97" on="0"/>
        <pt x="119" y="25" on="1"/>
        <pt x="71" y="130" on="0"/>
        <pt x="71" y="476" on="0"/>
        <pt x="119" y="582" on="1"/>
        <pt x="174" y="704" on="0"/>
        <pt x="286" y="703" on="1"/>
        <pt x="301" y="703" on="0"/>
        <pt x="301" y="689" on="1"/>
        <pt x="301" y="683" on="0"/>
        <pt x="292" y="674" on="0"/>
        <pt x="286" y="674" on="1"/>
        <pt x="194" y="674" on="0"/>
        <pt x="100" y="471" on="0"/>
        <pt x="100" y="135" on="0"/>
        <pt x="195" y="-68" on="0"/>
        <pt x="286" y="-68" on="1"/>
        <pt x="301" y="-68" on="0"/>
        <pt x="301" y="-82" on="1"/>
        <pt x="301" y="-88" on="0"/>
        <pt x="292" y="-97" on="0"/>
      </contour>
    </TTGlyph>
    <TTGlyph name="parenright" xMin="60" yMin="-97" xMax="290" yMax="703">
      <contour>
        <pt x="242" y="25" on="1"/>
        <pt x="187" y="-97" on="0"/>
        <pt x="75" y="-97" on="1"/>
        <pt x="69" y="-97" on="0"/>
        <pt x="60" y="-88" on="0"/>
        <pt x="60" y="-82" on="1"/>
        <pt x="60" y="-68" on="0"/>
        <pt x="75" y="-68" on="1"/>
        <pt x="166" y="-68" on="0"/>
        <pt x="261" y="135" on="0"/>
        <pt x="261" y="471" on="0"/>
        <pt x="167" y="674" on="0"/>
        <pt x="75" y="674" on="1"/>
        <pt x="69" y="674" on="0"/>
        <pt x="60" y="683" on="0"/>
        <pt x="60" y="689" on="1"/>
        <pt x="60" y="703" on="0"/>
        <pt x="75" y="703" on="1"/>
        <pt x="187" y="704" on="0"/>
        <pt x="242" y="582" on="1"/>
        <pt x="290" y="476" on="0"/>
        <pt x="290" y="130" on="0"/>
      </contour>
    </TTGlyph>
    <TTGlyph name="percent" xMin="55" yMin="-8" xMax="769" yMax="708">
      <contour>
        <pt x="363" y="456" on="0"/>
        <pt x="276" y="350" on="0"/>
        <pt x="141" y="350" on="0"/>
        <pt x="55" y="455" on="0"/>
        <pt x="55" y="527" on="1"/>
        <pt x="55" y="529" on="1"/>
        <pt x="55" y="602" on="0"/>
        <pt x="142" y="708" on="0"/>
        <pt x="277" y="708" on="0"/>
        <pt x="363" y="603" on="0"/>
        <pt x="363" y="531" on="1"/>
        <pt x="363" y="529" on="1"/>
      </contour>
      <contour>
        <pt x="154" y="13" on="1"/>
        <pt x="165" y="30" on="1"/>
        <pt x="652" y="693" on="1"/>
        <pt x="657" y="700" on="0"/>
        <pt x="662" y="700" on="1"/>
        <pt x="670" y="700" on="0"/>
        <pt x="673" y="690" on="0"/>
        <pt x="659" y="670" on="1"/>
        <pt x="172" y="8" on="1"/>
        <pt x="167" y="3" on="0"/>
        <pt x="157" y="3" on="0"/>
        <pt x="153" y="10" on="0"/>
      </contour>
      <contour>
        <pt x="769" y="98" on="0"/>
        <pt x="682" y="-8" on="0"/>
        <pt x="547" y="-8" on="0"/>
        <pt x="461" y="97" on="0"/>
        <pt x="461" y="169" on="1"/>
        <pt x="461" y="171" on="1"/>
        <pt x="461" y="244" on="0"/>
        <pt x="548" y="350" on="0"/>
        <pt x="683" y="350" on="0"/>
        <pt x="769" y="245" on="0"/>
        <pt x="769" y="173" on="1"/>
        <pt x="769" y="171" on="1"/>
      </contour>
      <contour>
        <pt x="79" y="458" on="0"/>
        <pt x="157" y="362" on="0"/>
        <pt x="265" y="362" on="0"/>
        <pt x="339" y="457" on="0"/>
        <pt x="339" y="527" on="1"/>
        <pt x="339" y="529" on="1"/>
        <pt x="339" y="600" on="0"/>
        <pt x="261" y="696" on="0"/>
        <pt x="154" y="696" on="0"/>
        <pt x="79" y="599" on="0"/>
        <pt x="79" y="531" on="1"/>
        <pt x="79" y="529" on="1"/>
      </contour>
      <contour>
        <pt x="484" y="101" on="0"/>
        <pt x="564" y="5" on="0"/>
        <pt x="670" y="5" on="0"/>
        <pt x="746" y="100" on="0"/>
        <pt x="746" y="169" on="1"/>
        <pt x="746" y="171" on="1"/>
        <pt x="746" y="241" on="0"/>
        <pt x="666" y="337" on="0"/>
        <pt x="560" y="337" on="0"/>
        <pt x="484" y="240" on="0"/>
        <pt x="484" y="173" on="1"/>
        <pt x="484" y="171" on="1"/>
      </contour>
    </TTGlyph>
    <TTGlyph name="period" xMin="82" yMin="-8" xMax="150" yMax="60">
      <contour>
        <pt x="82" y="12" on="0"/>
        <pt x="82" y="40" on="0"/>
        <pt x="102" y="60" on="0"/>
        <pt x="130" y="60" on="0"/>
        <pt x="150" y="40" on="0"/>
        <pt x="150" y="12" on="0"/>
        <pt x="130" y="-8" on="0"/>
        <pt x="102" y="-8" on="0"/>
      </contour>
    </TTGlyph>
    <TTGlyph name="plus" xMin="64" yMin="98" xMax="557" yMax="591">
      <contour>
        <pt x="293" y="116" on="1"/>
        <pt x="293" y="327" on="1"/>
        <pt x="82" y="327" on="1"/>
        <pt x="64" y="327" on="0"/>
        <pt x="64" y="362" on="0"/>
        <pt x="82" y="362" on="1"/>
        <pt x="293" y="362" on="1"/>
        <pt x="293" y="574" on="1"/>
        <pt x="293" y="591" on="0"/>
        <pt x="311" y="591" on="1"/>
        <pt x="317" y="591" on="0"/>
        <pt x="328" y="581" on="0"/>
        <pt x="328" y="574" on="1"/>
        <pt x="328" y="362" on="1"/>
        <pt x="540" y="362" on="1"/>
        <pt x="546" y="362" on="0"/>
        <pt x="557" y="352" on="0"/>
        <pt x="557" y="338" on="0"/>
        <pt x="546" y="327" on="0"/>
        <pt x="540" y="327" on="1"/>
        <pt x="328" y="327" on="1"/>
        <pt x="328" y="116" on="1"/>
        <pt x="328" y="109" on="0"/>
        <pt x="317" y="98" on="0"/>
        <pt x="311" y="98" on="1"/>
        <pt x="293" y="98" on="0"/>
      </contour>
    </TTGlyph>
    <TTGlyph name="q" xMin="60" yMin="-214" xMax="530" yMax="490">
      <contour>
        <pt x="530" y="-201" on="1"/>
        <pt x="530" y="-214" on="0"/>
        <pt x="505" y="-214" on="0"/>
        <pt x="505" y="-201" on="1"/>
        <pt x="505" y="138" on="1"/>
        <pt x="476" y="78" on="0"/>
        <pt x="363" y="5" on="0"/>
        <pt x="296" y="5" on="1"/>
        <pt x="197" y="5" on="0"/>
        <pt x="60" y="147" on="0"/>
        <pt x="60" y="349" on="0"/>
        <pt x="197" y="490" on="0"/>
        <pt x="296" y="490" on="1"/>
        <pt x="363" y="490" on="0"/>
        <pt x="476" y="417" on="0"/>
        <pt x="505" y="356" on="1"/>
        <pt x="505" y="477" on="1"/>
        <pt x="505" y="490" on="0"/>
        <pt x="530" y="490" on="0"/>
        <pt x="530" y="477" on="1"/>
      </contour>
      <contour>
        <pt x="505" y="248" on="1"/>
        <pt x="505" y="257" on="1"/>
        <pt x="502" y="343" on="0"/>
        <pt x="379" y="465" on="0"/>
        <pt x="210" y="465" on="0"/>
        <pt x="86" y="337" on="0"/>
        <pt x="86" y="158" on="0"/>
        <pt x="210" y="31" on="0"/>
        <pt x="382" y="31" on="0"/>
        <pt x="505" y="158" on="0"/>
      </contour>
    </TTGlyph>
    <TTGlyph name="question" xMin="41" yMin="0" xMax="435" yMax="700">
      <contour>
        <pt x="212" y="155" on="1"/>
        <pt x="212" y="289" on="1"/>
        <pt x="212" y="301" on="0"/>
        <pt x="224" y="301" on="1"/>
        <pt x="300" y="301" on="0"/>
        <pt x="410" y="411" on="0"/>
        <pt x="410" y="566" on="0"/>
        <pt x="301" y="676" on="0"/>
        <pt x="224" y="676" on="1"/>
        <pt x="172" y="676" on="0"/>
        <pt x="86" y="625" on="0"/>
        <pt x="61" y="582" on="1"/>
        <pt x="53" y="572" on="0"/>
        <pt x="35" y="587" on="0"/>
        <pt x="41" y="594" on="1"/>
        <pt x="68" y="643" on="0"/>
        <pt x="166" y="700" on="0"/>
        <pt x="224" y="700" on="1"/>
        <pt x="310" y="700" on="0"/>
        <pt x="435" y="576" on="0"/>
        <pt x="435" y="404" on="0"/>
        <pt x="318" y="282" on="0"/>
        <pt x="236" y="277" on="1"/>
        <pt x="236" y="155" on="1"/>
        <pt x="236" y="150" on="0"/>
        <pt x="228" y="143" on="0"/>
        <pt x="224" y="143" on="1"/>
        <pt x="212" y="143" on="0"/>
      </contour>
      <contour>
        <pt x="212" y="12" on="1"/>
        <pt x="212" y="35" on="1"/>
        <pt x="212" y="47" on="0"/>
        <pt x="224" y="47" on="1"/>
        <pt x="228" y="47" on="0"/>
        <pt x="236" y="40" on="0"/>
        <pt x="236" y="35" on="1"/>
        <pt x="236" y="12" on="1"/>
        <pt x="236" y="0" on="0"/>
        <pt x="212" y="0" on="0"/>
      </contour>
    </TTGlyph>
    <TTGlyph name="questiondown" xMin="56" yMin="0" xMax="450" yMax="700">
      <contour>
        <pt x="227" y="545" on="1"/>
        <pt x="227" y="557" on="0"/>
        <pt x="239" y="557" on="1"/>
        <pt x="244" y="557" on="0"/>
        <pt x="251" y="550" on="0"/>
        <pt x="251" y="545" on="1"/>
        <pt x="251" y="423" on="1"/>
        <pt x="333" y="418" on="0"/>
        <pt x="450" y="296" on="0"/>
        <pt x="450" y="124" on="0"/>
        <pt x="326" y="0" on="0"/>
        <pt x="239" y="0" on="1"/>
        <pt x="181" y="0" on="0"/>
        <pt x="83" y="57" on="0"/>
        <pt x="56" y="106" on="1"/>
        <pt x="48" y="116" on="0"/>
        <pt x="70" y="126" on="0"/>
        <pt x="76" y="118" on="1"/>
        <pt x="101" y="75" on="0"/>
        <pt x="187" y="24" on="0"/>
        <pt x="239" y="24" on="1"/>
        <pt x="316" y="24" on="0"/>
        <pt x="425" y="134" on="0"/>
        <pt x="425" y="289" on="0"/>
        <pt x="315" y="399" on="0"/>
        <pt x="239" y="399" on="1"/>
        <pt x="227" y="399" on="0"/>
        <pt x="227" y="411" on="1"/>
      </contour>
      <contour>
        <pt x="227" y="688" on="1"/>
        <pt x="227" y="700" on="0"/>
        <pt x="251" y="700" on="0"/>
        <pt x="251" y="688" on="1"/>
        <pt x="251" y="665" on="1"/>
        <pt x="251" y="660" on="0"/>
        <pt x="244" y="653" on="0"/>
        <pt x="239" y="653" on="1"/>
        <pt x="227" y="653" on="0"/>
        <pt x="227" y="665" on="1"/>
      </contour>
    </TTGlyph>
    <TTGlyph name="quotedbl" xMin="70" yMin="442" xMax="343" yMax="702">
      <contour>
        <pt x="250" y="461" on="1"/>
        <pt x="280" y="676" on="1"/>
        <pt x="284" y="702" on="0"/>
        <pt x="308" y="702" on="1"/>
        <pt x="327" y="702" on="1"/>
        <pt x="343" y="702" on="0"/>
        <pt x="343" y="685" on="1"/>
        <pt x="343" y="684" on="0"/>
        <pt x="338" y="661" on="1"/>
        <pt x="281" y="460" on="1"/>
        <pt x="275" y="442" on="0"/>
        <pt x="264" y="442" on="1"/>
        <pt x="247" y="442" on="0"/>
      </contour>
      <contour>
        <pt x="70" y="461" on="1"/>
        <pt x="100" y="676" on="1"/>
        <pt x="104" y="702" on="0"/>
        <pt x="128" y="702" on="1"/>
        <pt x="147" y="702" on="1"/>
        <pt x="163" y="702" on="0"/>
        <pt x="163" y="685" on="1"/>
        <pt x="163" y="684" on="0"/>
        <pt x="158" y="661" on="1"/>
        <pt x="101" y="460" on="1"/>
        <pt x="95" y="442" on="0"/>
        <pt x="84" y="442" on="1"/>
        <pt x="67" y="442" on="0"/>
      </contour>
    </TTGlyph>
    <TTGlyph name="quotedblbase" xMin="54" yMin="-105" xMax="328" yMax="89">
      <contour>
        <pt x="54" y="-90" on="1"/>
        <pt x="54" y="-82" on="0"/>
        <pt x="62" y="-77" on="1"/>
        <pt x="113" y="-49" on="0"/>
        <pt x="109" y="0" on="1"/>
        <pt x="82" y="7" on="0"/>
        <pt x="82" y="35" on="1"/>
        <pt x="82" y="56" on="1"/>
        <pt x="82" y="70" on="0"/>
        <pt x="101" y="89" on="0"/>
        <pt x="129" y="89" on="0"/>
        <pt x="148" y="70" on="0"/>
        <pt x="148" y="56" on="1"/>
        <pt x="148" y="31" on="1"/>
        <pt x="148" y="-46" on="0"/>
        <pt x="89" y="-105" on="0"/>
        <pt x="54" y="-105" on="0"/>
      </contour>
      <contour>
        <pt x="234" y="-90" on="1"/>
        <pt x="234" y="-82" on="0"/>
        <pt x="242" y="-77" on="1"/>
        <pt x="293" y="-49" on="0"/>
        <pt x="289" y="0" on="1"/>
        <pt x="262" y="7" on="0"/>
        <pt x="262" y="35" on="1"/>
        <pt x="262" y="56" on="1"/>
        <pt x="262" y="70" on="0"/>
        <pt x="282" y="89" on="0"/>
        <pt x="308" y="89" on="0"/>
        <pt x="328" y="70" on="0"/>
        <pt x="328" y="56" on="1"/>
        <pt x="328" y="31" on="1"/>
        <pt x="328" y="-46" on="0"/>
        <pt x="269" y="-105" on="0"/>
        <pt x="234" y="-105" on="0"/>
      </contour>
    </TTGlyph>
    <TTGlyph name="quotedblleft" xMin="77" yMin="509" xMax="351" yMax="703">
      <contour>
        <pt x="351" y="688" on="1"/>
        <pt x="351" y="680" on="0"/>
        <pt x="343" y="675" on="1"/>
        <pt x="292" y="647" on="0"/>
        <pt x="296" y="598" on="1"/>
        <pt x="323" y="591" on="0"/>
        <pt x="323" y="563" on="1"/>
        <pt x="323" y="542" on="1"/>
        <pt x="323" y="528" on="0"/>
        <pt x="304" y="509" on="0"/>
        <pt x="276" y="509" on="0"/>
        <pt x="257" y="528" on="0"/>
        <pt x="257" y="542" on="1"/>
        <pt x="257" y="567" on="1"/>
        <pt x="257" y="644" on="0"/>
        <pt x="316" y="703" on="0"/>
        <pt x="351" y="703" on="0"/>
      </contour>
      <contour>
        <pt x="171" y="688" on="1"/>
        <pt x="171" y="680" on="0"/>
        <pt x="163" y="675" on="1"/>
        <pt x="112" y="647" on="0"/>
        <pt x="116" y="598" on="1"/>
        <pt x="143" y="591" on="0"/>
        <pt x="143" y="563" on="1"/>
        <pt x="143" y="542" on="1"/>
        <pt x="143" y="528" on="0"/>
        <pt x="124" y="509" on="0"/>
        <pt x="96" y="509" on="0"/>
        <pt x="77" y="528" on="0"/>
        <pt x="77" y="542" on="1"/>
        <pt x="77" y="567" on="1"/>
        <pt x="77" y="644" on="0"/>
        <pt x="136" y="703" on="0"/>
        <pt x="171" y="703" on="0"/>
      </contour>
    </TTGlyph>
    <TTGlyph name="quotedblright" xMin="59" yMin="510" xMax="333" yMax="704">
      <contour>
        <pt x="59" y="525" on="1"/>
        <pt x="59" y="533" on="0"/>
        <pt x="67" y="538" on="1"/>
        <pt x="118" y="566" on="0"/>
        <pt x="114" y="615" on="1"/>
        <pt x="87" y="622" on="0"/>
        <pt x="87" y="650" on="1"/>
        <pt x="87" y="671" on="1"/>
        <pt x="87" y="684" on="0"/>
        <pt x="106" y="704" on="0"/>
        <pt x="134" y="704" on="0"/>
        <pt x="153" y="684" on="0"/>
        <pt x="153" y="671" on="1"/>
        <pt x="153" y="646" on="1"/>
        <pt x="153" y="569" on="0"/>
        <pt x="94" y="510" on="0"/>
        <pt x="59" y="510" on="0"/>
      </contour>
      <contour>
        <pt x="239" y="525" on="1"/>
        <pt x="239" y="533" on="0"/>
        <pt x="247" y="538" on="1"/>
        <pt x="298" y="566" on="0"/>
        <pt x="294" y="615" on="1"/>
        <pt x="267" y="622" on="0"/>
        <pt x="267" y="650" on="1"/>
        <pt x="267" y="671" on="1"/>
        <pt x="267" y="684" on="0"/>
        <pt x="286" y="704" on="0"/>
        <pt x="314" y="704" on="0"/>
        <pt x="333" y="684" on="0"/>
        <pt x="333" y="671" on="1"/>
        <pt x="333" y="646" on="1"/>
        <pt x="333" y="569" on="0"/>
        <pt x="274" y="510" on="0"/>
        <pt x="239" y="510" on="0"/>
      </contour>
    </TTGlyph>
    <TTGlyph name="quoteleft" xMin="77" yMin="509" xMax="171" yMax="703">
      <contour>
        <pt x="171" y="688" on="1"/>
        <pt x="171" y="680" on="0"/>
        <pt x="163" y="675" on="1"/>
        <pt x="112" y="647" on="0"/>
        <pt x="116" y="598" on="1"/>
        <pt x="143" y="591" on="0"/>
        <pt x="143" y="563" on="1"/>
        <pt x="143" y="542" on="1"/>
        <pt x="143" y="528" on="0"/>
        <pt x="124" y="509" on="0"/>
        <pt x="96" y="509" on="0"/>
        <pt x="77" y="528" on="0"/>
        <pt x="77" y="542" on="1"/>
        <pt x="77" y="567" on="1"/>
        <pt x="77" y="644" on="0"/>
        <pt x="136" y="703" on="0"/>
        <pt x="171" y="703" on="0"/>
      </contour>
    </TTGlyph>
    <TTGlyph name="quoteright" xMin="59" yMin="510" xMax="153" yMax="704">
      <contour>
        <pt x="59" y="525" on="1"/>
        <pt x="59" y="533" on="0"/>
        <pt x="67" y="538" on="1"/>
        <pt x="118" y="566" on="0"/>
        <pt x="114" y="615" on="1"/>
        <pt x="87" y="622" on="0"/>
        <pt x="87" y="650" on="1"/>
        <pt x="87" y="671" on="1"/>
        <pt x="87" y="684" on="0"/>
        <pt x="106" y="704" on="0"/>
        <pt x="134" y="704" on="0"/>
        <pt x="153" y="684" on="0"/>
        <pt x="153" y="671" on="1"/>
        <pt x="153" y="646" on="1"/>
        <pt x="153" y="569" on="0"/>
        <pt x="94" y="510" on="0"/>
        <pt x="59" y="510" on="0"/>
      </contour>
    </TTGlyph>
    <TTGlyph name="quotesingle" xMin="70" yMin="442" xMax="163" yMax="702">
      <contour>
        <pt x="70" y="461" on="1"/>
        <pt x="100" y="676" on="1"/>
        <pt x="104" y="702" on="0"/>
        <pt x="128" y="702" on="1"/>
        <pt x="147" y="702" on="1"/>
        <pt x="163" y="702" on="0"/>
        <pt x="163" y="685" on="1"/>
        <pt x="163" y="684" on="0"/>
        <pt x="158" y="661" on="1"/>
        <pt x="101" y="460" on="1"/>
        <pt x="95" y="442" on="0"/>
        <pt x="84" y="442" on="1"/>
        <pt x="67" y="442" on="0"/>
      </contour>
    </TTGlyph>
    <TTGlyph name="r" xMin="94" yMin="0" xMax="357" yMax="490">
      <contour>
        <pt x="344" y="464" on="1"/>
        <pt x="196" y="464" on="0"/>
        <pt x="118" y="242" on="1"/>
        <pt x="118" y="13" on="1"/>
        <pt x="118" y="0" on="0"/>
        <pt x="94" y="0" on="0"/>
        <pt x="94" y="13" on="1"/>
        <pt x="94" y="242" on="1"/>
        <pt x="93" y="244" on="0"/>
        <pt x="94" y="248" on="1"/>
        <pt x="94" y="477" on="1"/>
        <pt x="94" y="482" on="0"/>
        <pt x="101" y="490" on="0"/>
        <pt x="106" y="490" on="1"/>
        <pt x="118" y="490" on="0"/>
        <pt x="118" y="477" on="1"/>
        <pt x="118" y="311" on="1"/>
        <pt x="132" y="344" on="0"/>
        <pt x="149" y="369" on="1"/>
        <pt x="230" y="490" on="0"/>
        <pt x="344" y="490" on="1"/>
        <pt x="357" y="490" on="0"/>
        <pt x="357" y="464" on="0"/>
      </contour>
    </TTGlyph>
    <TTGlyph name="registered" xMin="34" yMin="360" xMax="382" yMax="710">
      <contour>
        <pt x="382" y="463" on="0"/>
        <pt x="280" y="360" on="0"/>
        <pt x="135" y="360" on="0"/>
        <pt x="34" y="462" on="0"/>
        <pt x="34" y="534" on="1"/>
        <pt x="34" y="535" on="1"/>
        <pt x="34" y="607" on="0"/>
        <pt x="136" y="710" on="0"/>
        <pt x="281" y="710" on="0"/>
        <pt x="382" y="608" on="0"/>
        <pt x="382" y="536" on="1"/>
        <pt x="382" y="535" on="1"/>
      </contour>
      <contour>
        <pt x="44" y="465" on="0"/>
        <pt x="138" y="369" on="0"/>
        <pt x="277" y="369" on="0"/>
        <pt x="372" y="466" on="0"/>
        <pt x="372" y="535" on="1"/>
        <pt x="372" y="536" on="1"/>
        <pt x="372" y="605" on="0"/>
        <pt x="278" y="701" on="0"/>
        <pt x="139" y="701" on="0"/>
        <pt x="44" y="604" on="0"/>
        <pt x="44" y="535" on="1"/>
        <pt x="44" y="534" on="1"/>
      </contour>
      <contour>
        <pt x="260" y="471" on="1"/>
        <pt x="260" y="425" on="0"/>
        <pt x="279" y="425" on="1"/>
        <pt x="284" y="425" on="0"/>
        <pt x="284" y="430" on="1"/>
        <pt x="282" y="433" on="0"/>
        <pt x="279" y="433" on="1"/>
        <pt x="269" y="433" on="0"/>
        <pt x="269" y="491" on="0"/>
        <pt x="244" y="520" on="0"/>
        <pt x="227" y="524" on="1"/>
        <pt x="247" y="530" on="0"/>
        <pt x="272" y="563" on="0"/>
        <pt x="272" y="611" on="0"/>
        <pt x="236" y="648" on="0"/>
        <pt x="210" y="648" on="1"/>
        <pt x="143" y="648" on="1"/>
        <pt x="139" y="648" on="0"/>
        <pt x="139" y="644" on="1"/>
        <pt x="139" y="426" on="1"/>
        <pt x="139" y="421" on="0"/>
        <pt x="148" y="421" on="0"/>
        <pt x="148" y="426" on="1"/>
        <pt x="148" y="522" on="1"/>
        <pt x="209" y="522" on="1"/>
        <pt x="260" y="509" on="0"/>
      </contour>
      <contour>
        <pt x="148" y="531" on="1"/>
        <pt x="148" y="639" on="1"/>
        <pt x="210" y="639" on="1"/>
        <pt x="233" y="639" on="0"/>
        <pt x="265" y="608" on="0"/>
        <pt x="265" y="563" on="0"/>
        <pt x="233" y="531" on="0"/>
        <pt x="210" y="531" on="1"/>
      </contour>
    </TTGlyph>
    <TTGlyph name="s" xMin="63" yMin="0" xMax="439" yMax="500">
      <contour>
        <pt x="251" y="0" on="1"/>
        <pt x="205" y="0" on="0"/>
        <pt x="158" y="18" on="1"/>
        <pt x="95" y="43" on="0"/>
        <pt x="67" y="71" on="1"/>
        <pt x="61" y="77" on="0"/>
        <pt x="66" y="91" on="0"/>
        <pt x="78" y="95" on="0"/>
        <pt x="90" y="84" on="0"/>
        <pt x="123" y="60" on="0"/>
        <pt x="209" y="25" on="0"/>
        <pt x="251" y="25" on="1"/>
        <pt x="318" y="25" on="0"/>
        <pt x="413" y="93" on="0"/>
        <pt x="413" y="141" on="1"/>
        <pt x="413" y="179" on="0"/>
        <pt x="390" y="199" on="1"/>
        <pt x="365" y="221" on="0"/>
        <pt x="339" y="230" on="1"/>
        <pt x="304" y="241" on="0"/>
        <pt x="230" y="258" on="0"/>
        <pt x="199" y="266" on="0"/>
        <pt x="144" y="289" on="0"/>
        <pt x="131" y="301" on="1"/>
        <pt x="96" y="333" on="0"/>
        <pt x="96" y="430" on="0"/>
        <pt x="187" y="500" on="0"/>
        <pt x="295" y="500" on="0"/>
        <pt x="333" y="484" on="1"/>
        <pt x="387" y="462" on="0"/>
        <pt x="402" y="440" on="1"/>
        <pt x="407" y="435" on="0"/>
        <pt x="401" y="421" on="0"/>
        <pt x="388" y="418" on="0"/>
        <pt x="383" y="423" on="1"/>
        <pt x="332" y="474" on="0"/>
        <pt x="251" y="474" on="1"/>
        <pt x="198" y="474" on="0"/>
        <pt x="122" y="420" on="0"/>
        <pt x="122" y="381" on="1"/>
        <pt x="122" y="330" on="0"/>
        <pt x="168" y="308" on="1"/>
        <pt x="204" y="290" on="0"/>
        <pt x="301" y="268" on="0"/>
        <pt x="336" y="258" on="0"/>
        <pt x="389" y="237" on="0"/>
        <pt x="403" y="224" on="1"/>
        <pt x="439" y="191" on="0"/>
        <pt x="439" y="82" on="0"/>
        <pt x="330" y="0" on="0"/>
      </contour>
    </TTGlyph>
    <TTGlyph name="scaron" xMin="63" yMin="0" xMax="439" yMax="663">
      <contour>
        <pt x="180" y="644" on="1"/>
        <pt x="249" y="568" on="1"/>
        <pt x="319" y="643" on="1"/>
        <pt x="338" y="662" on="0"/>
        <pt x="346" y="662" on="1"/>
        <pt x="359" y="660" on="0"/>
        <pt x="359" y="660" on="1"/>
        <pt x="359" y="654" on="0"/>
        <pt x="354" y="648" on="1"/>
        <pt x="282" y="560" on="1"/>
        <pt x="267" y="542" on="0"/>
        <pt x="254" y="542" on="1"/>
        <pt x="246" y="542" on="1"/>
        <pt x="233" y="542" on="0"/>
        <pt x="218" y="560" on="1"/>
        <pt x="146" y="648" on="1"/>
        <pt x="141" y="654" on="0"/>
        <pt x="141" y="662" on="0"/>
        <pt x="144" y="663" on="0"/>
        <pt x="153" y="662" on="0"/>
        <pt x="162" y="662" on="0"/>
      </contour>
      <contour>
        <pt x="251" y="0" on="1"/>
        <pt x="205" y="0" on="0"/>
        <pt x="158" y="18" on="1"/>
        <pt x="95" y="43" on="0"/>
        <pt x="67" y="71" on="1"/>
        <pt x="61" y="77" on="0"/>
        <pt x="66" y="91" on="0"/>
        <pt x="78" y="95" on="0"/>
        <pt x="90" y="84" on="0"/>
        <pt x="123" y="60" on="0"/>
        <pt x="209" y="25" on="0"/>
        <pt x="251" y="25" on="1"/>
        <pt x="318" y="25" on="0"/>
        <pt x="413" y="93" on="0"/>
        <pt x="413" y="141" on="1"/>
        <pt x="413" y="179" on="0"/>
        <pt x="390" y="199" on="1"/>
        <pt x="365" y="221" on="0"/>
        <pt x="339" y="230" on="1"/>
        <pt x="304" y="241" on="0"/>
        <pt x="230" y="258" on="0"/>
        <pt x="199" y="266" on="0"/>
        <pt x="144" y="289" on="0"/>
        <pt x="131" y="301" on="1"/>
        <pt x="96" y="333" on="0"/>
        <pt x="96" y="430" on="0"/>
        <pt x="187" y="500" on="0"/>
        <pt x="295" y="500" on="0"/>
        <pt x="333" y="484" on="1"/>
        <pt x="387" y="462" on="0"/>
        <pt x="402" y="440" on="1"/>
        <pt x="407" y="435" on="0"/>
        <pt x="401" y="421" on="0"/>
        <pt x="388" y="418" on="0"/>
        <pt x="383" y="423" on="1"/>
        <pt x="332" y="474" on="0"/>
        <pt x="251" y="474" on="1"/>
        <pt x="198" y="474" on="0"/>
        <pt x="122" y="420" on="0"/>
        <pt x="122" y="381" on="1"/>
        <pt x="122" y="330" on="0"/>
        <pt x="168" y="308" on="1"/>
        <pt x="204" y="290" on="0"/>
        <pt x="301" y="268" on="0"/>
        <pt x="336" y="258" on="0"/>
        <pt x="389" y="237" on="0"/>
        <pt x="403" y="224" on="1"/>
        <pt x="439" y="191" on="0"/>
        <pt x="439" y="82" on="0"/>
        <pt x="330" y="0" on="0"/>
      </contour>
    </TTGlyph>
    <TTGlyph name="semicolon" xMin="59" yMin="-105" xMax="153" yMax="514">
      <contour>
        <pt x="87" y="481" on="1"/>
        <pt x="87" y="495" on="0"/>
        <pt x="106" y="514" on="0"/>
        <pt x="134" y="514" on="0"/>
        <pt x="153" y="495" on="0"/>
        <pt x="153" y="481" on="1"/>
        <pt x="153" y="454" on="1"/>
        <pt x="153" y="440" on="0"/>
        <pt x="134" y="421" on="0"/>
        <pt x="106" y="421" on="0"/>
        <pt x="87" y="440" on="0"/>
        <pt x="87" y="454" on="1"/>
      </contour>
      <contour>
        <pt x="59" y="-90" on="1"/>
        <pt x="59" y="-82" on="0"/>
        <pt x="67" y="-77" on="1"/>
        <pt x="118" y="-49" on="0"/>
        <pt x="114" y="0" on="1"/>
        <pt x="87" y="7" on="0"/>
        <pt x="87" y="35" on="1"/>
        <pt x="87" y="56" on="1"/>
        <pt x="87" y="70" on="0"/>
        <pt x="106" y="89" on="0"/>
        <pt x="134" y="89" on="0"/>
        <pt x="153" y="70" on="0"/>
        <pt x="153" y="56" on="1"/>
        <pt x="153" y="31" on="1"/>
        <pt x="153" y="-46" on="0"/>
        <pt x="94" y="-105" on="0"/>
        <pt x="59" y="-105" on="0"/>
      </contour>
    </TTGlyph>
    <TTGlyph name="seven" xMin="64" yMin="0" xMax="480" yMax="699">
      <contour>
        <pt x="194" y="8" on="1"/>
        <pt x="192" y="0" on="0"/>
        <pt x="179" y="1" on="0"/>
        <pt x="178" y="1" on="1"/>
        <pt x="167" y="6" on="0"/>
        <pt x="171" y="18" on="1"/>
        <pt x="446" y="673" on="1"/>
        <pt x="77" y="673" on="1"/>
        <pt x="64" y="673" on="0"/>
        <pt x="64" y="686" on="1"/>
        <pt x="64" y="691" on="0"/>
        <pt x="72" y="699" on="0"/>
        <pt x="77" y="699" on="1"/>
        <pt x="467" y="699" on="1"/>
        <pt x="472" y="699" on="0"/>
        <pt x="480" y="690" on="0"/>
        <pt x="480" y="683" on="0"/>
        <pt x="476" y="677" on="1"/>
      </contour>
    </TTGlyph>
</ttFont>
